<svg xmlns="http://www.w3.org/2000/svg" width="443" height="353.352" viewBox="0 0 443 353.352">
  <g id="Grupo_1102361" data-name="Grupo 1102361" transform="translate(-262 -2036.813)">
    <g id="reshot-icon-cash-CDR6BJUZSG" transform="translate(613 2095.585)">
      <path id="Trazado_887991" data-name="Trazado 887991" d="M93.305,186.947H11.958a3.874,3.874,0,0,1-3.874-3.874V152.084a3.874,3.874,0,0,1,3.874-3.874H93.305a3.874,3.874,0,0,1,3.874,3.874v30.989A3.874,3.874,0,0,1,93.305,186.947Z" transform="translate(-6.631 -24.316)" fill="#ace5ac"/>
      <path id="Trazado_887992" data-name="Trazado 887992" d="M115.958,207.663h-73.6a1.937,1.937,0,0,1-1.937-1.937V182.484a1.937,1.937,0,0,1,1.937-1.937h73.6a1.937,1.937,0,0,1,1.937,1.937v23.242A1.937,1.937,0,0,1,115.958,207.663Z" transform="translate(-33.158 -50.842)" fill="#699e69"/>
      <path id="Trazado_887993" data-name="Trazado 887993" d="M209.179,173.137H187.874a1.937,1.937,0,0,1-1.937-1.937V128.59a1.937,1.937,0,0,1,1.937-1.937h21.305a1.937,1.937,0,0,1,1.937,1.937V171.2A1.937,1.937,0,0,1,209.179,173.137Z" transform="translate(-152.526 -6.632)" fill="#febd4b"/>
      <path id="Trazado_887994" data-name="Trazado 887994" d="M235.284,173.137H223.663V126.653h11.621Z" transform="translate(-183.474 -6.632)" fill="#c1c1c1"/>
      <path id="Trazado_887995" data-name="Trazado 887995" d="M93.221,233.9a4.842,4.842,0,1,1-4.842-4.842A4.842,4.842,0,0,1,93.221,233.9Zm47.453-4.842a4.842,4.842,0,1,0,4.842,4.842A4.842,4.842,0,0,0,140.674,229.053Z" transform="translate(-68.526 -90.632)" fill="#81bc82"/>
      <path id="Trazado_887996" data-name="Trazado 887996" d="M13.558,143.263a6.295,6.295,0,1,0,6.295-6.295A6.3,6.3,0,0,0,13.558,143.263Zm9.684,0a3.389,3.389,0,1,1-3.389-3.389A3.393,3.393,0,0,1,23.242,143.263ZM5.811,154.884V131.642A3.393,3.393,0,0,1,9.2,128.252H28.568a1.453,1.453,0,1,1,0,2.905H9.2a.485.485,0,0,0-.484.484v23.242a.485.485,0,0,0,.484.484H28.568a1.453,1.453,0,0,1,0,2.905H9.2A3.393,3.393,0,0,1,5.811,154.884Zm72.631-11.621a6.295,6.295,0,1,0-6.295,6.295A6.3,6.3,0,0,0,78.442,143.263Zm-9.684,0a3.389,3.389,0,1,1,3.389,3.389A3.393,3.393,0,0,1,68.758,143.263Zm17.916-20.821H60.042v-.484a3.393,3.393,0,0,0-3.389-3.389H35.347a3.393,3.393,0,0,0-3.389,3.389v.484H5.326A5.332,5.332,0,0,0,0,127.768v30.989a5.332,5.332,0,0,0,5.326,5.326H31.958v.484a3.393,3.393,0,0,0,3.389,3.389H56.653a3.393,3.393,0,0,0,3.389-3.389v-.484H86.674A5.332,5.332,0,0,0,92,158.757V127.768A5.332,5.332,0,0,0,86.674,122.442ZM31.958,161.179H5.326a2.424,2.424,0,0,1-2.421-2.421V127.768a2.424,2.424,0,0,1,2.421-2.421H31.958Zm25.179,3.389a.485.485,0,0,1-.484.484H53.263V133.579a1.453,1.453,0,0,0-2.905,0v31.474H41.642V154.884a1.453,1.453,0,0,0-2.905,0v10.168H35.348a.485.485,0,0,1-.484-.484v-42.61a.485.485,0,0,1,.484-.484h3.389v27.6a1.453,1.453,0,1,0,2.905,0v-27.6h8.716v6.295a1.453,1.453,0,1,0,2.905,0v-6.295h3.389a.485.485,0,0,1,.484.484v42.61Zm31.958-5.81a2.424,2.424,0,0,1-2.421,2.421H60.042V125.347H86.674a2.424,2.424,0,0,1,2.421,2.421Zm-2.905-27.116v23.242a3.393,3.393,0,0,1-3.389,3.389H63.819a1.453,1.453,0,1,1,0-2.905H82.8a.485.485,0,0,0,.484-.484V131.642a.485.485,0,0,0-.484-.484H63.431a1.453,1.453,0,0,1,0-2.905H82.8A3.393,3.393,0,0,1,86.189,131.642Z" transform="translate(0 0)"/>
    </g>
    <g id="reshot-icon-cash-CDR6BJUZSG-2" data-name="reshot-icon-cash-CDR6BJUZSG" transform="translate(262 2095.585)">
      <path id="Trazado_887991-2" data-name="Trazado 887991" d="M93.305,186.947H11.958a3.874,3.874,0,0,1-3.874-3.874V152.084a3.874,3.874,0,0,1,3.874-3.874H93.305a3.874,3.874,0,0,1,3.874,3.874v30.989A3.874,3.874,0,0,1,93.305,186.947Z" transform="translate(-6.631 -24.316)" fill="#ace5ac"/>
      <path id="Trazado_887992-2" data-name="Trazado 887992" d="M115.958,207.663h-73.6a1.937,1.937,0,0,1-1.937-1.937V182.484a1.937,1.937,0,0,1,1.937-1.937h73.6a1.937,1.937,0,0,1,1.937,1.937v23.242A1.937,1.937,0,0,1,115.958,207.663Z" transform="translate(-33.158 -50.842)" fill="#699e69"/>
      <path id="Trazado_887993-2" data-name="Trazado 887993" d="M209.179,173.137H187.874a1.937,1.937,0,0,1-1.937-1.937V128.59a1.937,1.937,0,0,1,1.937-1.937h21.305a1.937,1.937,0,0,1,1.937,1.937V171.2A1.937,1.937,0,0,1,209.179,173.137Z" transform="translate(-152.526 -6.632)" fill="#febd4b"/>
      <path id="Trazado_887994-2" data-name="Trazado 887994" d="M235.284,173.137H223.663V126.653h11.621Z" transform="translate(-183.474 -6.632)" fill="#c1c1c1"/>
      <path id="Trazado_887995-2" data-name="Trazado 887995" d="M93.221,233.9a4.842,4.842,0,1,1-4.842-4.842A4.842,4.842,0,0,1,93.221,233.9Zm47.453-4.842a4.842,4.842,0,1,0,4.842,4.842A4.842,4.842,0,0,0,140.674,229.053Z" transform="translate(-68.526 -90.632)" fill="#81bc82"/>
      <path id="Trazado_887996-2" data-name="Trazado 887996" d="M13.558,143.263a6.295,6.295,0,1,0,6.295-6.295A6.3,6.3,0,0,0,13.558,143.263Zm9.684,0a3.389,3.389,0,1,1-3.389-3.389A3.393,3.393,0,0,1,23.242,143.263ZM5.811,154.884V131.642A3.393,3.393,0,0,1,9.2,128.252H28.568a1.453,1.453,0,1,1,0,2.905H9.2a.485.485,0,0,0-.484.484v23.242a.485.485,0,0,0,.484.484H28.568a1.453,1.453,0,0,1,0,2.905H9.2A3.393,3.393,0,0,1,5.811,154.884Zm72.631-11.621a6.295,6.295,0,1,0-6.295,6.295A6.3,6.3,0,0,0,78.442,143.263Zm-9.684,0a3.389,3.389,0,1,1,3.389,3.389A3.393,3.393,0,0,1,68.758,143.263Zm17.916-20.821H60.042v-.484a3.393,3.393,0,0,0-3.389-3.389H35.347a3.393,3.393,0,0,0-3.389,3.389v.484H5.326A5.332,5.332,0,0,0,0,127.768v30.989a5.332,5.332,0,0,0,5.326,5.326H31.958v.484a3.393,3.393,0,0,0,3.389,3.389H56.653a3.393,3.393,0,0,0,3.389-3.389v-.484H86.674A5.332,5.332,0,0,0,92,158.757V127.768A5.332,5.332,0,0,0,86.674,122.442ZM31.958,161.179H5.326a2.424,2.424,0,0,1-2.421-2.421V127.768a2.424,2.424,0,0,1,2.421-2.421H31.958Zm25.179,3.389a.485.485,0,0,1-.484.484H53.263V133.579a1.453,1.453,0,0,0-2.905,0v31.474H41.642V154.884a1.453,1.453,0,0,0-2.905,0v10.168H35.348a.485.485,0,0,1-.484-.484v-42.61a.485.485,0,0,1,.484-.484h3.389v27.6a1.453,1.453,0,1,0,2.905,0v-27.6h8.716v6.295a1.453,1.453,0,1,0,2.905,0v-6.295h3.389a.485.485,0,0,1,.484.484v42.61Zm31.958-5.81a2.424,2.424,0,0,1-2.421,2.421H60.042V125.347H86.674a2.424,2.424,0,0,1,2.421,2.421Zm-2.905-27.116v23.242a3.393,3.393,0,0,1-3.389,3.389H63.819a1.453,1.453,0,1,1,0-2.905H82.8a.485.485,0,0,0,.484-.484V131.642a.485.485,0,0,0-.484-.484H63.431a1.453,1.453,0,0,1,0-2.905H82.8A3.393,3.393,0,0,1,86.189,131.642Z" transform="translate(0 0)"/>
    </g>
    <g id="reshot-icon-cash-CDR6BJUZSG-3" data-name="reshot-icon-cash-CDR6BJUZSG" transform="translate(437 1989.585)">
      <path id="Trazado_887991-3" data-name="Trazado 887991" d="M93.305,186.947H11.958a3.874,3.874,0,0,1-3.874-3.874V152.084a3.874,3.874,0,0,1,3.874-3.874H93.305a3.874,3.874,0,0,1,3.874,3.874v30.989A3.874,3.874,0,0,1,93.305,186.947Z" transform="translate(-6.631 -24.316)" fill="#ace5ac"/>
      <path id="Trazado_887992-3" data-name="Trazado 887992" d="M115.958,207.663h-73.6a1.937,1.937,0,0,1-1.937-1.937V182.484a1.937,1.937,0,0,1,1.937-1.937h73.6a1.937,1.937,0,0,1,1.937,1.937v23.242A1.937,1.937,0,0,1,115.958,207.663Z" transform="translate(-33.158 -50.842)" fill="#699e69"/>
      <path id="Trazado_887993-3" data-name="Trazado 887993" d="M209.179,173.137H187.874a1.937,1.937,0,0,1-1.937-1.937V128.59a1.937,1.937,0,0,1,1.937-1.937h21.305a1.937,1.937,0,0,1,1.937,1.937V171.2A1.937,1.937,0,0,1,209.179,173.137Z" transform="translate(-152.526 -6.632)" fill="#febd4b"/>
      <path id="Trazado_887994-3" data-name="Trazado 887994" d="M235.284,173.137H223.663V126.653h11.621Z" transform="translate(-183.474 -6.632)" fill="#c1c1c1"/>
      <path id="Trazado_887995-3" data-name="Trazado 887995" d="M93.221,233.9a4.842,4.842,0,1,1-4.842-4.842A4.842,4.842,0,0,1,93.221,233.9Zm47.453-4.842a4.842,4.842,0,1,0,4.842,4.842A4.842,4.842,0,0,0,140.674,229.053Z" transform="translate(-68.526 -90.632)" fill="#81bc82"/>
      <path id="Trazado_887996-3" data-name="Trazado 887996" d="M13.558,143.263a6.295,6.295,0,1,0,6.295-6.295A6.3,6.3,0,0,0,13.558,143.263Zm9.684,0a3.389,3.389,0,1,1-3.389-3.389A3.393,3.393,0,0,1,23.242,143.263ZM5.811,154.884V131.642A3.393,3.393,0,0,1,9.2,128.252H28.568a1.453,1.453,0,1,1,0,2.905H9.2a.485.485,0,0,0-.484.484v23.242a.485.485,0,0,0,.484.484H28.568a1.453,1.453,0,0,1,0,2.905H9.2A3.393,3.393,0,0,1,5.811,154.884Zm72.631-11.621a6.295,6.295,0,1,0-6.295,6.295A6.3,6.3,0,0,0,78.442,143.263Zm-9.684,0a3.389,3.389,0,1,1,3.389,3.389A3.393,3.393,0,0,1,68.758,143.263Zm17.916-20.821H60.042v-.484a3.393,3.393,0,0,0-3.389-3.389H35.347a3.393,3.393,0,0,0-3.389,3.389v.484H5.326A5.332,5.332,0,0,0,0,127.768v30.989a5.332,5.332,0,0,0,5.326,5.326H31.958v.484a3.393,3.393,0,0,0,3.389,3.389H56.653a3.393,3.393,0,0,0,3.389-3.389v-.484H86.674A5.332,5.332,0,0,0,92,158.757V127.768A5.332,5.332,0,0,0,86.674,122.442ZM31.958,161.179H5.326a2.424,2.424,0,0,1-2.421-2.421V127.768a2.424,2.424,0,0,1,2.421-2.421H31.958Zm25.179,3.389a.485.485,0,0,1-.484.484H53.263V133.579a1.453,1.453,0,0,0-2.905,0v31.474H41.642V154.884a1.453,1.453,0,0,0-2.905,0v10.168H35.348a.485.485,0,0,1-.484-.484v-42.61a.485.485,0,0,1,.484-.484h3.389v27.6a1.453,1.453,0,1,0,2.905,0v-27.6h8.716v6.295a1.453,1.453,0,1,0,2.905,0v-6.295h3.389a.485.485,0,0,1,.484.484v42.61Zm31.958-5.81a2.424,2.424,0,0,1-2.421,2.421H60.042V125.347H86.674a2.424,2.424,0,0,1,2.421,2.421Zm-2.905-27.116v23.242a3.393,3.393,0,0,1-3.389,3.389H63.819a1.453,1.453,0,1,1,0-2.905H82.8a.485.485,0,0,0,.484-.484V131.642a.485.485,0,0,0-.484-.484H63.431a1.453,1.453,0,0,1,0-2.905H82.8A3.393,3.393,0,0,1,86.189,131.642Z" transform="translate(0 0)"/>
    </g>
    <g id="reshot-icon-cash-CDR6BJUZSG-4" data-name="reshot-icon-cash-CDR6BJUZSG" transform="translate(437 2197.585)">
      <path id="Trazado_887991-4" data-name="Trazado 887991" d="M93.305,186.947H11.958a3.874,3.874,0,0,1-3.874-3.874V152.084a3.874,3.874,0,0,1,3.874-3.874H93.305a3.874,3.874,0,0,1,3.874,3.874v30.989A3.874,3.874,0,0,1,93.305,186.947Z" transform="translate(-6.631 -24.316)" fill="#ace5ac"/>
      <path id="Trazado_887992-4" data-name="Trazado 887992" d="M115.958,207.663h-73.6a1.937,1.937,0,0,1-1.937-1.937V182.484a1.937,1.937,0,0,1,1.937-1.937h73.6a1.937,1.937,0,0,1,1.937,1.937v23.242A1.937,1.937,0,0,1,115.958,207.663Z" transform="translate(-33.158 -50.842)" fill="#699e69"/>
      <path id="Trazado_887993-4" data-name="Trazado 887993" d="M209.179,173.137H187.874a1.937,1.937,0,0,1-1.937-1.937V128.59a1.937,1.937,0,0,1,1.937-1.937h21.305a1.937,1.937,0,0,1,1.937,1.937V171.2A1.937,1.937,0,0,1,209.179,173.137Z" transform="translate(-152.526 -6.632)" fill="#febd4b"/>
      <path id="Trazado_887994-4" data-name="Trazado 887994" d="M235.284,173.137H223.663V126.653h11.621Z" transform="translate(-183.474 -6.632)" fill="#c1c1c1"/>
      <path id="Trazado_887995-4" data-name="Trazado 887995" d="M93.221,233.9a4.842,4.842,0,1,1-4.842-4.842A4.842,4.842,0,0,1,93.221,233.9Zm47.453-4.842a4.842,4.842,0,1,0,4.842,4.842A4.842,4.842,0,0,0,140.674,229.053Z" transform="translate(-68.526 -90.632)" fill="#81bc82"/>
      <path id="Trazado_887996-4" data-name="Trazado 887996" d="M13.558,143.263a6.295,6.295,0,1,0,6.295-6.295A6.3,6.3,0,0,0,13.558,143.263Zm9.684,0a3.389,3.389,0,1,1-3.389-3.389A3.393,3.393,0,0,1,23.242,143.263ZM5.811,154.884V131.642A3.393,3.393,0,0,1,9.2,128.252H28.568a1.453,1.453,0,1,1,0,2.905H9.2a.485.485,0,0,0-.484.484v23.242a.485.485,0,0,0,.484.484H28.568a1.453,1.453,0,0,1,0,2.905H9.2A3.393,3.393,0,0,1,5.811,154.884Zm72.631-11.621a6.295,6.295,0,1,0-6.295,6.295A6.3,6.3,0,0,0,78.442,143.263Zm-9.684,0a3.389,3.389,0,1,1,3.389,3.389A3.393,3.393,0,0,1,68.758,143.263Zm17.916-20.821H60.042v-.484a3.393,3.393,0,0,0-3.389-3.389H35.347a3.393,3.393,0,0,0-3.389,3.389v.484H5.326A5.332,5.332,0,0,0,0,127.768v30.989a5.332,5.332,0,0,0,5.326,5.326H31.958v.484a3.393,3.393,0,0,0,3.389,3.389H56.653a3.393,3.393,0,0,0,3.389-3.389v-.484H86.674A5.332,5.332,0,0,0,92,158.757V127.768A5.332,5.332,0,0,0,86.674,122.442ZM31.958,161.179H5.326a2.424,2.424,0,0,1-2.421-2.421V127.768a2.424,2.424,0,0,1,2.421-2.421H31.958Zm25.179,3.389a.485.485,0,0,1-.484.484H53.263V133.579a1.453,1.453,0,0,0-2.905,0v31.474H41.642V154.884a1.453,1.453,0,0,0-2.905,0v10.168H35.348a.485.485,0,0,1-.484-.484v-42.61a.485.485,0,0,1,.484-.484h3.389v27.6a1.453,1.453,0,1,0,2.905,0v-27.6h8.716v6.295a1.453,1.453,0,1,0,2.905,0v-6.295h3.389a.485.485,0,0,1,.484.484v42.61Zm31.958-5.81a2.424,2.424,0,0,1-2.421,2.421H60.042V125.347H86.674a2.424,2.424,0,0,1,2.421,2.421Zm-2.905-27.116v23.242a3.393,3.393,0,0,1-3.389,3.389H63.819a1.453,1.453,0,1,1,0-2.905H82.8a.485.485,0,0,0,.484-.484V131.642a.485.485,0,0,0-.484-.484H63.431a1.453,1.453,0,0,1,0-2.905H82.8A3.393,3.393,0,0,1,86.189,131.642Z" transform="translate(0 0)"/>
    </g>
    <path id="Trazado_888903" data-name="Trazado 888903" d="M9.281-10.164H5.531V0H3.992V-10.164H.289v-1.211H9.281Zm4.82,3.07-.789-.047a1.762,1.762,0,0,0-1.027.289,1.855,1.855,0,0,0-.645.813V0H10.1V-8.453h1.375l.148,1.234a2.934,2.934,0,0,1,.887-1.023,2.073,2.073,0,0,1,1.215-.367,1.9,1.9,0,0,1,.328.027,2.175,2.175,0,0,1,.258.059ZM20.9,0q-.078-.383-.121-.676a4.96,4.96,0,0,1-.051-.59,3.589,3.589,0,0,1-1.121,1.02,2.867,2.867,0,0,1-1.488.41,2.763,2.763,0,0,1-2.012-.676,2.486,2.486,0,0,1-.691-1.863,2.183,2.183,0,0,1,.98-1.895,4.579,4.579,0,0,1,2.66-.684h1.672v-.836a1.551,1.551,0,0,0-.453-1.176A1.779,1.779,0,0,0,18.992-7.4a1.859,1.859,0,0,0-1.211.375,1.125,1.125,0,0,0-.461.9l-1.461.016-.016-.047a2.023,2.023,0,0,1,.863-1.687,3.578,3.578,0,0,1,2.371-.766,3.49,3.49,0,0,1,2.313.73,2.588,2.588,0,0,1,.875,2.105V-1.7a7.923,7.923,0,0,0,.047.875A4.5,4.5,0,0,0,22.484,0ZM18.344-1.125a2.739,2.739,0,0,0,1.508-.43,2.042,2.042,0,0,0,.875-.984V-3.914H19a2.24,2.24,0,0,0-1.488.469,1.4,1.4,0,0,0-.559,1.1,1.159,1.159,0,0,0,.352.891A1.472,1.472,0,0,0,18.344-1.125Zm7.531-7.328L25.984-7.2a3.069,3.069,0,0,1,1.059-1.043,2.824,2.824,0,0,1,1.449-.371,2.759,2.759,0,0,1,2.117.8,3.515,3.515,0,0,1,.75,2.473V0H29.82V-5.3a2.287,2.287,0,0,0-.441-1.586,1.768,1.768,0,0,0-1.348-.469,2.386,2.386,0,0,0-1.207.285,2.072,2.072,0,0,0-.785.8V0H24.5V-8.453Zm12.633,6.18a1.026,1.026,0,0,0-.387-.828,3.732,3.732,0,0,0-1.465-.562,6.146,6.146,0,0,1-2.293-.9,1.814,1.814,0,0,1-.8-1.547,2.229,2.229,0,0,1,.879-1.766,3.433,3.433,0,0,1,2.277-.734,3.4,3.4,0,0,1,2.328.781,2.239,2.239,0,0,1,.852,1.82l-.016.047H38.414a1.331,1.331,0,0,0-.48-.992A1.717,1.717,0,0,0,36.719-7.4a1.751,1.751,0,0,0-1.215.367,1.146,1.146,0,0,0-.4.875.927.927,0,0,0,.348.773,3.848,3.848,0,0,0,1.434.5,6.058,6.058,0,0,1,2.359.93,1.872,1.872,0,0,1,.8,1.57,2.226,2.226,0,0,1-.91,1.836,3.754,3.754,0,0,1-2.379.711,3.715,3.715,0,0,1-2.547-.82,2.341,2.341,0,0,1-.883-1.914l.016-.047h1.469a1.424,1.424,0,0,0,.609,1.2,2.358,2.358,0,0,0,1.336.379,2.1,2.1,0,0,0,1.285-.348A1.063,1.063,0,0,0,38.508-2.273ZM47.156,0q-.078-.383-.121-.676a4.96,4.96,0,0,1-.051-.59,3.589,3.589,0,0,1-1.121,1.02,2.867,2.867,0,0,1-1.488.41,2.763,2.763,0,0,1-2.012-.676,2.486,2.486,0,0,1-.691-1.863,2.183,2.183,0,0,1,.98-1.895,4.579,4.579,0,0,1,2.66-.684h1.672v-.836a1.551,1.551,0,0,0-.453-1.176A1.779,1.779,0,0,0,45.25-7.4a1.859,1.859,0,0,0-1.211.375,1.125,1.125,0,0,0-.461.9l-1.461.016L42.1-6.156a2.023,2.023,0,0,1,.863-1.687,3.578,3.578,0,0,1,2.371-.766,3.49,3.49,0,0,1,2.313.73,2.588,2.588,0,0,1,.875,2.105V-1.7a7.923,7.923,0,0,0,.047.875A4.5,4.5,0,0,0,48.742,0ZM44.6-1.125a2.739,2.739,0,0,0,1.508-.43,2.042,2.042,0,0,0,.875-.984V-3.914H45.258a2.24,2.24,0,0,0-1.488.469,1.4,1.4,0,0,0-.559,1.1,1.159,1.159,0,0,0,.352.891A1.472,1.472,0,0,0,44.6-1.125Zm9.516.086a1.81,1.81,0,0,0,1.242-.473,1.494,1.494,0,0,0,.531-1.16h1.391l.023.047a2.428,2.428,0,0,1-.937,1.941,3.312,3.312,0,0,1-2.25.848,3.319,3.319,0,0,1-2.75-1.211A4.674,4.674,0,0,1,50.4-4.062v-.328a4.654,4.654,0,0,1,.973-3,3.317,3.317,0,0,1,2.746-1.215,3.189,3.189,0,0,1,2.316.875A2.775,2.775,0,0,1,57.3-5.586l-.016.047h-1.4a1.865,1.865,0,0,0-.5-1.316,1.658,1.658,0,0,0-1.27-.543,1.777,1.777,0,0,0-1.652.879,4.114,4.114,0,0,0-.52,2.129v.328a4.192,4.192,0,0,0,.512,2.148A1.776,1.776,0,0,0,54.117-1.039Zm8.375,0a1.81,1.81,0,0,0,1.242-.473,1.494,1.494,0,0,0,.531-1.16h1.391l.023.047a2.428,2.428,0,0,1-.937,1.941,3.313,3.313,0,0,1-2.25.848,3.319,3.319,0,0,1-2.75-1.211,4.674,4.674,0,0,1-.969-3.016v-.328a4.654,4.654,0,0,1,.973-3,3.317,3.317,0,0,1,2.746-1.215,3.189,3.189,0,0,1,2.316.875,2.775,2.775,0,0,1,.871,2.148l-.016.047h-1.4a1.865,1.865,0,0,0-.5-1.316,1.658,1.658,0,0,0-1.27-.543,1.777,1.777,0,0,0-1.652.879,4.114,4.114,0,0,0-.52,2.129v.328a4.192,4.192,0,0,0,.512,2.148A1.776,1.776,0,0,0,62.492-1.039ZM69.172,0H67.633V-8.453h1.539Zm0-10.617H67.633v-1.57h1.539ZM71.18-4.3A4.654,4.654,0,0,1,72.2-7.395a3.406,3.406,0,0,1,2.758-1.215A3.439,3.439,0,0,1,77.73-7.4,4.639,4.639,0,0,1,78.75-4.3v.172a4.631,4.631,0,0,1-1.016,3.094,3.429,3.429,0,0,1-2.766,1.2A3.436,3.436,0,0,1,72.2-1.043a4.623,4.623,0,0,1-1.02-3.09Zm1.539.172a4.009,4.009,0,0,0,.566,2.219,1.875,1.875,0,0,0,1.684.875,1.87,1.87,0,0,0,1.672-.875,3.988,3.988,0,0,0,.57-2.219V-4.3a3.976,3.976,0,0,0-.574-2.211A1.882,1.882,0,0,0,74.953-7.4a1.856,1.856,0,0,0-1.668.883A4.018,4.018,0,0,0,72.719-4.3Zm2.992-7.906h1.8l.016.047-2.1,2.031H74.266Zm6.3,3.586L82.117-7.2a3.069,3.069,0,0,1,1.059-1.043,2.824,2.824,0,0,1,1.449-.371,2.759,2.759,0,0,1,2.117.8,3.515,3.515,0,0,1,.75,2.473V0H85.953V-5.3a2.287,2.287,0,0,0-.441-1.586,1.768,1.768,0,0,0-1.348-.469,2.386,2.386,0,0,0-1.207.285,2.072,2.072,0,0,0-.785.8V0H80.633V-8.453Z" transform="translate(440 2098)" fill="#12263f"/>
    <path id="Trazado_888897" data-name="Trazado 888897" d="M9.281-10.164H5.531V0H3.992V-10.164H.289v-1.211H9.281Zm4.82,3.07-.789-.047a1.762,1.762,0,0,0-1.027.289,1.855,1.855,0,0,0-.645.813V0H10.1V-8.453h1.375l.148,1.234a2.934,2.934,0,0,1,.887-1.023,2.073,2.073,0,0,1,1.215-.367,1.9,1.9,0,0,1,.328.027,2.175,2.175,0,0,1,.258.059ZM20.9,0q-.078-.383-.121-.676a4.96,4.96,0,0,1-.051-.59,3.589,3.589,0,0,1-1.121,1.02,2.867,2.867,0,0,1-1.488.41,2.763,2.763,0,0,1-2.012-.676,2.486,2.486,0,0,1-.691-1.863,2.183,2.183,0,0,1,.98-1.895,4.579,4.579,0,0,1,2.66-.684h1.672v-.836a1.551,1.551,0,0,0-.453-1.176A1.779,1.779,0,0,0,18.992-7.4a1.859,1.859,0,0,0-1.211.375,1.125,1.125,0,0,0-.461.9l-1.461.016-.016-.047a2.023,2.023,0,0,1,.863-1.687,3.578,3.578,0,0,1,2.371-.766,3.49,3.49,0,0,1,2.313.73,2.588,2.588,0,0,1,.875,2.105V-1.7a7.923,7.923,0,0,0,.047.875A4.5,4.5,0,0,0,22.484,0ZM18.344-1.125a2.739,2.739,0,0,0,1.508-.43,2.042,2.042,0,0,0,.875-.984V-3.914H19a2.24,2.24,0,0,0-1.488.469,1.4,1.4,0,0,0-.559,1.1,1.159,1.159,0,0,0,.352.891A1.472,1.472,0,0,0,18.344-1.125Zm7.531-7.328L25.984-7.2a3.069,3.069,0,0,1,1.059-1.043,2.824,2.824,0,0,1,1.449-.371,2.759,2.759,0,0,1,2.117.8,3.515,3.515,0,0,1,.75,2.473V0H29.82V-5.3a2.287,2.287,0,0,0-.441-1.586,1.768,1.768,0,0,0-1.348-.469,2.386,2.386,0,0,0-1.207.285,2.072,2.072,0,0,0-.785.8V0H24.5V-8.453Zm12.633,6.18a1.026,1.026,0,0,0-.387-.828,3.732,3.732,0,0,0-1.465-.562,6.146,6.146,0,0,1-2.293-.9,1.814,1.814,0,0,1-.8-1.547,2.229,2.229,0,0,1,.879-1.766,3.433,3.433,0,0,1,2.277-.734,3.4,3.4,0,0,1,2.328.781,2.239,2.239,0,0,1,.852,1.82l-.016.047H38.414a1.331,1.331,0,0,0-.48-.992A1.717,1.717,0,0,0,36.719-7.4a1.751,1.751,0,0,0-1.215.367,1.146,1.146,0,0,0-.4.875.927.927,0,0,0,.348.773,3.848,3.848,0,0,0,1.434.5,6.058,6.058,0,0,1,2.359.93,1.872,1.872,0,0,1,.8,1.57,2.226,2.226,0,0,1-.91,1.836,3.754,3.754,0,0,1-2.379.711,3.715,3.715,0,0,1-2.547-.82,2.341,2.341,0,0,1-.883-1.914l.016-.047h1.469a1.424,1.424,0,0,0,.609,1.2,2.358,2.358,0,0,0,1.336.379,2.1,2.1,0,0,0,1.285-.348A1.063,1.063,0,0,0,38.508-2.273ZM47.156,0q-.078-.383-.121-.676a4.96,4.96,0,0,1-.051-.59,3.589,3.589,0,0,1-1.121,1.02,2.867,2.867,0,0,1-1.488.41,2.763,2.763,0,0,1-2.012-.676,2.486,2.486,0,0,1-.691-1.863,2.183,2.183,0,0,1,.98-1.895,4.579,4.579,0,0,1,2.66-.684h1.672v-.836a1.551,1.551,0,0,0-.453-1.176A1.779,1.779,0,0,0,45.25-7.4a1.859,1.859,0,0,0-1.211.375,1.125,1.125,0,0,0-.461.9l-1.461.016L42.1-6.156a2.023,2.023,0,0,1,.863-1.687,3.578,3.578,0,0,1,2.371-.766,3.49,3.49,0,0,1,2.313.73,2.588,2.588,0,0,1,.875,2.105V-1.7a7.923,7.923,0,0,0,.047.875A4.5,4.5,0,0,0,48.742,0ZM44.6-1.125a2.739,2.739,0,0,0,1.508-.43,2.042,2.042,0,0,0,.875-.984V-3.914H45.258a2.24,2.24,0,0,0-1.488.469,1.4,1.4,0,0,0-.559,1.1,1.159,1.159,0,0,0,.352.891A1.472,1.472,0,0,0,44.6-1.125Zm9.516.086a1.81,1.81,0,0,0,1.242-.473,1.494,1.494,0,0,0,.531-1.16h1.391l.023.047a2.428,2.428,0,0,1-.937,1.941,3.312,3.312,0,0,1-2.25.848,3.319,3.319,0,0,1-2.75-1.211A4.674,4.674,0,0,1,50.4-4.062v-.328a4.654,4.654,0,0,1,.973-3,3.317,3.317,0,0,1,2.746-1.215,3.189,3.189,0,0,1,2.316.875A2.775,2.775,0,0,1,57.3-5.586l-.016.047h-1.4a1.865,1.865,0,0,0-.5-1.316,1.658,1.658,0,0,0-1.27-.543,1.777,1.777,0,0,0-1.652.879,4.114,4.114,0,0,0-.52,2.129v.328a4.192,4.192,0,0,0,.512,2.148A1.776,1.776,0,0,0,54.117-1.039Zm8.375,0a1.81,1.81,0,0,0,1.242-.473,1.494,1.494,0,0,0,.531-1.16h1.391l.023.047a2.428,2.428,0,0,1-.937,1.941,3.313,3.313,0,0,1-2.25.848,3.319,3.319,0,0,1-2.75-1.211,4.674,4.674,0,0,1-.969-3.016v-.328a4.654,4.654,0,0,1,.973-3,3.317,3.317,0,0,1,2.746-1.215,3.189,3.189,0,0,1,2.316.875,2.775,2.775,0,0,1,.871,2.148l-.016.047h-1.4a1.865,1.865,0,0,0-.5-1.316,1.658,1.658,0,0,0-1.27-.543,1.777,1.777,0,0,0-1.652.879,4.114,4.114,0,0,0-.52,2.129v.328a4.192,4.192,0,0,0,.512,2.148A1.776,1.776,0,0,0,62.492-1.039ZM69.172,0H67.633V-8.453h1.539Zm0-10.617H67.633v-1.57h1.539ZM71.18-4.3A4.654,4.654,0,0,1,72.2-7.395a3.406,3.406,0,0,1,2.758-1.215A3.439,3.439,0,0,1,77.73-7.4,4.639,4.639,0,0,1,78.75-4.3v.172a4.631,4.631,0,0,1-1.016,3.094,3.429,3.429,0,0,1-2.766,1.2A3.436,3.436,0,0,1,72.2-1.043a4.623,4.623,0,0,1-1.02-3.09Zm1.539.172a4.009,4.009,0,0,0,.566,2.219,1.875,1.875,0,0,0,1.684.875,1.87,1.87,0,0,0,1.672-.875,3.988,3.988,0,0,0,.57-2.219V-4.3a3.976,3.976,0,0,0-.574-2.211A1.882,1.882,0,0,0,74.953-7.4a1.856,1.856,0,0,0-1.668.883A4.018,4.018,0,0,0,72.719-4.3Zm2.992-7.906h1.8l.016.047-2.1,2.031H74.266Zm6.3,3.586L82.117-7.2a3.069,3.069,0,0,1,1.059-1.043,2.824,2.824,0,0,1,1.449-.371,2.759,2.759,0,0,1,2.117.8,3.515,3.515,0,0,1,.75,2.473V0H85.953V-5.3a2.287,2.287,0,0,0-.441-1.586,1.768,1.768,0,0,0-1.348-.469,2.386,2.386,0,0,0-1.207.285,2.072,2.072,0,0,0-.785.8V0H80.633V-8.453Z" transform="translate(440 2390)" fill="#12263f"/>
    <path id="Trazado_888898" data-name="Trazado 888898" d="M9.281-10.164H5.531V0H3.992V-10.164H.289v-1.211H9.281Zm4.82,3.07-.789-.047a1.762,1.762,0,0,0-1.027.289,1.855,1.855,0,0,0-.645.813V0H10.1V-8.453h1.375l.148,1.234a2.934,2.934,0,0,1,.887-1.023,2.073,2.073,0,0,1,1.215-.367,1.9,1.9,0,0,1,.328.027,2.175,2.175,0,0,1,.258.059ZM20.9,0q-.078-.383-.121-.676a4.96,4.96,0,0,1-.051-.59,3.589,3.589,0,0,1-1.121,1.02,2.867,2.867,0,0,1-1.488.41,2.763,2.763,0,0,1-2.012-.676,2.486,2.486,0,0,1-.691-1.863,2.183,2.183,0,0,1,.98-1.895,4.579,4.579,0,0,1,2.66-.684h1.672v-.836a1.551,1.551,0,0,0-.453-1.176A1.779,1.779,0,0,0,18.992-7.4a1.859,1.859,0,0,0-1.211.375,1.125,1.125,0,0,0-.461.9l-1.461.016-.016-.047a2.023,2.023,0,0,1,.863-1.687,3.578,3.578,0,0,1,2.371-.766,3.49,3.49,0,0,1,2.313.73,2.588,2.588,0,0,1,.875,2.105V-1.7a7.923,7.923,0,0,0,.047.875A4.5,4.5,0,0,0,22.484,0ZM18.344-1.125a2.739,2.739,0,0,0,1.508-.43,2.042,2.042,0,0,0,.875-.984V-3.914H19a2.24,2.24,0,0,0-1.488.469,1.4,1.4,0,0,0-.559,1.1,1.159,1.159,0,0,0,.352.891A1.472,1.472,0,0,0,18.344-1.125Zm7.531-7.328L25.984-7.2a3.069,3.069,0,0,1,1.059-1.043,2.824,2.824,0,0,1,1.449-.371,2.759,2.759,0,0,1,2.117.8,3.515,3.515,0,0,1,.75,2.473V0H29.82V-5.3a2.287,2.287,0,0,0-.441-1.586,1.768,1.768,0,0,0-1.348-.469,2.386,2.386,0,0,0-1.207.285,2.072,2.072,0,0,0-.785.8V0H24.5V-8.453Zm12.633,6.18a1.026,1.026,0,0,0-.387-.828,3.732,3.732,0,0,0-1.465-.562,6.146,6.146,0,0,1-2.293-.9,1.814,1.814,0,0,1-.8-1.547,2.229,2.229,0,0,1,.879-1.766,3.433,3.433,0,0,1,2.277-.734,3.4,3.4,0,0,1,2.328.781,2.239,2.239,0,0,1,.852,1.82l-.016.047H38.414a1.331,1.331,0,0,0-.48-.992A1.717,1.717,0,0,0,36.719-7.4a1.751,1.751,0,0,0-1.215.367,1.146,1.146,0,0,0-.4.875.927.927,0,0,0,.348.773,3.848,3.848,0,0,0,1.434.5,6.058,6.058,0,0,1,2.359.93,1.872,1.872,0,0,1,.8,1.57,2.226,2.226,0,0,1-.91,1.836,3.754,3.754,0,0,1-2.379.711,3.715,3.715,0,0,1-2.547-.82,2.341,2.341,0,0,1-.883-1.914l.016-.047h1.469a1.424,1.424,0,0,0,.609,1.2,2.358,2.358,0,0,0,1.336.379,2.1,2.1,0,0,0,1.285-.348A1.063,1.063,0,0,0,38.508-2.273ZM47.156,0q-.078-.383-.121-.676a4.96,4.96,0,0,1-.051-.59,3.589,3.589,0,0,1-1.121,1.02,2.867,2.867,0,0,1-1.488.41,2.763,2.763,0,0,1-2.012-.676,2.486,2.486,0,0,1-.691-1.863,2.183,2.183,0,0,1,.98-1.895,4.579,4.579,0,0,1,2.66-.684h1.672v-.836a1.551,1.551,0,0,0-.453-1.176A1.779,1.779,0,0,0,45.25-7.4a1.859,1.859,0,0,0-1.211.375,1.125,1.125,0,0,0-.461.9l-1.461.016L42.1-6.156a2.023,2.023,0,0,1,.863-1.687,3.578,3.578,0,0,1,2.371-.766,3.49,3.49,0,0,1,2.313.73,2.588,2.588,0,0,1,.875,2.105V-1.7a7.923,7.923,0,0,0,.047.875A4.5,4.5,0,0,0,48.742,0ZM44.6-1.125a2.739,2.739,0,0,0,1.508-.43,2.042,2.042,0,0,0,.875-.984V-3.914H45.258a2.24,2.24,0,0,0-1.488.469,1.4,1.4,0,0,0-.559,1.1,1.159,1.159,0,0,0,.352.891A1.472,1.472,0,0,0,44.6-1.125Zm9.516.086a1.81,1.81,0,0,0,1.242-.473,1.494,1.494,0,0,0,.531-1.16h1.391l.023.047a2.428,2.428,0,0,1-.937,1.941,3.312,3.312,0,0,1-2.25.848,3.319,3.319,0,0,1-2.75-1.211A4.674,4.674,0,0,1,50.4-4.062v-.328a4.654,4.654,0,0,1,.973-3,3.317,3.317,0,0,1,2.746-1.215,3.189,3.189,0,0,1,2.316.875A2.775,2.775,0,0,1,57.3-5.586l-.016.047h-1.4a1.865,1.865,0,0,0-.5-1.316,1.658,1.658,0,0,0-1.27-.543,1.777,1.777,0,0,0-1.652.879,4.114,4.114,0,0,0-.52,2.129v.328a4.192,4.192,0,0,0,.512,2.148A1.776,1.776,0,0,0,54.117-1.039Zm8.375,0a1.81,1.81,0,0,0,1.242-.473,1.494,1.494,0,0,0,.531-1.16h1.391l.023.047a2.428,2.428,0,0,1-.937,1.941,3.313,3.313,0,0,1-2.25.848,3.319,3.319,0,0,1-2.75-1.211,4.674,4.674,0,0,1-.969-3.016v-.328a4.654,4.654,0,0,1,.973-3,3.317,3.317,0,0,1,2.746-1.215,3.189,3.189,0,0,1,2.316.875,2.775,2.775,0,0,1,.871,2.148l-.016.047h-1.4a1.865,1.865,0,0,0-.5-1.316,1.658,1.658,0,0,0-1.27-.543,1.777,1.777,0,0,0-1.652.879,4.114,4.114,0,0,0-.52,2.129v.328a4.192,4.192,0,0,0,.512,2.148A1.776,1.776,0,0,0,62.492-1.039ZM69.172,0H67.633V-8.453h1.539Zm0-10.617H67.633v-1.57h1.539ZM71.18-4.3A4.654,4.654,0,0,1,72.2-7.395a3.406,3.406,0,0,1,2.758-1.215A3.439,3.439,0,0,1,77.73-7.4,4.639,4.639,0,0,1,78.75-4.3v.172a4.631,4.631,0,0,1-1.016,3.094,3.429,3.429,0,0,1-2.766,1.2A3.436,3.436,0,0,1,72.2-1.043a4.623,4.623,0,0,1-1.02-3.09Zm1.539.172a4.009,4.009,0,0,0,.566,2.219,1.875,1.875,0,0,0,1.684.875,1.87,1.87,0,0,0,1.672-.875,3.988,3.988,0,0,0,.57-2.219V-4.3a3.976,3.976,0,0,0-.574-2.211A1.882,1.882,0,0,0,74.953-7.4a1.856,1.856,0,0,0-1.668.883A4.018,4.018,0,0,0,72.719-4.3Zm2.992-7.906h1.8l.016.047-2.1,2.031H74.266Zm6.3,3.586L82.117-7.2a3.069,3.069,0,0,1,1.059-1.043,2.824,2.824,0,0,1,1.449-.371,2.759,2.759,0,0,1,2.117.8,3.515,3.515,0,0,1,.75,2.473V0H85.953V-5.3a2.287,2.287,0,0,0-.441-1.586,1.768,1.768,0,0,0-1.348-.469,2.386,2.386,0,0,0-1.207.285,2.072,2.072,0,0,0-.785.8V0H80.633V-8.453Z" transform="translate(264 2285)" fill="#12263f"/>
    <path id="Trazado_888899" data-name="Trazado 888899" d="M9.281-10.164H5.531V0H3.992V-10.164H.289v-1.211H9.281Zm4.82,3.07-.789-.047a1.762,1.762,0,0,0-1.027.289,1.855,1.855,0,0,0-.645.813V0H10.1V-8.453h1.375l.148,1.234a2.934,2.934,0,0,1,.887-1.023,2.073,2.073,0,0,1,1.215-.367,1.9,1.9,0,0,1,.328.027,2.175,2.175,0,0,1,.258.059ZM20.9,0q-.078-.383-.121-.676a4.96,4.96,0,0,1-.051-.59,3.589,3.589,0,0,1-1.121,1.02,2.867,2.867,0,0,1-1.488.41,2.763,2.763,0,0,1-2.012-.676,2.486,2.486,0,0,1-.691-1.863,2.183,2.183,0,0,1,.98-1.895,4.579,4.579,0,0,1,2.66-.684h1.672v-.836a1.551,1.551,0,0,0-.453-1.176A1.779,1.779,0,0,0,18.992-7.4a1.859,1.859,0,0,0-1.211.375,1.125,1.125,0,0,0-.461.9l-1.461.016-.016-.047a2.023,2.023,0,0,1,.863-1.687,3.578,3.578,0,0,1,2.371-.766,3.49,3.49,0,0,1,2.313.73,2.588,2.588,0,0,1,.875,2.105V-1.7a7.923,7.923,0,0,0,.047.875A4.5,4.5,0,0,0,22.484,0ZM18.344-1.125a2.739,2.739,0,0,0,1.508-.43,2.042,2.042,0,0,0,.875-.984V-3.914H19a2.24,2.24,0,0,0-1.488.469,1.4,1.4,0,0,0-.559,1.1,1.159,1.159,0,0,0,.352.891A1.472,1.472,0,0,0,18.344-1.125Zm7.531-7.328L25.984-7.2a3.069,3.069,0,0,1,1.059-1.043,2.824,2.824,0,0,1,1.449-.371,2.759,2.759,0,0,1,2.117.8,3.515,3.515,0,0,1,.75,2.473V0H29.82V-5.3a2.287,2.287,0,0,0-.441-1.586,1.768,1.768,0,0,0-1.348-.469,2.386,2.386,0,0,0-1.207.285,2.072,2.072,0,0,0-.785.8V0H24.5V-8.453Zm12.633,6.18a1.026,1.026,0,0,0-.387-.828,3.732,3.732,0,0,0-1.465-.562,6.146,6.146,0,0,1-2.293-.9,1.814,1.814,0,0,1-.8-1.547,2.229,2.229,0,0,1,.879-1.766,3.433,3.433,0,0,1,2.277-.734,3.4,3.4,0,0,1,2.328.781,2.239,2.239,0,0,1,.852,1.82l-.016.047H38.414a1.331,1.331,0,0,0-.48-.992A1.717,1.717,0,0,0,36.719-7.4a1.751,1.751,0,0,0-1.215.367,1.146,1.146,0,0,0-.4.875.927.927,0,0,0,.348.773,3.848,3.848,0,0,0,1.434.5,6.058,6.058,0,0,1,2.359.93,1.872,1.872,0,0,1,.8,1.57,2.226,2.226,0,0,1-.91,1.836,3.754,3.754,0,0,1-2.379.711,3.715,3.715,0,0,1-2.547-.82,2.341,2.341,0,0,1-.883-1.914l.016-.047h1.469a1.424,1.424,0,0,0,.609,1.2,2.358,2.358,0,0,0,1.336.379,2.1,2.1,0,0,0,1.285-.348A1.063,1.063,0,0,0,38.508-2.273ZM47.156,0q-.078-.383-.121-.676a4.96,4.96,0,0,1-.051-.59,3.589,3.589,0,0,1-1.121,1.02,2.867,2.867,0,0,1-1.488.41,2.763,2.763,0,0,1-2.012-.676,2.486,2.486,0,0,1-.691-1.863,2.183,2.183,0,0,1,.98-1.895,4.579,4.579,0,0,1,2.66-.684h1.672v-.836a1.551,1.551,0,0,0-.453-1.176A1.779,1.779,0,0,0,45.25-7.4a1.859,1.859,0,0,0-1.211.375,1.125,1.125,0,0,0-.461.9l-1.461.016L42.1-6.156a2.023,2.023,0,0,1,.863-1.687,3.578,3.578,0,0,1,2.371-.766,3.49,3.49,0,0,1,2.313.73,2.588,2.588,0,0,1,.875,2.105V-1.7a7.923,7.923,0,0,0,.047.875A4.5,4.5,0,0,0,48.742,0ZM44.6-1.125a2.739,2.739,0,0,0,1.508-.43,2.042,2.042,0,0,0,.875-.984V-3.914H45.258a2.24,2.24,0,0,0-1.488.469,1.4,1.4,0,0,0-.559,1.1,1.159,1.159,0,0,0,.352.891A1.472,1.472,0,0,0,44.6-1.125Zm9.516.086a1.81,1.81,0,0,0,1.242-.473,1.494,1.494,0,0,0,.531-1.16h1.391l.023.047a2.428,2.428,0,0,1-.937,1.941,3.312,3.312,0,0,1-2.25.848,3.319,3.319,0,0,1-2.75-1.211A4.674,4.674,0,0,1,50.4-4.062v-.328a4.654,4.654,0,0,1,.973-3,3.317,3.317,0,0,1,2.746-1.215,3.189,3.189,0,0,1,2.316.875A2.775,2.775,0,0,1,57.3-5.586l-.016.047h-1.4a1.865,1.865,0,0,0-.5-1.316,1.658,1.658,0,0,0-1.27-.543,1.777,1.777,0,0,0-1.652.879,4.114,4.114,0,0,0-.52,2.129v.328a4.192,4.192,0,0,0,.512,2.148A1.776,1.776,0,0,0,54.117-1.039Zm8.375,0a1.81,1.81,0,0,0,1.242-.473,1.494,1.494,0,0,0,.531-1.16h1.391l.023.047a2.428,2.428,0,0,1-.937,1.941,3.313,3.313,0,0,1-2.25.848,3.319,3.319,0,0,1-2.75-1.211,4.674,4.674,0,0,1-.969-3.016v-.328a4.654,4.654,0,0,1,.973-3,3.317,3.317,0,0,1,2.746-1.215,3.189,3.189,0,0,1,2.316.875,2.775,2.775,0,0,1,.871,2.148l-.016.047h-1.4a1.865,1.865,0,0,0-.5-1.316,1.658,1.658,0,0,0-1.27-.543,1.777,1.777,0,0,0-1.652.879,4.114,4.114,0,0,0-.52,2.129v.328a4.192,4.192,0,0,0,.512,2.148A1.776,1.776,0,0,0,62.492-1.039ZM69.172,0H67.633V-8.453h1.539Zm0-10.617H67.633v-1.57h1.539ZM71.18-4.3A4.654,4.654,0,0,1,72.2-7.395a3.406,3.406,0,0,1,2.758-1.215A3.439,3.439,0,0,1,77.73-7.4,4.639,4.639,0,0,1,78.75-4.3v.172a4.631,4.631,0,0,1-1.016,3.094,3.429,3.429,0,0,1-2.766,1.2A3.436,3.436,0,0,1,72.2-1.043a4.623,4.623,0,0,1-1.02-3.09Zm1.539.172a4.009,4.009,0,0,0,.566,2.219,1.875,1.875,0,0,0,1.684.875,1.87,1.87,0,0,0,1.672-.875,3.988,3.988,0,0,0,.57-2.219V-4.3a3.976,3.976,0,0,0-.574-2.211A1.882,1.882,0,0,0,74.953-7.4a1.856,1.856,0,0,0-1.668.883A4.018,4.018,0,0,0,72.719-4.3Zm2.992-7.906h1.8l.016.047-2.1,2.031H74.266Zm6.3,3.586L82.117-7.2a3.069,3.069,0,0,1,1.059-1.043,2.824,2.824,0,0,1,1.449-.371,2.759,2.759,0,0,1,2.117.8,3.515,3.515,0,0,1,.75,2.473V0H85.953V-5.3a2.287,2.287,0,0,0-.441-1.586,1.768,1.768,0,0,0-1.348-.469,2.386,2.386,0,0,0-1.207.285,2.072,2.072,0,0,0-.785.8V0H80.633V-8.453Z" transform="translate(616 2285)" fill="#12263f"/>
    <path id="Trazado_888900" data-name="Trazado 888900" d="M0,0H8V137H0Z" transform="translate(479 2167)" fill="#00ffdf"/>
    <path id="Trazado_888902" data-name="Trazado 888902" d="M0,0H8V217.659H0Z" transform="translate(593.086 2231.5) rotate(90)" fill="#00ffdf"/>
    <g id="reshot-icon-coin-bank-38AUQ4YVEP_1_" data-name="reshot-icon-coin-bank-38AUQ4YVEP (1)" transform="translate(433.638 2179.18)">
      <g id="Grupo_1102014" data-name="Grupo 1102014" transform="translate(16.854 16.854)">
        <g id="Grupo_1101985" data-name="Grupo 1101985" transform="translate(0 29.861)">
          <rect id="Rectángulo_403760" data-name="Rectángulo 403760" width="65.15" height="4.072" fill="#c1c1c1"/>
        </g>
        <g id="Grupo_1101986" data-name="Grupo 1101986" transform="translate(0 61.078)">
          <rect id="Rectángulo_403761" data-name="Rectángulo 403761" width="65.15" height="4.072" fill="#c1c1c1"/>
        </g>
        <g id="Grupo_1101987" data-name="Grupo 1101987" transform="translate(25.789 33.933)">
          <path id="Trazado_887997" data-name="Trazado 887997" d="M123.1,155.38v2.4c0,1.675.866,3.034,2.541,3.034h8a3.034,3.034,0,0,0,3.034-3.034v-2.4Z" transform="translate(-123.1 -155.38)" fill="#e5e5e4"/>
        </g>
        <g id="Grupo_1101988" data-name="Grupo 1101988" transform="translate(4.072 33.933)">
          <path id="Trazado_887998" data-name="Trazado 887998" d="M37.018,155.38v2.4c0,1.675.866,3.034,2.541,3.034h8a3.034,3.034,0,0,0,3.034-3.034v-2.4Z" transform="translate(-37.018 -155.38)" fill="#e5e5e4"/>
        </g>
        <g id="Grupo_1101989" data-name="Grupo 1101989" transform="translate(47.506 33.933)">
          <path id="Trazado_887999" data-name="Trazado 887999" d="M209.181,155.38v2.4c0,1.675.866,3.034,2.541,3.034h8a3.034,3.034,0,0,0,3.034-3.034v-2.4Z" transform="translate(-209.181 -155.38)" fill="#e5e5e4"/>
        </g>
        <g id="Grupo_1101990" data-name="Grupo 1101990" transform="translate(25.789 55.649)">
          <path id="Trazado_888000" data-name="Trazado 888000" d="M136.672,246.89v-2.4c0-1.675-.866-3.034-2.541-3.034h-8A3.034,3.034,0,0,0,123.1,244.5v2.4Z" transform="translate(-123.099 -241.461)" fill="#e5e5e4"/>
        </g>
        <g id="Grupo_1101991" data-name="Grupo 1101991" transform="translate(47.506 55.649)">
          <path id="Trazado_888001" data-name="Trazado 888001" d="M222.754,246.89v-2.4c0-1.675-.866-3.034-2.541-3.034h-8a3.034,3.034,0,0,0-3.034,3.034v2.4Z" transform="translate(-209.181 -241.461)" fill="#e5e5e4"/>
        </g>
        <g id="Grupo_1101992" data-name="Grupo 1101992" transform="translate(4.072 55.649)">
          <path id="Trazado_888002" data-name="Trazado 888002" d="M50.59,246.89v-2.4c0-1.675-.866-3.034-2.541-3.034h-8a3.034,3.034,0,0,0-3.034,3.034v2.4Z" transform="translate(-37.017 -241.461)" fill="#e5e5e4"/>
        </g>
        <g id="Grupo_1101993" data-name="Grupo 1101993" transform="translate(4.072 33.933)">
          <path id="Trazado_888003" data-name="Trazado 888003" d="M39.733,157.775v-2.4H37.018v2.4c0,1.675.866,3.034,2.541,3.034h2.715C40.6,160.809,39.733,159.451,39.733,157.775Z" transform="translate(-37.018 -155.38)" fill="#efefef"/>
        </g>
        <g id="Grupo_1101994" data-name="Grupo 1101994" transform="translate(4.072 55.649)">
          <path id="Trazado_888004" data-name="Trazado 888004" d="M42.767,241.462H40.052a3.034,3.034,0,0,0-3.034,3.034v2.4h2.715v-2.4A3.034,3.034,0,0,1,42.767,241.462Z" transform="translate(-37.018 -241.462)" fill="#efefef"/>
        </g>
        <g id="Grupo_1101995" data-name="Grupo 1101995" transform="translate(25.789 33.933)">
          <path id="Trazado_888005" data-name="Trazado 888005" d="M125.815,157.775v-2.4H123.1v2.4c0,1.675.866,3.034,2.541,3.034h2.715C126.68,160.809,125.815,159.451,125.815,157.775Z" transform="translate(-123.1 -155.38)" fill="#efefef"/>
        </g>
        <g id="Grupo_1101996" data-name="Grupo 1101996" transform="translate(25.789 55.649)">
          <path id="Trazado_888006" data-name="Trazado 888006" d="M128.848,241.462h-2.715A3.034,3.034,0,0,0,123.1,244.5v2.4h2.715v-2.4A3.035,3.035,0,0,1,128.848,241.462Z" transform="translate(-123.099 -241.462)" fill="#efefef"/>
        </g>
        <g id="Grupo_1101997" data-name="Grupo 1101997" transform="translate(47.506 33.933)">
          <path id="Trazado_888007" data-name="Trazado 888007" d="M211.9,157.775v-2.4h-2.715v2.4c0,1.675.866,3.034,2.541,3.034h2.715C212.761,160.809,211.9,159.451,211.9,157.775Z" transform="translate(-209.181 -155.38)" fill="#efefef"/>
        </g>
        <g id="Grupo_1101998" data-name="Grupo 1101998" transform="translate(47.506 55.649)">
          <path id="Trazado_888008" data-name="Trazado 888008" d="M214.93,241.462h-2.715a3.034,3.034,0,0,0-3.034,3.034v2.4H211.9v-2.4A3.034,3.034,0,0,1,214.93,241.462Z" transform="translate(-209.181 -241.462)" fill="#efefef"/>
        </g>
        <g id="Grupo_1101999" data-name="Grupo 1101999" transform="translate(8.144 39.362)">
          <rect id="Rectángulo_403762" data-name="Rectángulo 403762" width="5.429" height="16.288" fill="#e5e5e4"/>
        </g>
        <g id="Grupo_1102000" data-name="Grupo 1102000" transform="translate(29.861 39.362)">
          <rect id="Rectángulo_403763" data-name="Rectángulo 403763" width="5.429" height="16.288" fill="#e5e5e4"/>
        </g>
        <g id="Grupo_1102001" data-name="Grupo 1102001" transform="translate(51.578 39.362)">
          <rect id="Rectángulo_403764" data-name="Rectángulo 403764" width="5.429" height="16.288" fill="#e5e5e4"/>
        </g>
        <g id="Grupo_1102002" data-name="Grupo 1102002" transform="translate(21.038 0)">
          <path id="Trazado_888009" data-name="Trazado 888009" d="M108.38,41.237h14.854a11.537,11.537,0,1,0-14.854,0Z" transform="translate(-104.27 -20.877)" fill="#ffda88"/>
        </g>
        <g id="Grupo_1102003" data-name="Grupo 1102003" transform="translate(21.038 0)">
          <path id="Trazado_888010" data-name="Trazado 888010" d="M108.341,32.414a11.531,11.531,0,0,1,9.5-11.346,11.527,11.527,0,0,0-9.463,20.169h4.072A11.507,11.507,0,0,1,108.341,32.414Z" transform="translate(-104.269 -20.877)" fill="#ffe2a9"/>
        </g>
        <g id="Grupo_1102004" data-name="Grupo 1102004" transform="translate(0 10.528)">
          <path id="Trazado_888011" data-name="Trazado 888011" d="M64.939,62.61c.028.334.05.668.05,1.009a11.506,11.506,0,0,1-4.11,8.823H46.025a11.507,11.507,0,0,1-4.11-8.823c0-.341.022-.675.05-1.009L20.877,81.942h65.15Z" transform="translate(-20.877 -62.61)" fill="#e5e5e4"/>
        </g>
        <g id="Grupo_1102005" data-name="Grupo 1102005" transform="translate(0 10.528)">
          <path id="Trazado_888012" data-name="Trazado 888012" d="M41.915,63.619c0-.341.022-.675.05-1.009L20.877,81.942h4.072L42.193,66.133A11.563,11.563,0,0,1,41.915,63.619Z" transform="translate(-20.877 -62.61)" fill="#efefef"/>
        </g>
        <g id="Grupo_1102006" data-name="Grupo 1102006" transform="translate(29.386 4.624)">
          <path id="Trazado_888013" data-name="Trazado 888013" d="M144.346,47.012a3.013,3.013,0,0,0-.913-1.019,9.951,9.951,0,0,0-1.609-.819c-.97-.39-1.453-.854-1.453-1.387a.988.988,0,0,1,.279-.7.914.914,0,0,1,.669-.292,3.974,3.974,0,0,1,1.653.679l1.1-1.724a2.854,2.854,0,0,0-2.163-1.042v-.776c0-.4-.475-.728-1.357-.728s-1.357.326-1.357.728v.892a3.613,3.613,0,0,0-.864.722,3.509,3.509,0,0,0-.657,2.4,2.779,2.779,0,0,0,1.523,2.289,6.956,6.956,0,0,0,1.336.717c1.168.5,1.715.895,1.715,1.461a1.083,1.083,0,0,1-.38.785,1.249,1.249,0,0,1-.8.376c-.791.056-1.441-.5-2.35-1.17l-1.349,1.712a6.46,6.46,0,0,0,1.832,1.451V52.3c0,.4.587.728,1.357.728.724,0,1.357-.325,1.357-.728v-.729a3.733,3.733,0,0,0,1.655-.726,3.3,3.3,0,0,0,1.16-2.415A2.842,2.842,0,0,0,144.346,47.012Z" transform="translate(-137.359 -39.204)" fill="#7fd3b9"/>
        </g>
        <g id="Grupo_1102007" data-name="Grupo 1102007" transform="translate(20.36 20.36)">
          <rect id="Rectángulo_403765" data-name="Rectángulo 403765" width="24.431" height="4.072" fill="#7fd3b9"/>
        </g>
        <g id="Grupo_1102008" data-name="Grupo 1102008" transform="translate(20.36 20.36)">
          <rect id="Rectángulo_403766" data-name="Rectángulo 403766" width="9.501" height="4.072" fill="#bbead9"/>
        </g>
        <g id="Grupo_1102009" data-name="Grupo 1102009" transform="translate(0 29.861)">
          <rect id="Rectángulo_403767" data-name="Rectángulo 403767" width="4.072" height="4.072" fill="#d1d1d1"/>
        </g>
        <g id="Grupo_1102010" data-name="Grupo 1102010" transform="translate(0 61.078)">
          <rect id="Rectángulo_403768" data-name="Rectángulo 403768" width="4.072" height="4.072" fill="#d1d1d1"/>
        </g>
        <g id="Grupo_1102011" data-name="Grupo 1102011" transform="translate(8.144 39.362)">
          <rect id="Rectángulo_403769" data-name="Rectángulo 403769" width="1.357" height="16.288" fill="#efefef"/>
        </g>
        <g id="Grupo_1102012" data-name="Grupo 1102012" transform="translate(29.861 39.362)">
          <rect id="Rectángulo_403770" data-name="Rectángulo 403770" width="1.357" height="16.288" fill="#efefef"/>
        </g>
        <g id="Grupo_1102013" data-name="Grupo 1102013" transform="translate(51.578 39.362)">
          <rect id="Rectángulo_403771" data-name="Rectángulo 403771" width="1.357" height="16.288" fill="#efefef"/>
        </g>
      </g>
      <g id="Grupo_1102030" data-name="Grupo 1102030" transform="translate(15.497 15.497)">
        <g id="Grupo_1102015" data-name="Grupo 1102015" transform="translate(0 29.861)">
          <path id="Trazado_888014" data-name="Trazado 888014" d="M82,140.646H16.854a1.356,1.356,0,0,1-1.357-1.357v-4.072a1.356,1.356,0,0,1,1.357-1.357H82a1.356,1.356,0,0,1,1.357,1.357v4.072A1.356,1.356,0,0,1,82,140.646Zm-63.793-2.715H80.648v-1.357H18.212Z" transform="translate(-15.497 -133.86)" fill="#161616"/>
        </g>
        <g id="Grupo_1102016" data-name="Grupo 1102016" transform="translate(0 61.079)">
          <path id="Trazado_888015" data-name="Trazado 888015" d="M82,264.389H16.854a1.356,1.356,0,0,1-1.357-1.357V258.96a1.356,1.356,0,0,1,1.357-1.357H82a1.356,1.356,0,0,1,1.357,1.357v4.072A1.356,1.356,0,0,1,82,264.389Zm-63.793-2.715H80.648v-1.357H18.212Z" transform="translate(-15.497 -257.603)" fill="#161616"/>
        </g>
        <g id="Grupo_1102017" data-name="Grupo 1102017" transform="translate(25.789 33.933)">
          <path id="Trazado_888016" data-name="Trazado 888016" d="M129.615,158.144h-8c-2.3,0-3.9-1.805-3.9-4.391v-2.4A1.356,1.356,0,0,1,119.076,150h13.573a1.356,1.356,0,0,1,1.357,1.357v2.4A4.4,4.4,0,0,1,129.615,158.144Zm-9.182-5.429v1.038c0,.626.154,1.677,1.184,1.677h8a1.678,1.678,0,0,0,1.677-1.677v-1.038Z" transform="translate(-117.719 -150)" fill="#161616"/>
        </g>
        <g id="Grupo_1102018" data-name="Grupo 1102018" transform="translate(4.072 33.933)">
          <path id="Trazado_888017" data-name="Trazado 888017" d="M43.534,158.144h-8c-2.3,0-3.9-1.805-3.9-4.391v-2.4A1.356,1.356,0,0,1,33,150H46.568a1.356,1.356,0,0,1,1.357,1.357v2.4A4.4,4.4,0,0,1,43.534,158.144Zm-9.182-5.429v1.038c0,.626.154,1.677,1.184,1.677h8a1.678,1.678,0,0,0,1.677-1.677v-1.038Z" transform="translate(-31.638 -150)" fill="#161616"/>
        </g>
        <g id="Grupo_1102019" data-name="Grupo 1102019" transform="translate(47.506 33.933)">
          <path id="Trazado_888018" data-name="Trazado 888018" d="M215.7,158.144h-8c-2.3,0-3.9-1.805-3.9-4.391v-2.4A1.356,1.356,0,0,1,205.158,150h13.573a1.356,1.356,0,0,1,1.357,1.357v2.4A4.4,4.4,0,0,1,215.7,158.144Zm-9.182-5.429v1.038c0,.626.154,1.677,1.184,1.677h8a1.678,1.678,0,0,0,1.677-1.677v-1.038Z" transform="translate(-203.801 -150)" fill="#161616"/>
        </g>
        <g id="Grupo_1102020" data-name="Grupo 1102020" transform="translate(25.789 55.649)">
          <path id="Trazado_888019" data-name="Trazado 888019" d="M132.65,244.226H119.077a1.356,1.356,0,0,1-1.357-1.357v-2.4a4.4,4.4,0,0,1,4.391-4.391h8c2.3,0,3.9,1.805,3.9,4.391v2.4A1.357,1.357,0,0,1,132.65,244.226Zm-12.215-2.715h10.858v-1.038c0-.626-.154-1.677-1.184-1.677h-8a1.678,1.678,0,0,0-1.677,1.677Z" transform="translate(-117.72 -236.082)" fill="#161616"/>
        </g>
        <g id="Grupo_1102021" data-name="Grupo 1102021" transform="translate(47.506 55.649)">
          <path id="Trazado_888020" data-name="Trazado 888020" d="M218.731,244.226H205.158a1.356,1.356,0,0,1-1.357-1.357v-2.4a4.4,4.4,0,0,1,4.391-4.391h8c2.3,0,3.9,1.805,3.9,4.391v2.4A1.356,1.356,0,0,1,218.731,244.226Zm-12.216-2.715h10.858v-1.038c0-.626-.154-1.677-1.184-1.677h-8a1.678,1.678,0,0,0-1.677,1.677Z" transform="translate(-203.801 -236.082)" fill="#161616"/>
        </g>
        <g id="Grupo_1102022" data-name="Grupo 1102022" transform="translate(4.072 55.649)">
          <path id="Trazado_888021" data-name="Trazado 888021" d="M46.568,244.226H33a1.356,1.356,0,0,1-1.357-1.357v-2.4a4.4,4.4,0,0,1,4.391-4.391h8c2.3,0,3.9,1.805,3.9,4.391v2.4A1.356,1.356,0,0,1,46.568,244.226Zm-12.216-2.715H45.211v-1.038c0-.626-.154-1.677-1.184-1.677h-8a1.678,1.678,0,0,0-1.677,1.677Z" transform="translate(-31.638 -236.082)" fill="#161616"/>
        </g>
        <g id="Grupo_1102023" data-name="Grupo 1102023" transform="translate(8.144 39.362)">
          <path id="Trazado_888022" data-name="Trazado 888022" d="M54.565,190.523H49.135a1.356,1.356,0,0,1-1.357-1.357V172.878a1.356,1.356,0,0,1,1.357-1.357h5.429a1.356,1.356,0,0,1,1.357,1.357v16.287A1.357,1.357,0,0,1,54.565,190.523Zm-4.072-2.715h2.715V174.236H50.493Z" transform="translate(-47.778 -171.521)" fill="#161616"/>
        </g>
        <g id="Grupo_1102024" data-name="Grupo 1102024" transform="translate(29.861 39.362)">
          <path id="Trazado_888023" data-name="Trazado 888023" d="M140.646,190.523h-5.429a1.356,1.356,0,0,1-1.357-1.357V172.878a1.356,1.356,0,0,1,1.357-1.357h5.429A1.356,1.356,0,0,1,142,172.878v16.287A1.356,1.356,0,0,1,140.646,190.523Zm-4.072-2.715h2.715V174.236h-2.715Z" transform="translate(-133.86 -171.521)" fill="#161616"/>
        </g>
        <g id="Grupo_1102025" data-name="Grupo 1102025" transform="translate(21.038)">
          <path id="Trazado_888024" data-name="Trazado 888024" d="M119.21,38.571H104.357a1.356,1.356,0,0,1-.875-.319,12.894,12.894,0,1,1,16.6,0A1.354,1.354,0,0,1,119.21,38.571Zm-14.34-2.715H118.7a10.18,10.18,0,1,0-13.828,0Z" transform="translate(-98.889 -15.497)" fill="#161616"/>
        </g>
        <g id="Grupo_1102026" data-name="Grupo 1102026" transform="translate(30.743 5.981)">
          <path id="Trazado_888025" data-name="Trazado 888025" d="M144.346,47.012a3.013,3.013,0,0,0-.913-1.019,9.951,9.951,0,0,0-1.609-.819c-.97-.39-1.453-.854-1.453-1.387a.988.988,0,0,1,.279-.7.914.914,0,0,1,.669-.292,3.974,3.974,0,0,1,1.653.679l1.1-1.724a2.854,2.854,0,0,0-2.163-1.042v-.776c0-.4-.475-.728-1.357-.728s-1.357.326-1.357.728v.892a3.613,3.613,0,0,0-.864.722,3.509,3.509,0,0,0-.657,2.4,2.779,2.779,0,0,0,1.523,2.289,6.956,6.956,0,0,0,1.336.717c1.168.5,1.715.895,1.715,1.461a1.083,1.083,0,0,1-.38.785,1.249,1.249,0,0,1-.8.376c-.791.056-1.441-.5-2.35-1.17l-1.349,1.712a6.46,6.46,0,0,0,1.832,1.451V52.3c0,.4.587.728,1.357.728.724,0,1.357-.325,1.357-.728v-.729a3.733,3.733,0,0,0,1.655-.726,3.3,3.3,0,0,0,1.16-2.415A2.842,2.842,0,0,0,144.346,47.012Z" transform="translate(-137.359 -39.204)" fill="#161616"/>
        </g>
        <g id="Grupo_1102027" data-name="Grupo 1102027" transform="translate(20.36 20.36)">
          <path id="Trazado_888026" data-name="Trazado 888026" d="M121.988,102.986H97.556a1.356,1.356,0,0,1-1.357-1.357V97.557A1.356,1.356,0,0,1,97.556,96.2h24.431a1.356,1.356,0,0,1,1.357,1.357v4.072A1.357,1.357,0,0,1,121.988,102.986Zm-23.074-2.715H120.63V98.914H98.914Z" transform="translate(-96.199 -96.2)" fill="#161616"/>
        </g>
        <g id="Grupo_1102028" data-name="Grupo 1102028" transform="translate(51.578 39.362)">
          <path id="Trazado_888027" data-name="Trazado 888027" d="M226.728,190.523H221.3a1.356,1.356,0,0,1-1.357-1.357V172.878a1.356,1.356,0,0,1,1.357-1.357h5.429a1.356,1.356,0,0,1,1.357,1.357v4.072a1.357,1.357,0,0,1-2.715,0v-2.715h-2.715v13.573h2.715v-5.429a1.357,1.357,0,1,1,2.715,0v6.787A1.356,1.356,0,0,1,226.728,190.523Z" transform="translate(-219.942 -171.521)" fill="#161616"/>
        </g>
        <g id="Grupo_1102029" data-name="Grupo 1102029" transform="translate(0 10.528)">
          <path id="Trazado_888028" data-name="Trazado 888028" d="M82.006,79.275H16.856a1.358,1.358,0,0,1-.917-2.358l7.2-6.6a1.358,1.358,0,0,1,1.835,2L20.344,76.56H78.517L62.173,61.577a12.882,12.882,0,0,1-4.44,7.877,1.354,1.354,0,0,1-.875.319H42a1.356,1.356,0,0,1-.875-.319,12.882,12.882,0,0,1-4.44-7.877l-7.708,7.066a1.358,1.358,0,0,1-1.835-2l9.88-9.057A1.357,1.357,0,0,1,39.3,58.7c-.024.3-.045.594-.045.9a10.161,10.161,0,0,0,3.266,7.465H56.344a10.16,10.16,0,0,0,3.266-7.465c0-.3-.021-.6-.045-.9a1.357,1.357,0,0,1,2.269-1.113L82.923,76.917a1.358,1.358,0,0,1-.917,2.358Z" transform="translate(-15.499 -57.227)" fill="#161616"/>
        </g>
      </g>
    </g>
    <path id="Trazado_888901" data-name="Trazado 888901" d="M1.047,0V-11.375H4.773a5.41,5.41,0,0,1,3.133.785A2.659,2.659,0,0,1,9.031-8.258a2.487,2.487,0,0,1-.406,1.4,2.47,2.47,0,0,1-1.187.93,2.451,2.451,0,0,1,1.6.922,2.768,2.768,0,0,1,.539,1.7A2.943,2.943,0,0,1,8.5-.84,4.873,4.873,0,0,1,5.445,0ZM3.328-5.031V-1.75H5.445a2.119,2.119,0,0,0,1.383-.395A1.429,1.429,0,0,0,7.3-3.312a1.673,1.673,0,0,0-.469-1.273,1.985,1.985,0,0,0-1.414-.445Zm0-1.578H4.852a2.283,2.283,0,0,0,1.406-.375A1.291,1.291,0,0,0,6.75-8.078a1.365,1.365,0,0,0-.5-1.164,2.437,2.437,0,0,0-1.48-.375H3.328ZM16.055,0a4.8,4.8,0,0,1-.215-.609,4.239,4.239,0,0,1-.129-.656,3.127,3.127,0,0,1-.93,1.023,2.33,2.33,0,0,1-1.375.406A2.855,2.855,0,0,1,11.359-.52a2.449,2.449,0,0,1-.719-1.863A2.229,2.229,0,0,1,11.6-4.309a4.78,4.78,0,0,1,2.793-.684h1.281v-.672a1.315,1.315,0,0,0-.32-.945,1.257,1.257,0,0,0-.953-.336,1.239,1.239,0,0,0-.855.27.941.941,0,0,0-.3.738h-2.2l-.016-.047a2.144,2.144,0,0,1,.934-1.848,4.055,4.055,0,0,1,2.582-.777,3.784,3.784,0,0,1,2.465.766,2.667,2.667,0,0,1,.941,2.2v3.492a6.6,6.6,0,0,0,.09,1.117A5.606,5.606,0,0,0,18.328,0ZM13.969-1.523a1.944,1.944,0,0,0,1.063-.3,1.6,1.6,0,0,0,.641-.687V-3.7H14.391a1.519,1.519,0,0,0-1.1.359,1.181,1.181,0,0,0-.371.883.881.881,0,0,0,.277.684A1.1,1.1,0,0,0,13.969-1.523Zm7.781-6.93.1,1.211A3.092,3.092,0,0,1,22.891-8.25a2.7,2.7,0,0,1,1.383-.359,2.513,2.513,0,0,1,2,.824,3.908,3.908,0,0,1,.719,2.605V0H24.7V-5.172a2.024,2.024,0,0,0-.316-1.285,1.166,1.166,0,0,0-.949-.379,1.992,1.992,0,0,0-.895.191,1.746,1.746,0,0,0-.637.527V0H19.625V-8.453ZM32.227-1.586a1.27,1.27,0,0,0,.945-.355,1.291,1.291,0,0,0,.352-.949H35.6l.016.047A2.645,2.645,0,0,1,34.664-.7a3.564,3.564,0,0,1-2.437.863,3.6,3.6,0,0,1-2.9-1.2A4.558,4.558,0,0,1,28.3-4.1v-.234A4.588,4.588,0,0,1,29.324-7.4a3.57,3.57,0,0,1,2.887-1.207,3.486,3.486,0,0,1,2.492.891,2.976,2.976,0,0,1,.914,2.344l-.016.047H33.523a1.687,1.687,0,0,0-.348-1.09,1.168,1.168,0,0,0-.965-.434,1.3,1.3,0,0,0-1.254.707,3.878,3.878,0,0,0-.371,1.809V-4.1a3.863,3.863,0,0,0,.371,1.82A1.32,1.32,0,0,0,32.227-1.586ZM36.594-4.3a4.536,4.536,0,0,1,1.055-3.1A3.676,3.676,0,0,1,40.57-8.609a3.715,3.715,0,0,1,2.938,1.2A4.512,4.512,0,0,1,44.57-4.3v.164a4.519,4.519,0,0,1-1.059,3.105,3.7,3.7,0,0,1-2.926,1.2,3.709,3.709,0,0,1-2.934-1.2,4.519,4.519,0,0,1-1.059-3.105Zm2.273.164a3.677,3.677,0,0,0,.406,1.855,1.4,1.4,0,0,0,1.313.7,1.389,1.389,0,0,0,1.293-.7,3.653,3.653,0,0,0,.41-1.852V-4.3a3.616,3.616,0,0,0-.414-1.836,1.4,1.4,0,0,0-1.3-.711,1.384,1.384,0,0,0-1.293.715,3.648,3.648,0,0,0-.41,1.832Z" transform="translate(461 2282)" fill="#12263f"/>
    <path id="Trazado_888904" data-name="Trazado 888904" d="M6.977-2.969A1.33,1.33,0,0,0,6.52-4.023a4.592,4.592,0,0,0-1.605-.75,9.124,9.124,0,0,1-2.988-1.4,2.646,2.646,0,0,1-1.02-2.2,2.761,2.761,0,0,1,1.148-2.285,4.654,4.654,0,0,1,2.93-.887,4.621,4.621,0,0,1,3.043.953,2.982,2.982,0,0,1,1.113,2.5l-.016.047H6.914A1.657,1.657,0,0,0,6.4-9.348,2.106,2.106,0,0,0,4.953-9.8a1.91,1.91,0,0,0-1.3.406,1.323,1.323,0,0,0-.461,1.039,1.135,1.135,0,0,0,.5.949,6.689,6.689,0,0,0,1.727.785A7.429,7.429,0,0,1,8.273-5.238a2.841,2.841,0,0,1,.984,2.254A2.713,2.713,0,0,1,8.117-.68,4.952,4.952,0,0,1,5.1.164,5.388,5.388,0,0,1,1.949-.75,3.015,3.015,0,0,1,.672-3.477l.016-.047H2.9a1.79,1.79,0,0,0,.594,1.484A2.5,2.5,0,0,0,5.1-1.562,2.2,2.2,0,0,0,6.5-1.945,1.242,1.242,0,0,0,6.977-2.969ZM13.164,0H10.883V-8.453h2.281Zm0-10.477H10.883v-1.711h2.281Zm6.445,8.133a.787.787,0,0,0-.363-.645A3.69,3.69,0,0,0,17.9-3.461a5.375,5.375,0,0,1-2.254-.9,1.962,1.962,0,0,1-.77-1.633A2.329,2.329,0,0,1,15.8-7.844a3.717,3.717,0,0,1,2.453-.766,4.011,4.011,0,0,1,2.566.766,2.237,2.237,0,0,1,.926,1.906l-.016.047h-2.2a1.106,1.106,0,0,0-.328-.828,1.3,1.3,0,0,0-.945-.32,1.292,1.292,0,0,0-.867.273.85.85,0,0,0-.32.672.759.759,0,0,0,.332.637,3.7,3.7,0,0,0,1.348.441,5.484,5.484,0,0,1,2.316.918A2.014,2.014,0,0,1,21.82-2.43a2.231,2.231,0,0,1-.977,1.867,4.215,4.215,0,0,1-2.578.727A3.918,3.918,0,0,1,15.6-.691a2.392,2.392,0,0,1-.934-1.949l.016-.047h2.086a1.186,1.186,0,0,0,.445.984,1.838,1.838,0,0,0,1.1.3,1.567,1.567,0,0,0,.965-.254A.824.824,0,0,0,19.609-2.344Zm6.414-8.18v2.07h1.43v1.6h-1.43v4.3a.982.982,0,0,0,.207.7.727.727,0,0,0,.543.211,2.178,2.178,0,0,0,.313-.02,2.632,2.632,0,0,0,.3-.066L27.578-.07a4.618,4.618,0,0,1-.668.176A3.982,3.982,0,0,1,26.2.164a2.431,2.431,0,0,1-1.816-.648,2.843,2.843,0,0,1-.637-2.055V-6.852H22.516v-1.6H23.75v-2.07ZM32.523.164A3.8,3.8,0,0,1,29.57-1a4.252,4.252,0,0,1-1.062-2.988V-4.3a4.628,4.628,0,0,1,1.031-3.109,3.506,3.506,0,0,1,2.836-1.2,3.282,3.282,0,0,1,2.613,1.043,4.122,4.122,0,0,1,.91,2.809v1.18H30.859l-.023.047a2.284,2.284,0,0,0,.527,1.406,1.766,1.766,0,0,0,1.4.539,4.692,4.692,0,0,0,1.3-.156,5.307,5.307,0,0,0,1.105-.477l.617,1.406a4.234,4.234,0,0,1-1.375.7A6.1,6.1,0,0,1,32.523.164Zm-.148-7.016a1.267,1.267,0,0,0-1.059.473,2.371,2.371,0,0,0-.449,1.254l.016.039h2.781v-.172a1.974,1.974,0,0,0-.3-1.168A1.127,1.127,0,0,0,32.375-6.852Zm6.969-1.6.094,1.117a2.84,2.84,0,0,1,1.02-.941,2.932,2.932,0,0,1,1.418-.332,2.582,2.582,0,0,1,1.391.359,2.217,2.217,0,0,1,.875,1.086,2.93,2.93,0,0,1,1.016-1.062,2.756,2.756,0,0,1,1.469-.383,2.408,2.408,0,0,1,1.973.887,4.233,4.233,0,0,1,.723,2.707V0H47.039V-5.023a2.369,2.369,0,0,0-.312-1.414,1.109,1.109,0,0,0-.93-.4,1.592,1.592,0,0,0-.84.215,1.565,1.565,0,0,0-.566.6q0,.148.008.254t.008.215V0H42.133V-5.023a2.376,2.376,0,0,0-.312-1.4,1.1,1.1,0,0,0-.937-.41,1.769,1.769,0,0,0-.809.176,1.551,1.551,0,0,0-.574.5V0H37.227V-8.453ZM56.055,0a4.8,4.8,0,0,1-.215-.609,4.239,4.239,0,0,1-.129-.656,3.127,3.127,0,0,1-.93,1.023,2.33,2.33,0,0,1-1.375.406A2.855,2.855,0,0,1,51.359-.52a2.449,2.449,0,0,1-.719-1.863A2.229,2.229,0,0,1,51.6-4.309a4.78,4.78,0,0,1,2.793-.684h1.281v-.672a1.315,1.315,0,0,0-.32-.945,1.257,1.257,0,0,0-.953-.336,1.239,1.239,0,0,0-.855.27.941.941,0,0,0-.3.738h-2.2l-.016-.047a2.144,2.144,0,0,1,.934-1.848,4.055,4.055,0,0,1,2.582-.777,3.784,3.784,0,0,1,2.465.766,2.667,2.667,0,0,1,.941,2.2v3.492a6.605,6.605,0,0,0,.09,1.117A5.606,5.606,0,0,0,58.328,0ZM53.969-1.523a1.944,1.944,0,0,0,1.063-.3,1.6,1.6,0,0,0,.641-.687V-3.7H54.391a1.519,1.519,0,0,0-1.1.359,1.181,1.181,0,0,0-.371.883.881.881,0,0,0,.277.684A1.1,1.1,0,0,0,53.969-1.523ZM71.75-9.617H68.5V0H66.219V-9.617h-3.2v-1.758H71.75Zm5.016,3.125-.836-.023a1.519,1.519,0,0,0-.836.211,1.337,1.337,0,0,0-.5.594V0H72.32V-8.453h2.117l.1,1.25a2.667,2.667,0,0,1,.77-1.035,1.715,1.715,0,0,1,1.09-.371,1.7,1.7,0,0,1,.316.027q.145.027.293.066ZM82.938,0a4.8,4.8,0,0,1-.215-.609,4.238,4.238,0,0,1-.129-.656,3.127,3.127,0,0,1-.93,1.023,2.33,2.33,0,0,1-1.375.406A2.855,2.855,0,0,1,78.242-.52a2.449,2.449,0,0,1-.719-1.863,2.229,2.229,0,0,1,.957-1.926,4.78,4.78,0,0,1,2.793-.684h1.281v-.672a1.315,1.315,0,0,0-.32-.945,1.257,1.257,0,0,0-.953-.336,1.239,1.239,0,0,0-.855.27.941.941,0,0,0-.3.738h-2.2l-.016-.047a2.144,2.144,0,0,1,.934-1.848,4.055,4.055,0,0,1,2.582-.777,3.784,3.784,0,0,1,2.465.766,2.667,2.667,0,0,1,.941,2.2v3.492a6.6,6.6,0,0,0,.09,1.117A5.606,5.606,0,0,0,85.211,0ZM80.852-1.523a1.944,1.944,0,0,0,1.063-.3,1.6,1.6,0,0,0,.641-.687V-3.7H81.273a1.519,1.519,0,0,0-1.1.359,1.181,1.181,0,0,0-.371.883.881.881,0,0,0,.277.684A1.1,1.1,0,0,0,80.852-1.523ZM86.2-4.156a5.493,5.493,0,0,1,.863-3.227,2.8,2.8,0,0,1,2.434-1.227,2.367,2.367,0,0,1,1.141.273,2.744,2.744,0,0,1,.891.781v-4.633h2.289V0H91.867l-.2-1.039a2.826,2.826,0,0,1-.945.895,2.5,2.5,0,0,1-1.25.309A2.858,2.858,0,0,1,87.059-.977,4.871,4.871,0,0,1,86.2-3.992Zm2.273.164a3.443,3.443,0,0,0,.375,1.746,1.306,1.306,0,0,0,1.219.637,1.775,1.775,0,0,0,.859-.2,1.589,1.589,0,0,0,.6-.582v-3.6a1.756,1.756,0,0,0-.6-.621,1.589,1.589,0,0,0-.848-.223,1.287,1.287,0,0,0-1.223.742,4.194,4.194,0,0,0-.387,1.938ZM97.977,0H95.7V-8.453h2.281Zm0-10.477H95.7v-1.711h2.281Zm5.406,8.891a1.27,1.27,0,0,0,.945-.355,1.291,1.291,0,0,0,.352-.949h2.078l.016.047A2.645,2.645,0,0,1,105.82-.7a3.564,3.564,0,0,1-2.437.863,3.6,3.6,0,0,1-2.9-1.2A4.558,4.558,0,0,1,99.461-4.1v-.234A4.588,4.588,0,0,1,100.48-7.4a3.57,3.57,0,0,1,2.887-1.207,3.486,3.486,0,0,1,2.492.891,2.976,2.976,0,0,1,.914,2.344l-.016.047H104.68a1.687,1.687,0,0,0-.348-1.09,1.168,1.168,0,0,0-.965-.434,1.3,1.3,0,0,0-1.254.707,3.878,3.878,0,0,0-.371,1.809V-4.1a3.863,3.863,0,0,0,.371,1.82A1.32,1.32,0,0,0,103.383-1.586ZM110.5,0h-2.281V-8.453H110.5Zm0-10.477h-2.281v-1.711H110.5ZM112.023-4.3a4.536,4.536,0,0,1,1.055-3.1A3.676,3.676,0,0,1,116-8.609a3.715,3.715,0,0,1,2.938,1.2A4.512,4.512,0,0,1,120-4.3v.164a4.519,4.519,0,0,1-1.059,3.105,3.7,3.7,0,0,1-2.926,1.2,3.709,3.709,0,0,1-2.934-1.2,4.519,4.519,0,0,1-1.059-3.105Zm2.273.164a3.677,3.677,0,0,0,.406,1.855,1.4,1.4,0,0,0,1.313.7,1.389,1.389,0,0,0,1.293-.7,3.653,3.653,0,0,0,.41-1.852V-4.3a3.616,3.616,0,0,0-.414-1.836,1.4,1.4,0,0,0-1.3-.711,1.384,1.384,0,0,0-1.293.715A3.648,3.648,0,0,0,114.3-4.3Zm9.2-4.312.1,1.211a3.092,3.092,0,0,1,1.039-1.008,2.7,2.7,0,0,1,1.383-.359,2.513,2.513,0,0,1,2,.824,3.908,3.908,0,0,1,.719,2.605V0h-2.289V-5.172a2.024,2.024,0,0,0-.316-1.285,1.166,1.166,0,0,0-.949-.379,1.992,1.992,0,0,0-.895.191,1.746,1.746,0,0,0-.637.527V0h-2.281V-8.453ZM135.422,0a4.8,4.8,0,0,1-.215-.609,4.24,4.24,0,0,1-.129-.656,3.127,3.127,0,0,1-.93,1.023,2.33,2.33,0,0,1-1.375.406,2.855,2.855,0,0,1-2.047-.684,2.449,2.449,0,0,1-.719-1.863,2.229,2.229,0,0,1,.957-1.926,4.78,4.78,0,0,1,2.793-.684h1.281v-.672a1.315,1.315,0,0,0-.32-.945,1.257,1.257,0,0,0-.953-.336,1.239,1.239,0,0,0-.855.27.941.941,0,0,0-.3.738h-2.2l-.016-.047a2.144,2.144,0,0,1,.934-1.848,4.055,4.055,0,0,1,2.582-.777,3.784,3.784,0,0,1,2.465.766,2.667,2.667,0,0,1,.941,2.2v3.492a6.605,6.605,0,0,0,.09,1.117A5.606,5.606,0,0,0,137.7,0Zm-2.086-1.523a1.944,1.944,0,0,0,1.063-.3,1.6,1.6,0,0,0,.641-.687V-3.7h-1.281a1.519,1.519,0,0,0-1.1.359,1.181,1.181,0,0,0-.371.883.881.881,0,0,0,.277.684A1.1,1.1,0,0,0,133.336-1.523ZM141.43,0h-2.281V-12.187h2.281Z" transform="translate(416 2049)" fill="#12263f"/>
  </g>
</svg>
