<svg xmlns="http://www.w3.org/2000/svg" width="485" height="334.035" viewBox="0 0 485 334.035">
  <g id="Grupo_1102362" data-name="Grupo 1102362" transform="translate(-876 -2036.813)">
    <path id="Trazado_888921" data-name="Trazado 888921" d="M6.977-2.969A1.33,1.33,0,0,0,6.52-4.023a4.592,4.592,0,0,0-1.605-.75,9.124,9.124,0,0,1-2.988-1.4,2.646,2.646,0,0,1-1.02-2.2,2.761,2.761,0,0,1,1.148-2.285,4.654,4.654,0,0,1,2.93-.887,4.621,4.621,0,0,1,3.043.953,2.982,2.982,0,0,1,1.113,2.5l-.016.047H6.914A1.657,1.657,0,0,0,6.4-9.348,2.106,2.106,0,0,0,4.953-9.8a1.91,1.91,0,0,0-1.3.406,1.323,1.323,0,0,0-.461,1.039,1.135,1.135,0,0,0,.5.949,6.689,6.689,0,0,0,1.727.785A7.429,7.429,0,0,1,8.273-5.238a2.841,2.841,0,0,1,.984,2.254A2.713,2.713,0,0,1,8.117-.68,4.952,4.952,0,0,1,5.1.164,5.388,5.388,0,0,1,1.949-.75,3.015,3.015,0,0,1,.672-3.477l.016-.047H2.9a1.79,1.79,0,0,0,.594,1.484A2.5,2.5,0,0,0,5.1-1.562,2.2,2.2,0,0,0,6.5-1.945,1.242,1.242,0,0,0,6.977-2.969ZM13.164,0H10.883V-8.453h2.281Zm0-10.477H10.883v-1.711h2.281Zm6.445,8.133a.787.787,0,0,0-.363-.645A3.69,3.69,0,0,0,17.9-3.461a5.375,5.375,0,0,1-2.254-.9,1.962,1.962,0,0,1-.77-1.633A2.329,2.329,0,0,1,15.8-7.844a3.717,3.717,0,0,1,2.453-.766,4.011,4.011,0,0,1,2.566.766,2.237,2.237,0,0,1,.926,1.906l-.016.047h-2.2a1.106,1.106,0,0,0-.328-.828,1.3,1.3,0,0,0-.945-.32,1.292,1.292,0,0,0-.867.273.85.85,0,0,0-.32.672.759.759,0,0,0,.332.637,3.7,3.7,0,0,0,1.348.441,5.484,5.484,0,0,1,2.316.918A2.014,2.014,0,0,1,21.82-2.43a2.231,2.231,0,0,1-.977,1.867,4.215,4.215,0,0,1-2.578.727A3.918,3.918,0,0,1,15.6-.691a2.392,2.392,0,0,1-.934-1.949l.016-.047h2.086a1.186,1.186,0,0,0,.445.984,1.838,1.838,0,0,0,1.1.3,1.567,1.567,0,0,0,.965-.254A.824.824,0,0,0,19.609-2.344Zm6.414-8.18v2.07h1.43v1.6h-1.43v4.3a.982.982,0,0,0,.207.7.727.727,0,0,0,.543.211,2.178,2.178,0,0,0,.313-.02,2.632,2.632,0,0,0,.3-.066L27.578-.07a4.618,4.618,0,0,1-.668.176A3.982,3.982,0,0,1,26.2.164a2.431,2.431,0,0,1-1.816-.648,2.843,2.843,0,0,1-.637-2.055V-6.852H22.516v-1.6H23.75v-2.07ZM32.523.164A3.8,3.8,0,0,1,29.57-1a4.252,4.252,0,0,1-1.062-2.988V-4.3a4.628,4.628,0,0,1,1.031-3.109,3.506,3.506,0,0,1,2.836-1.2,3.282,3.282,0,0,1,2.613,1.043,4.122,4.122,0,0,1,.91,2.809v1.18H30.859l-.023.047a2.284,2.284,0,0,0,.527,1.406,1.766,1.766,0,0,0,1.4.539,4.692,4.692,0,0,0,1.3-.156,5.307,5.307,0,0,0,1.105-.477l.617,1.406a4.234,4.234,0,0,1-1.375.7A6.1,6.1,0,0,1,32.523.164Zm-.148-7.016a1.267,1.267,0,0,0-1.059.473,2.371,2.371,0,0,0-.449,1.254l.016.039h2.781v-.172a1.974,1.974,0,0,0-.3-1.168A1.127,1.127,0,0,0,32.375-6.852Zm6.969-1.6.094,1.117a2.84,2.84,0,0,1,1.02-.941,2.932,2.932,0,0,1,1.418-.332,2.582,2.582,0,0,1,1.391.359,2.217,2.217,0,0,1,.875,1.086,2.93,2.93,0,0,1,1.016-1.062,2.756,2.756,0,0,1,1.469-.383,2.408,2.408,0,0,1,1.973.887,4.233,4.233,0,0,1,.723,2.707V0H47.039V-5.023a2.369,2.369,0,0,0-.312-1.414,1.109,1.109,0,0,0-.93-.4,1.592,1.592,0,0,0-.84.215,1.565,1.565,0,0,0-.566.6q0,.148.008.254t.008.215V0H42.133V-5.023a2.376,2.376,0,0,0-.312-1.4,1.1,1.1,0,0,0-.937-.41,1.769,1.769,0,0,0-.809.176,1.551,1.551,0,0,0-.574.5V0H37.227V-8.453ZM56.055,0a4.8,4.8,0,0,1-.215-.609,4.239,4.239,0,0,1-.129-.656,3.127,3.127,0,0,1-.93,1.023,2.33,2.33,0,0,1-1.375.406A2.855,2.855,0,0,1,51.359-.52a2.449,2.449,0,0,1-.719-1.863A2.229,2.229,0,0,1,51.6-4.309a4.78,4.78,0,0,1,2.793-.684h1.281v-.672a1.315,1.315,0,0,0-.32-.945,1.257,1.257,0,0,0-.953-.336,1.239,1.239,0,0,0-.855.27.941.941,0,0,0-.3.738h-2.2l-.016-.047a2.144,2.144,0,0,1,.934-1.848,4.055,4.055,0,0,1,2.582-.777,3.784,3.784,0,0,1,2.465.766,2.667,2.667,0,0,1,.941,2.2v3.492a6.605,6.605,0,0,0,.09,1.117A5.606,5.606,0,0,0,58.328,0ZM53.969-1.523a1.944,1.944,0,0,0,1.063-.3,1.6,1.6,0,0,0,.641-.687V-3.7H54.391a1.519,1.519,0,0,0-1.1.359,1.181,1.181,0,0,0-.371.883.881.881,0,0,0,.277.684A1.1,1.1,0,0,0,53.969-1.523ZM71.25-3.992a5.7,5.7,0,0,1-1.3,3.059,3.365,3.365,0,0,1-2.609,1.1,2.207,2.207,0,0,1-1.23-.328,2.266,2.266,0,0,1-.8-.945L64.953,0h-1.93l1.828-12.187h2.273l-.7,4.625a3.293,3.293,0,0,1,1-.777,2.7,2.7,0,0,1,1.211-.27,2.373,2.373,0,0,1,2.238,1.23,5,5,0,0,1,.395,3.223ZM69-4.156a4.214,4.214,0,0,0-.066-1.973A1.075,1.075,0,0,0,67.8-6.836a1.811,1.811,0,0,0-.922.234,2.062,2.062,0,0,0-.687.656l-.531,3.539a1.185,1.185,0,0,0,.492.594,1.691,1.691,0,0,0,.883.2,1.519,1.519,0,0,0,1.3-.633,4.05,4.05,0,0,0,.641-1.75ZM74.453,0H72.172L74-12.187h2.281Zm2.172-4.3a5.25,5.25,0,0,1,1.512-3.133,4.306,4.306,0,0,1,3.105-1.172,3.183,3.183,0,0,1,2.719,1.219A3.985,3.985,0,0,1,84.6-4.3l-.023.164A5.312,5.312,0,0,1,83.055-1,4.319,4.319,0,0,1,79.945.164a3.188,3.188,0,0,1-2.719-1.215,3.942,3.942,0,0,1-.625-3.09Zm2.25.164a3.383,3.383,0,0,0,.117,1.875,1.193,1.193,0,0,0,1.211.68A1.663,1.663,0,0,0,81.586-2.3,3.994,3.994,0,0,0,82.3-4.141L82.32-4.3a3.489,3.489,0,0,0-.137-1.855,1.176,1.176,0,0,0-1.2-.691,1.661,1.661,0,0,0-1.391.723A3.918,3.918,0,0,0,78.9-4.3Zm10.25,2.555a1.467,1.467,0,0,0,.988-.359,1.519,1.519,0,0,0,.512-.945H92.7l.016.047a3.149,3.149,0,0,1-1.27,2.168,4.116,4.116,0,0,1-2.574.84,3.092,3.092,0,0,1-2.684-1.215,3.985,3.985,0,0,1-.6-3.051l.031-.234a5.322,5.322,0,0,1,1.477-3.1,4.185,4.185,0,0,1,3.07-1.172,3.036,3.036,0,0,1,2.332.9,2.6,2.6,0,0,1,.59,2.344l-.016.039H90.984a1.538,1.538,0,0,0-.176-1.1,1,1,0,0,0-.9-.426,1.555,1.555,0,0,0-1.348.719,4.247,4.247,0,0,0-.66,1.8l-.031.234a3.629,3.629,0,0,0,.086,1.84A1.119,1.119,0,0,0,89.125-1.586ZM97-3.539h-.578L95.891,0H93.609l1.828-12.187h2.281L96.68-5.273h.508l2.5-3.18h2.586l.016.039L99-4.6,101.438,0H98.813Zm8.789,1.953a1.467,1.467,0,0,0,.988-.359,1.519,1.519,0,0,0,.512-.945h2.07l.016.047a3.149,3.149,0,0,1-1.27,2.168,4.116,4.116,0,0,1-2.574.84,3.092,3.092,0,0,1-2.684-1.215,3.985,3.985,0,0,1-.6-3.051l.031-.234a5.322,5.322,0,0,1,1.477-3.1,4.185,4.185,0,0,1,3.07-1.172,3.036,3.036,0,0,1,2.332.9,2.6,2.6,0,0,1,.59,2.344l-.016.039h-2.086a1.538,1.538,0,0,0-.176-1.1,1,1,0,0,0-.9-.426,1.555,1.555,0,0,0-1.348.719,4.247,4.247,0,0,0-.66,1.8l-.031.234a3.629,3.629,0,0,0,.086,1.84A1.119,1.119,0,0,0,105.789-1.586Zm7.82-5.844a3.609,3.609,0,0,1,1.113-.871,2.936,2.936,0,0,1,1.324-.309,2.218,2.218,0,0,1,1.918.887,3.66,3.66,0,0,1,.371,2.707L117.586,0H115.3l.758-5.031a2.2,2.2,0,0,0-.105-1.414.985.985,0,0,0-.895-.391,2.285,2.285,0,0,0-.926.18,2.134,2.134,0,0,0-.715.508L112.5,0h-2.281l1.828-12.187h2.281ZM124.289,0a3.7,3.7,0,0,1-.125-.613,4.615,4.615,0,0,1-.031-.66,3.883,3.883,0,0,1-1.082,1.031,2.609,2.609,0,0,1-1.434.406A2.5,2.5,0,0,1,119.7-.527a2.114,2.114,0,0,1-.461-1.855,2.637,2.637,0,0,1,1.234-1.949,5.433,5.433,0,0,1,2.906-.66h1.281l.1-.672a1.182,1.182,0,0,0-.176-.957,1.124,1.124,0,0,0-.91-.324,1.425,1.425,0,0,0-.887.27,1.063,1.063,0,0,0-.418.738h-2.2l-.008-.047a2.573,2.573,0,0,1,1.207-1.867,4.614,4.614,0,0,1,2.7-.758,3.321,3.321,0,0,1,2.32.773,2.306,2.306,0,0,1,.641,2.188l-.523,3.492a6.259,6.259,0,0,0-.078,1.125A5.486,5.486,0,0,0,126.563,0ZM122.43-1.523a2.165,2.165,0,0,0,1.094-.3,2.036,2.036,0,0,0,.758-.691l.18-1.187H123.18a1.718,1.718,0,0,0-1.137.367,1.4,1.4,0,0,0-.52.875.762.762,0,0,0,.172.691A.989.989,0,0,0,122.43-1.523ZM130.3,0h-2.281l1.266-8.453h2.281Zm1.57-10.477h-2.281l.258-1.711h2.281Zm3.586,3.188a3.623,3.623,0,0,1,1.18-.977,3.112,3.112,0,0,1,1.438-.344,2.153,2.153,0,0,1,1.852.836,3.482,3.482,0,0,1,.352,2.594L139.5,0h-2.289l.773-5.172a1.9,1.9,0,0,0-.113-1.3,1.025,1.025,0,0,0-.9-.363,2.106,2.106,0,0,0-.918.2,2.2,2.2,0,0,0-.723.551L134.414,0h-2.281L133.4-8.453h2.125Z" transform="translate(1044 2049)" fill="#12263f"/>
    <path id="Trazado_888918" data-name="Trazado 888918" d="M0,0H8V301H0Z" transform="translate(1269 2128.848) rotate(90)" fill="#00ffdf"/>
    <path id="Trazado_888917" data-name="Trazado 888917" d="M0,0H6.963V162.916H0Z" transform="translate(924.963 2321.458) rotate(180)" fill="#00ffdf"/>
    <path id="Trazado_888905" data-name="Trazado 888905" d="M0,0H8V301H0Z" transform="translate(1269 2342.152) rotate(90)" fill="#00ffdf"/>
    <path id="Trazado_888906" data-name="Trazado 888906" d="M0,0H6.963V162.916H0Z" transform="translate(1320 2321.458) rotate(180)" fill="#00ffdf"/>
    <path id="Trazado_888911" data-name="Trazado 888911" d="M0,0H8V326.991H0Z" transform="translate(1269.498 2128.848) rotate(71)" fill="#00ffdf"/>
    <path id="Trazado_888907" data-name="Trazado 888907" d="M0,0H8V326.991H0Z" transform="translate(960.322 2239.694) rotate(-71)" fill="#00ffdf"/>
    <g id="reshot-icon-cash-CDR6BJUZSG" transform="translate(876 2096.237)">
      <path id="Trazado_887991" data-name="Trazado 887991" d="M93.305,186.947H11.958a3.874,3.874,0,0,1-3.874-3.874V152.084a3.874,3.874,0,0,1,3.874-3.874H93.305a3.874,3.874,0,0,1,3.874,3.874v30.989A3.874,3.874,0,0,1,93.305,186.947Z" transform="translate(-6.631 -24.316)" fill="#ace5ac"/>
      <path id="Trazado_887992" data-name="Trazado 887992" d="M115.958,207.663h-73.6a1.937,1.937,0,0,1-1.937-1.937V182.484a1.937,1.937,0,0,1,1.937-1.937h73.6a1.937,1.937,0,0,1,1.937,1.937v23.242A1.937,1.937,0,0,1,115.958,207.663Z" transform="translate(-33.158 -50.842)" fill="#699e69"/>
      <path id="Trazado_887993" data-name="Trazado 887993" d="M209.179,173.137H187.874a1.937,1.937,0,0,1-1.937-1.937V128.59a1.937,1.937,0,0,1,1.937-1.937h21.305a1.937,1.937,0,0,1,1.937,1.937V171.2A1.937,1.937,0,0,1,209.179,173.137Z" transform="translate(-152.526 -6.632)" fill="#febd4b"/>
      <path id="Trazado_887994" data-name="Trazado 887994" d="M235.284,173.137H223.663V126.653h11.621Z" transform="translate(-183.474 -6.632)" fill="#c1c1c1"/>
      <path id="Trazado_887995" data-name="Trazado 887995" d="M93.221,233.9a4.842,4.842,0,1,1-4.842-4.842A4.842,4.842,0,0,1,93.221,233.9Zm47.453-4.842a4.842,4.842,0,1,0,4.842,4.842A4.842,4.842,0,0,0,140.674,229.053Z" transform="translate(-68.526 -90.632)" fill="#81bc82"/>
      <path id="Trazado_887996" data-name="Trazado 887996" d="M13.558,143.263a6.295,6.295,0,1,0,6.295-6.295A6.3,6.3,0,0,0,13.558,143.263Zm9.684,0a3.389,3.389,0,1,1-3.389-3.389A3.393,3.393,0,0,1,23.242,143.263ZM5.811,154.884V131.642A3.393,3.393,0,0,1,9.2,128.252H28.568a1.453,1.453,0,1,1,0,2.905H9.2a.485.485,0,0,0-.484.484v23.242a.485.485,0,0,0,.484.484H28.568a1.453,1.453,0,0,1,0,2.905H9.2A3.393,3.393,0,0,1,5.811,154.884Zm72.631-11.621a6.295,6.295,0,1,0-6.295,6.295A6.3,6.3,0,0,0,78.442,143.263Zm-9.684,0a3.389,3.389,0,1,1,3.389,3.389A3.393,3.393,0,0,1,68.758,143.263Zm17.916-20.821H60.042v-.484a3.393,3.393,0,0,0-3.389-3.389H35.347a3.393,3.393,0,0,0-3.389,3.389v.484H5.326A5.332,5.332,0,0,0,0,127.768v30.989a5.332,5.332,0,0,0,5.326,5.326H31.958v.484a3.393,3.393,0,0,0,3.389,3.389H56.653a3.393,3.393,0,0,0,3.389-3.389v-.484H86.674A5.332,5.332,0,0,0,92,158.757V127.768A5.332,5.332,0,0,0,86.674,122.442ZM31.958,161.179H5.326a2.424,2.424,0,0,1-2.421-2.421V127.768a2.424,2.424,0,0,1,2.421-2.421H31.958Zm25.179,3.389a.485.485,0,0,1-.484.484H53.263V133.579a1.453,1.453,0,0,0-2.905,0v31.474H41.642V154.884a1.453,1.453,0,0,0-2.905,0v10.168H35.348a.485.485,0,0,1-.484-.484v-42.61a.485.485,0,0,1,.484-.484h3.389v27.6a1.453,1.453,0,1,0,2.905,0v-27.6h8.716v6.295a1.453,1.453,0,1,0,2.905,0v-6.295h3.389a.485.485,0,0,1,.484.484v42.61Zm31.958-5.81a2.424,2.424,0,0,1-2.421,2.421H60.042V125.347H86.674a2.424,2.424,0,0,1,2.421,2.421Zm-2.905-27.116v23.242a3.393,3.393,0,0,1-3.389,3.389H63.819a1.453,1.453,0,1,1,0-2.905H82.8a.485.485,0,0,0,.484-.484V131.642a.485.485,0,0,0-.484-.484H63.431a1.453,1.453,0,0,1,0-2.905H82.8A3.393,3.393,0,0,1,86.189,131.642Z" transform="translate(0 0)"/>
    </g>
    <path id="Trazado_888908" data-name="Trazado 888908" d="M0,0H8V394H0Z" transform="matrix(-0.485, 0.875, -0.875, -0.485, 1281.069, 2333.008)" fill="#c3fff7"/>
    <g id="reshot-icon-cash-CDR6BJUZSG-2" data-name="reshot-icon-cash-CDR6BJUZSG" transform="translate(876 1989.585)">
      <path id="Trazado_887991-2" data-name="Trazado 887991" d="M93.305,186.947H11.958a3.874,3.874,0,0,1-3.874-3.874V152.084a3.874,3.874,0,0,1,3.874-3.874H93.305a3.874,3.874,0,0,1,3.874,3.874v30.989A3.874,3.874,0,0,1,93.305,186.947Z" transform="translate(-6.631 -24.316)" fill="#ace5ac"/>
      <path id="Trazado_887992-2" data-name="Trazado 887992" d="M115.958,207.663h-73.6a1.937,1.937,0,0,1-1.937-1.937V182.484a1.937,1.937,0,0,1,1.937-1.937h73.6a1.937,1.937,0,0,1,1.937,1.937v23.242A1.937,1.937,0,0,1,115.958,207.663Z" transform="translate(-33.158 -50.842)" fill="#699e69"/>
      <path id="Trazado_887993-2" data-name="Trazado 887993" d="M209.179,173.137H187.874a1.937,1.937,0,0,1-1.937-1.937V128.59a1.937,1.937,0,0,1,1.937-1.937h21.305a1.937,1.937,0,0,1,1.937,1.937V171.2A1.937,1.937,0,0,1,209.179,173.137Z" transform="translate(-152.526 -6.632)" fill="#febd4b"/>
      <path id="Trazado_887994-2" data-name="Trazado 887994" d="M235.284,173.137H223.663V126.653h11.621Z" transform="translate(-183.474 -6.632)" fill="#c1c1c1"/>
      <path id="Trazado_887995-2" data-name="Trazado 887995" d="M93.221,233.9a4.842,4.842,0,1,1-4.842-4.842A4.842,4.842,0,0,1,93.221,233.9Zm47.453-4.842a4.842,4.842,0,1,0,4.842,4.842A4.842,4.842,0,0,0,140.674,229.053Z" transform="translate(-68.526 -90.632)" fill="#81bc82"/>
      <path id="Trazado_887996-2" data-name="Trazado 887996" d="M13.558,143.263a6.295,6.295,0,1,0,6.295-6.295A6.3,6.3,0,0,0,13.558,143.263Zm9.684,0a3.389,3.389,0,1,1-3.389-3.389A3.393,3.393,0,0,1,23.242,143.263ZM5.811,154.884V131.642A3.393,3.393,0,0,1,9.2,128.252H28.568a1.453,1.453,0,1,1,0,2.905H9.2a.485.485,0,0,0-.484.484v23.242a.485.485,0,0,0,.484.484H28.568a1.453,1.453,0,0,1,0,2.905H9.2A3.393,3.393,0,0,1,5.811,154.884Zm72.631-11.621a6.295,6.295,0,1,0-6.295,6.295A6.3,6.3,0,0,0,78.442,143.263Zm-9.684,0a3.389,3.389,0,1,1,3.389,3.389A3.393,3.393,0,0,1,68.758,143.263Zm17.916-20.821H60.042v-.484a3.393,3.393,0,0,0-3.389-3.389H35.347a3.393,3.393,0,0,0-3.389,3.389v.484H5.326A5.332,5.332,0,0,0,0,127.768v30.989a5.332,5.332,0,0,0,5.326,5.326H31.958v.484a3.393,3.393,0,0,0,3.389,3.389H56.653a3.393,3.393,0,0,0,3.389-3.389v-.484H86.674A5.332,5.332,0,0,0,92,158.757V127.768A5.332,5.332,0,0,0,86.674,122.442ZM31.958,161.179H5.326a2.424,2.424,0,0,1-2.421-2.421V127.768a2.424,2.424,0,0,1,2.421-2.421H31.958Zm25.179,3.389a.485.485,0,0,1-.484.484H53.263V133.579a1.453,1.453,0,0,0-2.905,0v31.474H41.642V154.884a1.453,1.453,0,0,0-2.905,0v10.168H35.348a.485.485,0,0,1-.484-.484v-42.61a.485.485,0,0,1,.484-.484h3.389v27.6a1.453,1.453,0,1,0,2.905,0v-27.6h8.716v6.295a1.453,1.453,0,1,0,2.905,0v-6.295h3.389a.485.485,0,0,1,.484.484v42.61Zm31.958-5.81a2.424,2.424,0,0,1-2.421,2.421H60.042V125.347H86.674a2.424,2.424,0,0,1,2.421,2.421Zm-2.905-27.116v23.242a3.393,3.393,0,0,1-3.389,3.389H63.819a1.453,1.453,0,1,1,0-2.905H82.8a.485.485,0,0,0,.484-.484V131.642a.485.485,0,0,0-.484-.484H63.431a1.453,1.453,0,0,1,0-2.905H82.8A3.393,3.393,0,0,1,86.189,131.642Z" transform="translate(0 0)"/>
    </g>
    <g id="reshot-icon-cash-CDR6BJUZSG-3" data-name="reshot-icon-cash-CDR6BJUZSG" transform="translate(1269 2202.89)">
      <path id="Trazado_887991-3" data-name="Trazado 887991" d="M93.305,186.947H11.958a3.874,3.874,0,0,1-3.874-3.874V152.084a3.874,3.874,0,0,1,3.874-3.874H93.305a3.874,3.874,0,0,1,3.874,3.874v30.989A3.874,3.874,0,0,1,93.305,186.947Z" transform="translate(-6.631 -24.316)" fill="#ace5ac"/>
      <path id="Trazado_887992-3" data-name="Trazado 887992" d="M115.958,207.663h-73.6a1.937,1.937,0,0,1-1.937-1.937V182.484a1.937,1.937,0,0,1,1.937-1.937h73.6a1.937,1.937,0,0,1,1.937,1.937v23.242A1.937,1.937,0,0,1,115.958,207.663Z" transform="translate(-33.158 -50.842)" fill="#699e69"/>
      <path id="Trazado_887993-3" data-name="Trazado 887993" d="M209.179,173.137H187.874a1.937,1.937,0,0,1-1.937-1.937V128.59a1.937,1.937,0,0,1,1.937-1.937h21.305a1.937,1.937,0,0,1,1.937,1.937V171.2A1.937,1.937,0,0,1,209.179,173.137Z" transform="translate(-152.526 -6.632)" fill="#febd4b"/>
      <path id="Trazado_887994-3" data-name="Trazado 887994" d="M235.284,173.137H223.663V126.653h11.621Z" transform="translate(-183.474 -6.632)" fill="#c1c1c1"/>
      <path id="Trazado_887995-3" data-name="Trazado 887995" d="M93.221,233.9a4.842,4.842,0,1,1-4.842-4.842A4.842,4.842,0,0,1,93.221,233.9Zm47.453-4.842a4.842,4.842,0,1,0,4.842,4.842A4.842,4.842,0,0,0,140.674,229.053Z" transform="translate(-68.526 -90.632)" fill="#81bc82"/>
      <path id="Trazado_887996-3" data-name="Trazado 887996" d="M13.558,143.263a6.295,6.295,0,1,0,6.295-6.295A6.3,6.3,0,0,0,13.558,143.263Zm9.684,0a3.389,3.389,0,1,1-3.389-3.389A3.393,3.393,0,0,1,23.242,143.263ZM5.811,154.884V131.642A3.393,3.393,0,0,1,9.2,128.252H28.568a1.453,1.453,0,1,1,0,2.905H9.2a.485.485,0,0,0-.484.484v23.242a.485.485,0,0,0,.484.484H28.568a1.453,1.453,0,0,1,0,2.905H9.2A3.393,3.393,0,0,1,5.811,154.884Zm72.631-11.621a6.295,6.295,0,1,0-6.295,6.295A6.3,6.3,0,0,0,78.442,143.263Zm-9.684,0a3.389,3.389,0,1,1,3.389,3.389A3.393,3.393,0,0,1,68.758,143.263Zm17.916-20.821H60.042v-.484a3.393,3.393,0,0,0-3.389-3.389H35.347a3.393,3.393,0,0,0-3.389,3.389v.484H5.326A5.332,5.332,0,0,0,0,127.768v30.989a5.332,5.332,0,0,0,5.326,5.326H31.958v.484a3.393,3.393,0,0,0,3.389,3.389H56.653a3.393,3.393,0,0,0,3.389-3.389v-.484H86.674A5.332,5.332,0,0,0,92,158.757V127.768A5.332,5.332,0,0,0,86.674,122.442ZM31.958,161.179H5.326a2.424,2.424,0,0,1-2.421-2.421V127.768a2.424,2.424,0,0,1,2.421-2.421H31.958Zm25.179,3.389a.485.485,0,0,1-.484.484H53.263V133.579a1.453,1.453,0,0,0-2.905,0v31.474H41.642V154.884a1.453,1.453,0,0,0-2.905,0v10.168H35.348a.485.485,0,0,1-.484-.484v-42.61a.485.485,0,0,1,.484-.484h3.389v27.6a1.453,1.453,0,1,0,2.905,0v-27.6h8.716v6.295a1.453,1.453,0,1,0,2.905,0v-6.295h3.389a.485.485,0,0,1,.484.484v42.61Zm31.958-5.81a2.424,2.424,0,0,1-2.421,2.421H60.042V125.347H86.674a2.424,2.424,0,0,1,2.421,2.421Zm-2.905-27.116v23.242a3.393,3.393,0,0,1-3.389,3.389H63.819a1.453,1.453,0,1,1,0-2.905H82.8a.485.485,0,0,0,.484-.484V131.642a.485.485,0,0,0-.484-.484H63.431a1.453,1.453,0,0,1,0-2.905H82.8A3.393,3.393,0,0,1,86.189,131.642Z" transform="translate(0 0)"/>
    </g>
    <path id="Trazado_888912" data-name="Trazado 888912" d="M0,0H8V394H0Z" transform="translate(938.223 2342.963) rotate(-120)" fill="#c3fff7"/>
    <g id="reshot-icon-cash-CDR6BJUZSG-4" data-name="reshot-icon-cash-CDR6BJUZSG" transform="translate(1269 1989.585)">
      <path id="Trazado_887991-4" data-name="Trazado 887991" d="M93.305,186.947H11.958a3.874,3.874,0,0,1-3.874-3.874V152.084a3.874,3.874,0,0,1,3.874-3.874H93.305a3.874,3.874,0,0,1,3.874,3.874v30.989A3.874,3.874,0,0,1,93.305,186.947Z" transform="translate(-6.631 -24.316)" fill="#ace5ac"/>
      <path id="Trazado_887992-4" data-name="Trazado 887992" d="M115.958,207.663h-73.6a1.937,1.937,0,0,1-1.937-1.937V182.484a1.937,1.937,0,0,1,1.937-1.937h73.6a1.937,1.937,0,0,1,1.937,1.937v23.242A1.937,1.937,0,0,1,115.958,207.663Z" transform="translate(-33.158 -50.842)" fill="#699e69"/>
      <path id="Trazado_887993-4" data-name="Trazado 887993" d="M209.179,173.137H187.874a1.937,1.937,0,0,1-1.937-1.937V128.59a1.937,1.937,0,0,1,1.937-1.937h21.305a1.937,1.937,0,0,1,1.937,1.937V171.2A1.937,1.937,0,0,1,209.179,173.137Z" transform="translate(-152.526 -6.632)" fill="#febd4b"/>
      <path id="Trazado_887994-4" data-name="Trazado 887994" d="M235.284,173.137H223.663V126.653h11.621Z" transform="translate(-183.474 -6.632)" fill="#c1c1c1"/>
      <path id="Trazado_887995-4" data-name="Trazado 887995" d="M93.221,233.9a4.842,4.842,0,1,1-4.842-4.842A4.842,4.842,0,0,1,93.221,233.9Zm47.453-4.842a4.842,4.842,0,1,0,4.842,4.842A4.842,4.842,0,0,0,140.674,229.053Z" transform="translate(-68.526 -90.632)" fill="#81bc82"/>
      <path id="Trazado_887996-4" data-name="Trazado 887996" d="M13.558,143.263a6.295,6.295,0,1,0,6.295-6.295A6.3,6.3,0,0,0,13.558,143.263Zm9.684,0a3.389,3.389,0,1,1-3.389-3.389A3.393,3.393,0,0,1,23.242,143.263ZM5.811,154.884V131.642A3.393,3.393,0,0,1,9.2,128.252H28.568a1.453,1.453,0,1,1,0,2.905H9.2a.485.485,0,0,0-.484.484v23.242a.485.485,0,0,0,.484.484H28.568a1.453,1.453,0,0,1,0,2.905H9.2A3.393,3.393,0,0,1,5.811,154.884Zm72.631-11.621a6.295,6.295,0,1,0-6.295,6.295A6.3,6.3,0,0,0,78.442,143.263Zm-9.684,0a3.389,3.389,0,1,1,3.389,3.389A3.393,3.393,0,0,1,68.758,143.263Zm17.916-20.821H60.042v-.484a3.393,3.393,0,0,0-3.389-3.389H35.347a3.393,3.393,0,0,0-3.389,3.389v.484H5.326A5.332,5.332,0,0,0,0,127.768v30.989a5.332,5.332,0,0,0,5.326,5.326H31.958v.484a3.393,3.393,0,0,0,3.389,3.389H56.653a3.393,3.393,0,0,0,3.389-3.389v-.484H86.674A5.332,5.332,0,0,0,92,158.757V127.768A5.332,5.332,0,0,0,86.674,122.442ZM31.958,161.179H5.326a2.424,2.424,0,0,1-2.421-2.421V127.768a2.424,2.424,0,0,1,2.421-2.421H31.958Zm25.179,3.389a.485.485,0,0,1-.484.484H53.263V133.579a1.453,1.453,0,0,0-2.905,0v31.474H41.642V154.884a1.453,1.453,0,0,0-2.905,0v10.168H35.348a.485.485,0,0,1-.484-.484v-42.61a.485.485,0,0,1,.484-.484h3.389v27.6a1.453,1.453,0,1,0,2.905,0v-27.6h8.716v6.295a1.453,1.453,0,1,0,2.905,0v-6.295h3.389a.485.485,0,0,1,.484.484v42.61Zm31.958-5.81a2.424,2.424,0,0,1-2.421,2.421H60.042V125.347H86.674a2.424,2.424,0,0,1,2.421,2.421Zm-2.905-27.116v23.242a3.393,3.393,0,0,1-3.389,3.389H63.819a1.453,1.453,0,1,1,0-2.905H82.8a.485.485,0,0,0,.484-.484V131.642a.485.485,0,0,0-.484-.484H63.431a1.453,1.453,0,0,1,0-2.905H82.8A3.393,3.393,0,0,1,86.189,131.642Z" transform="translate(0 0)"/>
    </g>
    <path id="Trazado_888913" data-name="Trazado 888913" d="M0,0H8V301H0Z" transform="translate(1269 2235.5) rotate(90)" fill="#c3fff7"/>
    <path id="Trazado_888910" data-name="Trazado 888910" d="M0,0H8V394H0Z" transform="translate(944.261 2343.851) rotate(-105)" fill="#c3fff7"/>
    <g id="reshot-icon-cash-CDR6BJUZSG-5" data-name="reshot-icon-cash-CDR6BJUZSG" transform="translate(876 2202.89)">
      <path id="Trazado_887991-5" data-name="Trazado 887991" d="M93.305,186.947H11.958a3.874,3.874,0,0,1-3.874-3.874V152.084a3.874,3.874,0,0,1,3.874-3.874H93.305a3.874,3.874,0,0,1,3.874,3.874v30.989A3.874,3.874,0,0,1,93.305,186.947Z" transform="translate(-6.631 -24.316)" fill="#ace5ac"/>
      <path id="Trazado_887992-5" data-name="Trazado 887992" d="M115.958,207.663h-73.6a1.937,1.937,0,0,1-1.937-1.937V182.484a1.937,1.937,0,0,1,1.937-1.937h73.6a1.937,1.937,0,0,1,1.937,1.937v23.242A1.937,1.937,0,0,1,115.958,207.663Z" transform="translate(-33.158 -50.842)" fill="#699e69"/>
      <path id="Trazado_887993-5" data-name="Trazado 887993" d="M209.179,173.137H187.874a1.937,1.937,0,0,1-1.937-1.937V128.59a1.937,1.937,0,0,1,1.937-1.937h21.305a1.937,1.937,0,0,1,1.937,1.937V171.2A1.937,1.937,0,0,1,209.179,173.137Z" transform="translate(-152.526 -6.632)" fill="#febd4b"/>
      <path id="Trazado_887994-5" data-name="Trazado 887994" d="M235.284,173.137H223.663V126.653h11.621Z" transform="translate(-183.474 -6.632)" fill="#c1c1c1"/>
      <path id="Trazado_887995-5" data-name="Trazado 887995" d="M93.221,233.9a4.842,4.842,0,1,1-4.842-4.842A4.842,4.842,0,0,1,93.221,233.9Zm47.453-4.842a4.842,4.842,0,1,0,4.842,4.842A4.842,4.842,0,0,0,140.674,229.053Z" transform="translate(-68.526 -90.632)" fill="#81bc82"/>
      <path id="Trazado_887996-5" data-name="Trazado 887996" d="M13.558,143.263a6.295,6.295,0,1,0,6.295-6.295A6.3,6.3,0,0,0,13.558,143.263Zm9.684,0a3.389,3.389,0,1,1-3.389-3.389A3.393,3.393,0,0,1,23.242,143.263ZM5.811,154.884V131.642A3.393,3.393,0,0,1,9.2,128.252H28.568a1.453,1.453,0,1,1,0,2.905H9.2a.485.485,0,0,0-.484.484v23.242a.485.485,0,0,0,.484.484H28.568a1.453,1.453,0,0,1,0,2.905H9.2A3.393,3.393,0,0,1,5.811,154.884Zm72.631-11.621a6.295,6.295,0,1,0-6.295,6.295A6.3,6.3,0,0,0,78.442,143.263Zm-9.684,0a3.389,3.389,0,1,1,3.389,3.389A3.393,3.393,0,0,1,68.758,143.263Zm17.916-20.821H60.042v-.484a3.393,3.393,0,0,0-3.389-3.389H35.347a3.393,3.393,0,0,0-3.389,3.389v.484H5.326A5.332,5.332,0,0,0,0,127.768v30.989a5.332,5.332,0,0,0,5.326,5.326H31.958v.484a3.393,3.393,0,0,0,3.389,3.389H56.653a3.393,3.393,0,0,0,3.389-3.389v-.484H86.674A5.332,5.332,0,0,0,92,158.757V127.768A5.332,5.332,0,0,0,86.674,122.442ZM31.958,161.179H5.326a2.424,2.424,0,0,1-2.421-2.421V127.768a2.424,2.424,0,0,1,2.421-2.421H31.958Zm25.179,3.389a.485.485,0,0,1-.484.484H53.263V133.579a1.453,1.453,0,0,0-2.905,0v31.474H41.642V154.884a1.453,1.453,0,0,0-2.905,0v10.168H35.348a.485.485,0,0,1-.484-.484v-42.61a.485.485,0,0,1,.484-.484h3.389v27.6a1.453,1.453,0,1,0,2.905,0v-27.6h8.716v6.295a1.453,1.453,0,1,0,2.905,0v-6.295h3.389a.485.485,0,0,1,.484.484v42.61Zm31.958-5.81a2.424,2.424,0,0,1-2.421,2.421H60.042V125.347H86.674a2.424,2.424,0,0,1,2.421,2.421Zm-2.905-27.116v23.242a3.393,3.393,0,0,1-3.389,3.389H63.819a1.453,1.453,0,1,1,0-2.905H82.8a.485.485,0,0,0,.484-.484V131.642a.485.485,0,0,0-.484-.484H63.431a1.453,1.453,0,0,1,0-2.905H82.8A3.393,3.393,0,0,1,86.189,131.642Z" transform="translate(0 0)"/>
    </g>
    <g id="reshot-icon-cash-CDR6BJUZSG-6" data-name="reshot-icon-cash-CDR6BJUZSG" transform="translate(1269 2096.237)">
      <path id="Trazado_887991-6" data-name="Trazado 887991" d="M93.305,186.947H11.958a3.874,3.874,0,0,1-3.874-3.874V152.084a3.874,3.874,0,0,1,3.874-3.874H93.305a3.874,3.874,0,0,1,3.874,3.874v30.989A3.874,3.874,0,0,1,93.305,186.947Z" transform="translate(-6.631 -24.316)" fill="#ace5ac"/>
      <path id="Trazado_887992-6" data-name="Trazado 887992" d="M115.958,207.663h-73.6a1.937,1.937,0,0,1-1.937-1.937V182.484a1.937,1.937,0,0,1,1.937-1.937h73.6a1.937,1.937,0,0,1,1.937,1.937v23.242A1.937,1.937,0,0,1,115.958,207.663Z" transform="translate(-33.158 -50.842)" fill="#699e69"/>
      <path id="Trazado_887993-6" data-name="Trazado 887993" d="M209.179,173.137H187.874a1.937,1.937,0,0,1-1.937-1.937V128.59a1.937,1.937,0,0,1,1.937-1.937h21.305a1.937,1.937,0,0,1,1.937,1.937V171.2A1.937,1.937,0,0,1,209.179,173.137Z" transform="translate(-152.526 -6.632)" fill="#febd4b"/>
      <path id="Trazado_887994-6" data-name="Trazado 887994" d="M235.284,173.137H223.663V126.653h11.621Z" transform="translate(-183.474 -6.632)" fill="#c1c1c1"/>
      <path id="Trazado_887995-6" data-name="Trazado 887995" d="M93.221,233.9a4.842,4.842,0,1,1-4.842-4.842A4.842,4.842,0,0,1,93.221,233.9Zm47.453-4.842a4.842,4.842,0,1,0,4.842,4.842A4.842,4.842,0,0,0,140.674,229.053Z" transform="translate(-68.526 -90.632)" fill="#81bc82"/>
      <path id="Trazado_887996-6" data-name="Trazado 887996" d="M13.558,143.263a6.295,6.295,0,1,0,6.295-6.295A6.3,6.3,0,0,0,13.558,143.263Zm9.684,0a3.389,3.389,0,1,1-3.389-3.389A3.393,3.393,0,0,1,23.242,143.263ZM5.811,154.884V131.642A3.393,3.393,0,0,1,9.2,128.252H28.568a1.453,1.453,0,1,1,0,2.905H9.2a.485.485,0,0,0-.484.484v23.242a.485.485,0,0,0,.484.484H28.568a1.453,1.453,0,0,1,0,2.905H9.2A3.393,3.393,0,0,1,5.811,154.884Zm72.631-11.621a6.295,6.295,0,1,0-6.295,6.295A6.3,6.3,0,0,0,78.442,143.263Zm-9.684,0a3.389,3.389,0,1,1,3.389,3.389A3.393,3.393,0,0,1,68.758,143.263Zm17.916-20.821H60.042v-.484a3.393,3.393,0,0,0-3.389-3.389H35.347a3.393,3.393,0,0,0-3.389,3.389v.484H5.326A5.332,5.332,0,0,0,0,127.768v30.989a5.332,5.332,0,0,0,5.326,5.326H31.958v.484a3.393,3.393,0,0,0,3.389,3.389H56.653a3.393,3.393,0,0,0,3.389-3.389v-.484H86.674A5.332,5.332,0,0,0,92,158.757V127.768A5.332,5.332,0,0,0,86.674,122.442ZM31.958,161.179H5.326a2.424,2.424,0,0,1-2.421-2.421V127.768a2.424,2.424,0,0,1,2.421-2.421H31.958Zm25.179,3.389a.485.485,0,0,1-.484.484H53.263V133.579a1.453,1.453,0,0,0-2.905,0v31.474H41.642V154.884a1.453,1.453,0,0,0-2.905,0v10.168H35.348a.485.485,0,0,1-.484-.484v-42.61a.485.485,0,0,1,.484-.484h3.389v27.6a1.453,1.453,0,1,0,2.905,0v-27.6h8.716v6.295a1.453,1.453,0,1,0,2.905,0v-6.295h3.389a.485.485,0,0,1,.484.484v42.61Zm31.958-5.81a2.424,2.424,0,0,1-2.421,2.421H60.042V125.347H86.674a2.424,2.424,0,0,1,2.421,2.421Zm-2.905-27.116v23.242a3.393,3.393,0,0,1-3.389,3.389H63.819a1.453,1.453,0,1,1,0-2.905H82.8a.485.485,0,0,0,.484-.484V131.642a.485.485,0,0,0-.484-.484H63.431a1.453,1.453,0,0,1,0-2.905H82.8A3.393,3.393,0,0,1,86.189,131.642Z" transform="translate(0 0)"/>
    </g>
    <path id="Trazado_888919" data-name="Trazado 888919" d="M9.281-10.164H5.531V0H3.992V-10.164H.289v-1.211H9.281Zm4.82,3.07-.789-.047a1.762,1.762,0,0,0-1.027.289,1.855,1.855,0,0,0-.645.813V0H10.1V-8.453h1.375l.148,1.234a2.934,2.934,0,0,1,.887-1.023,2.073,2.073,0,0,1,1.215-.367,1.9,1.9,0,0,1,.328.027,2.175,2.175,0,0,1,.258.059ZM20.9,0q-.078-.383-.121-.676a4.96,4.96,0,0,1-.051-.59,3.589,3.589,0,0,1-1.121,1.02,2.867,2.867,0,0,1-1.488.41,2.763,2.763,0,0,1-2.012-.676,2.486,2.486,0,0,1-.691-1.863,2.183,2.183,0,0,1,.98-1.895,4.579,4.579,0,0,1,2.66-.684h1.672v-.836a1.551,1.551,0,0,0-.453-1.176A1.779,1.779,0,0,0,18.992-7.4a1.859,1.859,0,0,0-1.211.375,1.125,1.125,0,0,0-.461.9l-1.461.016-.016-.047a2.023,2.023,0,0,1,.863-1.687,3.578,3.578,0,0,1,2.371-.766,3.49,3.49,0,0,1,2.313.73,2.588,2.588,0,0,1,.875,2.105V-1.7a7.923,7.923,0,0,0,.047.875A4.5,4.5,0,0,0,22.484,0ZM18.344-1.125a2.739,2.739,0,0,0,1.508-.43,2.042,2.042,0,0,0,.875-.984V-3.914H19a2.24,2.24,0,0,0-1.488.469,1.4,1.4,0,0,0-.559,1.1,1.159,1.159,0,0,0,.352.891A1.472,1.472,0,0,0,18.344-1.125Zm7.531-7.328L25.984-7.2a3.069,3.069,0,0,1,1.059-1.043,2.824,2.824,0,0,1,1.449-.371,2.759,2.759,0,0,1,2.117.8,3.515,3.515,0,0,1,.75,2.473V0H29.82V-5.3a2.287,2.287,0,0,0-.441-1.586,1.768,1.768,0,0,0-1.348-.469,2.386,2.386,0,0,0-1.207.285,2.072,2.072,0,0,0-.785.8V0H24.5V-8.453Zm12.633,6.18a1.026,1.026,0,0,0-.387-.828,3.732,3.732,0,0,0-1.465-.562,6.146,6.146,0,0,1-2.293-.9,1.814,1.814,0,0,1-.8-1.547,2.229,2.229,0,0,1,.879-1.766,3.433,3.433,0,0,1,2.277-.734,3.4,3.4,0,0,1,2.328.781,2.239,2.239,0,0,1,.852,1.82l-.016.047H38.414a1.331,1.331,0,0,0-.48-.992A1.717,1.717,0,0,0,36.719-7.4a1.751,1.751,0,0,0-1.215.367,1.146,1.146,0,0,0-.4.875.927.927,0,0,0,.348.773,3.848,3.848,0,0,0,1.434.5,6.058,6.058,0,0,1,2.359.93,1.872,1.872,0,0,1,.8,1.57,2.226,2.226,0,0,1-.91,1.836,3.754,3.754,0,0,1-2.379.711,3.715,3.715,0,0,1-2.547-.82,2.341,2.341,0,0,1-.883-1.914l.016-.047h1.469a1.424,1.424,0,0,0,.609,1.2,2.358,2.358,0,0,0,1.336.379,2.1,2.1,0,0,0,1.285-.348A1.063,1.063,0,0,0,38.508-2.273ZM47.156,0q-.078-.383-.121-.676a4.96,4.96,0,0,1-.051-.59,3.589,3.589,0,0,1-1.121,1.02,2.867,2.867,0,0,1-1.488.41,2.763,2.763,0,0,1-2.012-.676,2.486,2.486,0,0,1-.691-1.863,2.183,2.183,0,0,1,.98-1.895,4.579,4.579,0,0,1,2.66-.684h1.672v-.836a1.551,1.551,0,0,0-.453-1.176A1.779,1.779,0,0,0,45.25-7.4a1.859,1.859,0,0,0-1.211.375,1.125,1.125,0,0,0-.461.9l-1.461.016L42.1-6.156a2.023,2.023,0,0,1,.863-1.687,3.578,3.578,0,0,1,2.371-.766,3.49,3.49,0,0,1,2.313.73,2.588,2.588,0,0,1,.875,2.105V-1.7a7.923,7.923,0,0,0,.047.875A4.5,4.5,0,0,0,48.742,0ZM44.6-1.125a2.739,2.739,0,0,0,1.508-.43,2.042,2.042,0,0,0,.875-.984V-3.914H45.258a2.24,2.24,0,0,0-1.488.469,1.4,1.4,0,0,0-.559,1.1,1.159,1.159,0,0,0,.352.891A1.472,1.472,0,0,0,44.6-1.125Zm9.516.086a1.81,1.81,0,0,0,1.242-.473,1.494,1.494,0,0,0,.531-1.16h1.391l.023.047a2.428,2.428,0,0,1-.937,1.941,3.312,3.312,0,0,1-2.25.848,3.319,3.319,0,0,1-2.75-1.211A4.674,4.674,0,0,1,50.4-4.062v-.328a4.654,4.654,0,0,1,.973-3,3.317,3.317,0,0,1,2.746-1.215,3.189,3.189,0,0,1,2.316.875A2.775,2.775,0,0,1,57.3-5.586l-.016.047h-1.4a1.865,1.865,0,0,0-.5-1.316,1.658,1.658,0,0,0-1.27-.543,1.777,1.777,0,0,0-1.652.879,4.114,4.114,0,0,0-.52,2.129v.328a4.192,4.192,0,0,0,.512,2.148A1.776,1.776,0,0,0,54.117-1.039Zm8.375,0a1.81,1.81,0,0,0,1.242-.473,1.494,1.494,0,0,0,.531-1.16h1.391l.023.047a2.428,2.428,0,0,1-.937,1.941,3.313,3.313,0,0,1-2.25.848,3.319,3.319,0,0,1-2.75-1.211,4.674,4.674,0,0,1-.969-3.016v-.328a4.654,4.654,0,0,1,.973-3,3.317,3.317,0,0,1,2.746-1.215,3.189,3.189,0,0,1,2.316.875,2.775,2.775,0,0,1,.871,2.148l-.016.047h-1.4a1.865,1.865,0,0,0-.5-1.316,1.658,1.658,0,0,0-1.27-.543,1.777,1.777,0,0,0-1.652.879,4.114,4.114,0,0,0-.52,2.129v.328a4.192,4.192,0,0,0,.512,2.148A1.776,1.776,0,0,0,62.492-1.039ZM69.172,0H67.633V-8.453h1.539Zm0-10.617H67.633v-1.57h1.539ZM71.18-4.3A4.654,4.654,0,0,1,72.2-7.395a3.406,3.406,0,0,1,2.758-1.215A3.439,3.439,0,0,1,77.73-7.4,4.639,4.639,0,0,1,78.75-4.3v.172a4.631,4.631,0,0,1-1.016,3.094,3.429,3.429,0,0,1-2.766,1.2A3.436,3.436,0,0,1,72.2-1.043a4.623,4.623,0,0,1-1.02-3.09Zm1.539.172a4.009,4.009,0,0,0,.566,2.219,1.875,1.875,0,0,0,1.684.875,1.87,1.87,0,0,0,1.672-.875,3.988,3.988,0,0,0,.57-2.219V-4.3a3.976,3.976,0,0,0-.574-2.211A1.882,1.882,0,0,0,74.953-7.4a1.856,1.856,0,0,0-1.668.883A4.018,4.018,0,0,0,72.719-4.3Zm2.992-7.906h1.8l.016.047-2.1,2.031H74.266Zm6.3,3.586L82.117-7.2a3.069,3.069,0,0,1,1.059-1.043,2.824,2.824,0,0,1,1.449-.371,2.759,2.759,0,0,1,2.117.8,3.515,3.515,0,0,1,.75,2.473V0H85.953V-5.3a2.287,2.287,0,0,0-.441-1.586,1.768,1.768,0,0,0-1.348-.469,2.386,2.386,0,0,0-1.207.285,2.072,2.072,0,0,0-.785.8V0H80.633V-8.453Z" transform="translate(876 2098)" fill="#12263f"/>
    <path id="Trazado_888915" data-name="Trazado 888915" d="M9.281-10.164H5.531V0H3.992V-10.164H.289v-1.211H9.281Zm4.82,3.07-.789-.047a1.762,1.762,0,0,0-1.027.289,1.855,1.855,0,0,0-.645.813V0H10.1V-8.453h1.375l.148,1.234a2.934,2.934,0,0,1,.887-1.023,2.073,2.073,0,0,1,1.215-.367,1.9,1.9,0,0,1,.328.027,2.175,2.175,0,0,1,.258.059ZM20.9,0q-.078-.383-.121-.676a4.96,4.96,0,0,1-.051-.59,3.589,3.589,0,0,1-1.121,1.02,2.867,2.867,0,0,1-1.488.41,2.763,2.763,0,0,1-2.012-.676,2.486,2.486,0,0,1-.691-1.863,2.183,2.183,0,0,1,.98-1.895,4.579,4.579,0,0,1,2.66-.684h1.672v-.836a1.551,1.551,0,0,0-.453-1.176A1.779,1.779,0,0,0,18.992-7.4a1.859,1.859,0,0,0-1.211.375,1.125,1.125,0,0,0-.461.9l-1.461.016-.016-.047a2.023,2.023,0,0,1,.863-1.687,3.578,3.578,0,0,1,2.371-.766,3.49,3.49,0,0,1,2.313.73,2.588,2.588,0,0,1,.875,2.105V-1.7a7.923,7.923,0,0,0,.047.875A4.5,4.5,0,0,0,22.484,0ZM18.344-1.125a2.739,2.739,0,0,0,1.508-.43,2.042,2.042,0,0,0,.875-.984V-3.914H19a2.24,2.24,0,0,0-1.488.469,1.4,1.4,0,0,0-.559,1.1,1.159,1.159,0,0,0,.352.891A1.472,1.472,0,0,0,18.344-1.125Zm7.531-7.328L25.984-7.2a3.069,3.069,0,0,1,1.059-1.043,2.824,2.824,0,0,1,1.449-.371,2.759,2.759,0,0,1,2.117.8,3.515,3.515,0,0,1,.75,2.473V0H29.82V-5.3a2.287,2.287,0,0,0-.441-1.586,1.768,1.768,0,0,0-1.348-.469,2.386,2.386,0,0,0-1.207.285,2.072,2.072,0,0,0-.785.8V0H24.5V-8.453Zm12.633,6.18a1.026,1.026,0,0,0-.387-.828,3.732,3.732,0,0,0-1.465-.562,6.146,6.146,0,0,1-2.293-.9,1.814,1.814,0,0,1-.8-1.547,2.229,2.229,0,0,1,.879-1.766,3.433,3.433,0,0,1,2.277-.734,3.4,3.4,0,0,1,2.328.781,2.239,2.239,0,0,1,.852,1.82l-.016.047H38.414a1.331,1.331,0,0,0-.48-.992A1.717,1.717,0,0,0,36.719-7.4a1.751,1.751,0,0,0-1.215.367,1.146,1.146,0,0,0-.4.875.927.927,0,0,0,.348.773,3.848,3.848,0,0,0,1.434.5,6.058,6.058,0,0,1,2.359.93,1.872,1.872,0,0,1,.8,1.57,2.226,2.226,0,0,1-.91,1.836,3.754,3.754,0,0,1-2.379.711,3.715,3.715,0,0,1-2.547-.82,2.341,2.341,0,0,1-.883-1.914l.016-.047h1.469a1.424,1.424,0,0,0,.609,1.2,2.358,2.358,0,0,0,1.336.379,2.1,2.1,0,0,0,1.285-.348A1.063,1.063,0,0,0,38.508-2.273ZM47.156,0q-.078-.383-.121-.676a4.96,4.96,0,0,1-.051-.59,3.589,3.589,0,0,1-1.121,1.02,2.867,2.867,0,0,1-1.488.41,2.763,2.763,0,0,1-2.012-.676,2.486,2.486,0,0,1-.691-1.863,2.183,2.183,0,0,1,.98-1.895,4.579,4.579,0,0,1,2.66-.684h1.672v-.836a1.551,1.551,0,0,0-.453-1.176A1.779,1.779,0,0,0,45.25-7.4a1.859,1.859,0,0,0-1.211.375,1.125,1.125,0,0,0-.461.9l-1.461.016L42.1-6.156a2.023,2.023,0,0,1,.863-1.687,3.578,3.578,0,0,1,2.371-.766,3.49,3.49,0,0,1,2.313.73,2.588,2.588,0,0,1,.875,2.105V-1.7a7.923,7.923,0,0,0,.047.875A4.5,4.5,0,0,0,48.742,0ZM44.6-1.125a2.739,2.739,0,0,0,1.508-.43,2.042,2.042,0,0,0,.875-.984V-3.914H45.258a2.24,2.24,0,0,0-1.488.469,1.4,1.4,0,0,0-.559,1.1,1.159,1.159,0,0,0,.352.891A1.472,1.472,0,0,0,44.6-1.125Zm9.516.086a1.81,1.81,0,0,0,1.242-.473,1.494,1.494,0,0,0,.531-1.16h1.391l.023.047a2.428,2.428,0,0,1-.937,1.941,3.312,3.312,0,0,1-2.25.848,3.319,3.319,0,0,1-2.75-1.211A4.674,4.674,0,0,1,50.4-4.062v-.328a4.654,4.654,0,0,1,.973-3,3.317,3.317,0,0,1,2.746-1.215,3.189,3.189,0,0,1,2.316.875A2.775,2.775,0,0,1,57.3-5.586l-.016.047h-1.4a1.865,1.865,0,0,0-.5-1.316,1.658,1.658,0,0,0-1.27-.543,1.777,1.777,0,0,0-1.652.879,4.114,4.114,0,0,0-.52,2.129v.328a4.192,4.192,0,0,0,.512,2.148A1.776,1.776,0,0,0,54.117-1.039Zm8.375,0a1.81,1.81,0,0,0,1.242-.473,1.494,1.494,0,0,0,.531-1.16h1.391l.023.047a2.428,2.428,0,0,1-.937,1.941,3.313,3.313,0,0,1-2.25.848,3.319,3.319,0,0,1-2.75-1.211,4.674,4.674,0,0,1-.969-3.016v-.328a4.654,4.654,0,0,1,.973-3,3.317,3.317,0,0,1,2.746-1.215,3.189,3.189,0,0,1,2.316.875,2.775,2.775,0,0,1,.871,2.148l-.016.047h-1.4a1.865,1.865,0,0,0-.5-1.316,1.658,1.658,0,0,0-1.27-.543,1.777,1.777,0,0,0-1.652.879,4.114,4.114,0,0,0-.52,2.129v.328a4.192,4.192,0,0,0,.512,2.148A1.776,1.776,0,0,0,62.492-1.039ZM69.172,0H67.633V-8.453h1.539Zm0-10.617H67.633v-1.57h1.539ZM71.18-4.3A4.654,4.654,0,0,1,72.2-7.395a3.406,3.406,0,0,1,2.758-1.215A3.439,3.439,0,0,1,77.73-7.4,4.639,4.639,0,0,1,78.75-4.3v.172a4.631,4.631,0,0,1-1.016,3.094,3.429,3.429,0,0,1-2.766,1.2A3.436,3.436,0,0,1,72.2-1.043a4.623,4.623,0,0,1-1.02-3.09Zm1.539.172a4.009,4.009,0,0,0,.566,2.219,1.875,1.875,0,0,0,1.684.875,1.87,1.87,0,0,0,1.672-.875,3.988,3.988,0,0,0,.57-2.219V-4.3a3.976,3.976,0,0,0-.574-2.211A1.882,1.882,0,0,0,74.953-7.4a1.856,1.856,0,0,0-1.668.883A4.018,4.018,0,0,0,72.719-4.3Zm2.992-7.906h1.8l.016.047-2.1,2.031H74.266Zm6.3,3.586L82.117-7.2a3.069,3.069,0,0,1,1.059-1.043,2.824,2.824,0,0,1,1.449-.371,2.759,2.759,0,0,1,2.117.8,3.515,3.515,0,0,1,.75,2.473V0H85.953V-5.3a2.287,2.287,0,0,0-.441-1.586,1.768,1.768,0,0,0-1.348-.469,2.386,2.386,0,0,0-1.207.285,2.072,2.072,0,0,0-.785.8V0H80.633V-8.453Z" transform="translate(876 2206)" fill="#12263f"/>
    <path id="Trazado_888916" data-name="Trazado 888916" d="M9.281-10.164H5.531V0H3.992V-10.164H.289v-1.211H9.281Zm4.82,3.07-.789-.047a1.762,1.762,0,0,0-1.027.289,1.855,1.855,0,0,0-.645.813V0H10.1V-8.453h1.375l.148,1.234a2.934,2.934,0,0,1,.887-1.023,2.073,2.073,0,0,1,1.215-.367,1.9,1.9,0,0,1,.328.027,2.175,2.175,0,0,1,.258.059ZM20.9,0q-.078-.383-.121-.676a4.96,4.96,0,0,1-.051-.59,3.589,3.589,0,0,1-1.121,1.02,2.867,2.867,0,0,1-1.488.41,2.763,2.763,0,0,1-2.012-.676,2.486,2.486,0,0,1-.691-1.863,2.183,2.183,0,0,1,.98-1.895,4.579,4.579,0,0,1,2.66-.684h1.672v-.836a1.551,1.551,0,0,0-.453-1.176A1.779,1.779,0,0,0,18.992-7.4a1.859,1.859,0,0,0-1.211.375,1.125,1.125,0,0,0-.461.9l-1.461.016-.016-.047a2.023,2.023,0,0,1,.863-1.687,3.578,3.578,0,0,1,2.371-.766,3.49,3.49,0,0,1,2.313.73,2.588,2.588,0,0,1,.875,2.105V-1.7a7.923,7.923,0,0,0,.047.875A4.5,4.5,0,0,0,22.484,0ZM18.344-1.125a2.739,2.739,0,0,0,1.508-.43,2.042,2.042,0,0,0,.875-.984V-3.914H19a2.24,2.24,0,0,0-1.488.469,1.4,1.4,0,0,0-.559,1.1,1.159,1.159,0,0,0,.352.891A1.472,1.472,0,0,0,18.344-1.125Zm7.531-7.328L25.984-7.2a3.069,3.069,0,0,1,1.059-1.043,2.824,2.824,0,0,1,1.449-.371,2.759,2.759,0,0,1,2.117.8,3.515,3.515,0,0,1,.75,2.473V0H29.82V-5.3a2.287,2.287,0,0,0-.441-1.586,1.768,1.768,0,0,0-1.348-.469,2.386,2.386,0,0,0-1.207.285,2.072,2.072,0,0,0-.785.8V0H24.5V-8.453Zm12.633,6.18a1.026,1.026,0,0,0-.387-.828,3.732,3.732,0,0,0-1.465-.562,6.146,6.146,0,0,1-2.293-.9,1.814,1.814,0,0,1-.8-1.547,2.229,2.229,0,0,1,.879-1.766,3.433,3.433,0,0,1,2.277-.734,3.4,3.4,0,0,1,2.328.781,2.239,2.239,0,0,1,.852,1.82l-.016.047H38.414a1.331,1.331,0,0,0-.48-.992A1.717,1.717,0,0,0,36.719-7.4a1.751,1.751,0,0,0-1.215.367,1.146,1.146,0,0,0-.4.875.927.927,0,0,0,.348.773,3.848,3.848,0,0,0,1.434.5,6.058,6.058,0,0,1,2.359.93,1.872,1.872,0,0,1,.8,1.57,2.226,2.226,0,0,1-.91,1.836,3.754,3.754,0,0,1-2.379.711,3.715,3.715,0,0,1-2.547-.82,2.341,2.341,0,0,1-.883-1.914l.016-.047h1.469a1.424,1.424,0,0,0,.609,1.2,2.358,2.358,0,0,0,1.336.379,2.1,2.1,0,0,0,1.285-.348A1.063,1.063,0,0,0,38.508-2.273ZM47.156,0q-.078-.383-.121-.676a4.96,4.96,0,0,1-.051-.59,3.589,3.589,0,0,1-1.121,1.02,2.867,2.867,0,0,1-1.488.41,2.763,2.763,0,0,1-2.012-.676,2.486,2.486,0,0,1-.691-1.863,2.183,2.183,0,0,1,.98-1.895,4.579,4.579,0,0,1,2.66-.684h1.672v-.836a1.551,1.551,0,0,0-.453-1.176A1.779,1.779,0,0,0,45.25-7.4a1.859,1.859,0,0,0-1.211.375,1.125,1.125,0,0,0-.461.9l-1.461.016L42.1-6.156a2.023,2.023,0,0,1,.863-1.687,3.578,3.578,0,0,1,2.371-.766,3.49,3.49,0,0,1,2.313.73,2.588,2.588,0,0,1,.875,2.105V-1.7a7.923,7.923,0,0,0,.047.875A4.5,4.5,0,0,0,48.742,0ZM44.6-1.125a2.739,2.739,0,0,0,1.508-.43,2.042,2.042,0,0,0,.875-.984V-3.914H45.258a2.24,2.24,0,0,0-1.488.469,1.4,1.4,0,0,0-.559,1.1,1.159,1.159,0,0,0,.352.891A1.472,1.472,0,0,0,44.6-1.125Zm9.516.086a1.81,1.81,0,0,0,1.242-.473,1.494,1.494,0,0,0,.531-1.16h1.391l.023.047a2.428,2.428,0,0,1-.937,1.941,3.312,3.312,0,0,1-2.25.848,3.319,3.319,0,0,1-2.75-1.211A4.674,4.674,0,0,1,50.4-4.062v-.328a4.654,4.654,0,0,1,.973-3,3.317,3.317,0,0,1,2.746-1.215,3.189,3.189,0,0,1,2.316.875A2.775,2.775,0,0,1,57.3-5.586l-.016.047h-1.4a1.865,1.865,0,0,0-.5-1.316,1.658,1.658,0,0,0-1.27-.543,1.777,1.777,0,0,0-1.652.879,4.114,4.114,0,0,0-.52,2.129v.328a4.192,4.192,0,0,0,.512,2.148A1.776,1.776,0,0,0,54.117-1.039Zm8.375,0a1.81,1.81,0,0,0,1.242-.473,1.494,1.494,0,0,0,.531-1.16h1.391l.023.047a2.428,2.428,0,0,1-.937,1.941,3.313,3.313,0,0,1-2.25.848,3.319,3.319,0,0,1-2.75-1.211,4.674,4.674,0,0,1-.969-3.016v-.328a4.654,4.654,0,0,1,.973-3,3.317,3.317,0,0,1,2.746-1.215,3.189,3.189,0,0,1,2.316.875,2.775,2.775,0,0,1,.871,2.148l-.016.047h-1.4a1.865,1.865,0,0,0-.5-1.316,1.658,1.658,0,0,0-1.27-.543,1.777,1.777,0,0,0-1.652.879,4.114,4.114,0,0,0-.52,2.129v.328a4.192,4.192,0,0,0,.512,2.148A1.776,1.776,0,0,0,62.492-1.039ZM69.172,0H67.633V-8.453h1.539Zm0-10.617H67.633v-1.57h1.539ZM71.18-4.3A4.654,4.654,0,0,1,72.2-7.395a3.406,3.406,0,0,1,2.758-1.215A3.439,3.439,0,0,1,77.73-7.4,4.639,4.639,0,0,1,78.75-4.3v.172a4.631,4.631,0,0,1-1.016,3.094,3.429,3.429,0,0,1-2.766,1.2A3.436,3.436,0,0,1,72.2-1.043a4.623,4.623,0,0,1-1.02-3.09Zm1.539.172a4.009,4.009,0,0,0,.566,2.219,1.875,1.875,0,0,0,1.684.875,1.87,1.87,0,0,0,1.672-.875,3.988,3.988,0,0,0,.57-2.219V-4.3a3.976,3.976,0,0,0-.574-2.211A1.882,1.882,0,0,0,74.953-7.4a1.856,1.856,0,0,0-1.668.883A4.018,4.018,0,0,0,72.719-4.3Zm2.992-7.906h1.8l.016.047-2.1,2.031H74.266Zm6.3,3.586L82.117-7.2a3.069,3.069,0,0,1,1.059-1.043,2.824,2.824,0,0,1,1.449-.371,2.759,2.759,0,0,1,2.117.8,3.515,3.515,0,0,1,.75,2.473V0H85.953V-5.3a2.287,2.287,0,0,0-.441-1.586,1.768,1.768,0,0,0-1.348-.469,2.386,2.386,0,0,0-1.207.285,2.072,2.072,0,0,0-.785.8V0H80.633V-8.453Z" transform="translate(876 2311)" fill="#12263f"/>
    <path id="Trazado_888914" data-name="Trazado 888914" d="M9.281-10.164H5.531V0H3.992V-10.164H.289v-1.211H9.281Zm4.82,3.07-.789-.047a1.762,1.762,0,0,0-1.027.289,1.855,1.855,0,0,0-.645.813V0H10.1V-8.453h1.375l.148,1.234a2.934,2.934,0,0,1,.887-1.023,2.073,2.073,0,0,1,1.215-.367,1.9,1.9,0,0,1,.328.027,2.175,2.175,0,0,1,.258.059ZM20.9,0q-.078-.383-.121-.676a4.96,4.96,0,0,1-.051-.59,3.589,3.589,0,0,1-1.121,1.02,2.867,2.867,0,0,1-1.488.41,2.763,2.763,0,0,1-2.012-.676,2.486,2.486,0,0,1-.691-1.863,2.183,2.183,0,0,1,.98-1.895,4.579,4.579,0,0,1,2.66-.684h1.672v-.836a1.551,1.551,0,0,0-.453-1.176A1.779,1.779,0,0,0,18.992-7.4a1.859,1.859,0,0,0-1.211.375,1.125,1.125,0,0,0-.461.9l-1.461.016-.016-.047a2.023,2.023,0,0,1,.863-1.687,3.578,3.578,0,0,1,2.371-.766,3.49,3.49,0,0,1,2.313.73,2.588,2.588,0,0,1,.875,2.105V-1.7a7.923,7.923,0,0,0,.047.875A4.5,4.5,0,0,0,22.484,0ZM18.344-1.125a2.739,2.739,0,0,0,1.508-.43,2.042,2.042,0,0,0,.875-.984V-3.914H19a2.24,2.24,0,0,0-1.488.469,1.4,1.4,0,0,0-.559,1.1,1.159,1.159,0,0,0,.352.891A1.472,1.472,0,0,0,18.344-1.125Zm7.531-7.328L25.984-7.2a3.069,3.069,0,0,1,1.059-1.043,2.824,2.824,0,0,1,1.449-.371,2.759,2.759,0,0,1,2.117.8,3.515,3.515,0,0,1,.75,2.473V0H29.82V-5.3a2.287,2.287,0,0,0-.441-1.586,1.768,1.768,0,0,0-1.348-.469,2.386,2.386,0,0,0-1.207.285,2.072,2.072,0,0,0-.785.8V0H24.5V-8.453Zm12.633,6.18a1.026,1.026,0,0,0-.387-.828,3.732,3.732,0,0,0-1.465-.562,6.146,6.146,0,0,1-2.293-.9,1.814,1.814,0,0,1-.8-1.547,2.229,2.229,0,0,1,.879-1.766,3.433,3.433,0,0,1,2.277-.734,3.4,3.4,0,0,1,2.328.781,2.239,2.239,0,0,1,.852,1.82l-.016.047H38.414a1.331,1.331,0,0,0-.48-.992A1.717,1.717,0,0,0,36.719-7.4a1.751,1.751,0,0,0-1.215.367,1.146,1.146,0,0,0-.4.875.927.927,0,0,0,.348.773,3.848,3.848,0,0,0,1.434.5,6.058,6.058,0,0,1,2.359.93,1.872,1.872,0,0,1,.8,1.57,2.226,2.226,0,0,1-.91,1.836,3.754,3.754,0,0,1-2.379.711,3.715,3.715,0,0,1-2.547-.82,2.341,2.341,0,0,1-.883-1.914l.016-.047h1.469a1.424,1.424,0,0,0,.609,1.2,2.358,2.358,0,0,0,1.336.379,2.1,2.1,0,0,0,1.285-.348A1.063,1.063,0,0,0,38.508-2.273ZM47.156,0q-.078-.383-.121-.676a4.96,4.96,0,0,1-.051-.59,3.589,3.589,0,0,1-1.121,1.02,2.867,2.867,0,0,1-1.488.41,2.763,2.763,0,0,1-2.012-.676,2.486,2.486,0,0,1-.691-1.863,2.183,2.183,0,0,1,.98-1.895,4.579,4.579,0,0,1,2.66-.684h1.672v-.836a1.551,1.551,0,0,0-.453-1.176A1.779,1.779,0,0,0,45.25-7.4a1.859,1.859,0,0,0-1.211.375,1.125,1.125,0,0,0-.461.9l-1.461.016L42.1-6.156a2.023,2.023,0,0,1,.863-1.687,3.578,3.578,0,0,1,2.371-.766,3.49,3.49,0,0,1,2.313.73,2.588,2.588,0,0,1,.875,2.105V-1.7a7.923,7.923,0,0,0,.047.875A4.5,4.5,0,0,0,48.742,0ZM44.6-1.125a2.739,2.739,0,0,0,1.508-.43,2.042,2.042,0,0,0,.875-.984V-3.914H45.258a2.24,2.24,0,0,0-1.488.469,1.4,1.4,0,0,0-.559,1.1,1.159,1.159,0,0,0,.352.891A1.472,1.472,0,0,0,44.6-1.125Zm9.516.086a1.81,1.81,0,0,0,1.242-.473,1.494,1.494,0,0,0,.531-1.16h1.391l.023.047a2.428,2.428,0,0,1-.937,1.941,3.312,3.312,0,0,1-2.25.848,3.319,3.319,0,0,1-2.75-1.211A4.674,4.674,0,0,1,50.4-4.062v-.328a4.654,4.654,0,0,1,.973-3,3.317,3.317,0,0,1,2.746-1.215,3.189,3.189,0,0,1,2.316.875A2.775,2.775,0,0,1,57.3-5.586l-.016.047h-1.4a1.865,1.865,0,0,0-.5-1.316,1.658,1.658,0,0,0-1.27-.543,1.777,1.777,0,0,0-1.652.879,4.114,4.114,0,0,0-.52,2.129v.328a4.192,4.192,0,0,0,.512,2.148A1.776,1.776,0,0,0,54.117-1.039Zm8.375,0a1.81,1.81,0,0,0,1.242-.473,1.494,1.494,0,0,0,.531-1.16h1.391l.023.047a2.428,2.428,0,0,1-.937,1.941,3.313,3.313,0,0,1-2.25.848,3.319,3.319,0,0,1-2.75-1.211,4.674,4.674,0,0,1-.969-3.016v-.328a4.654,4.654,0,0,1,.973-3,3.317,3.317,0,0,1,2.746-1.215,3.189,3.189,0,0,1,2.316.875,2.775,2.775,0,0,1,.871,2.148l-.016.047h-1.4a1.865,1.865,0,0,0-.5-1.316,1.658,1.658,0,0,0-1.27-.543,1.777,1.777,0,0,0-1.652.879,4.114,4.114,0,0,0-.52,2.129v.328a4.192,4.192,0,0,0,.512,2.148A1.776,1.776,0,0,0,62.492-1.039ZM69.172,0H67.633V-8.453h1.539Zm0-10.617H67.633v-1.57h1.539ZM71.18-4.3A4.654,4.654,0,0,1,72.2-7.395a3.406,3.406,0,0,1,2.758-1.215A3.439,3.439,0,0,1,77.73-7.4,4.639,4.639,0,0,1,78.75-4.3v.172a4.631,4.631,0,0,1-1.016,3.094,3.429,3.429,0,0,1-2.766,1.2A3.436,3.436,0,0,1,72.2-1.043a4.623,4.623,0,0,1-1.02-3.09Zm1.539.172a4.009,4.009,0,0,0,.566,2.219,1.875,1.875,0,0,0,1.684.875,1.87,1.87,0,0,0,1.672-.875,3.988,3.988,0,0,0,.57-2.219V-4.3a3.976,3.976,0,0,0-.574-2.211A1.882,1.882,0,0,0,74.953-7.4a1.856,1.856,0,0,0-1.668.883A4.018,4.018,0,0,0,72.719-4.3Zm2.992-7.906h1.8l.016.047-2.1,2.031H74.266Zm6.3,3.586L82.117-7.2a3.069,3.069,0,0,1,1.059-1.043,2.824,2.824,0,0,1,1.449-.371,2.759,2.759,0,0,1,2.117.8,3.515,3.515,0,0,1,.75,2.473V0H85.953V-5.3a2.287,2.287,0,0,0-.441-1.586,1.768,1.768,0,0,0-1.348-.469,2.386,2.386,0,0,0-1.207.285,2.072,2.072,0,0,0-.785.8V0H80.633V-8.453Z" transform="translate(1273 2206)" fill="#12263f"/>
    <path id="Trazado_888920" data-name="Trazado 888920" d="M9.281-10.164H5.531V0H3.992V-10.164H.289v-1.211H9.281Zm4.82,3.07-.789-.047a1.762,1.762,0,0,0-1.027.289,1.855,1.855,0,0,0-.645.813V0H10.1V-8.453h1.375l.148,1.234a2.934,2.934,0,0,1,.887-1.023,2.073,2.073,0,0,1,1.215-.367,1.9,1.9,0,0,1,.328.027,2.175,2.175,0,0,1,.258.059ZM20.9,0q-.078-.383-.121-.676a4.96,4.96,0,0,1-.051-.59,3.589,3.589,0,0,1-1.121,1.02,2.867,2.867,0,0,1-1.488.41,2.763,2.763,0,0,1-2.012-.676,2.486,2.486,0,0,1-.691-1.863,2.183,2.183,0,0,1,.98-1.895,4.579,4.579,0,0,1,2.66-.684h1.672v-.836a1.551,1.551,0,0,0-.453-1.176A1.779,1.779,0,0,0,18.992-7.4a1.859,1.859,0,0,0-1.211.375,1.125,1.125,0,0,0-.461.9l-1.461.016-.016-.047a2.023,2.023,0,0,1,.863-1.687,3.578,3.578,0,0,1,2.371-.766,3.49,3.49,0,0,1,2.313.73,2.588,2.588,0,0,1,.875,2.105V-1.7a7.923,7.923,0,0,0,.047.875A4.5,4.5,0,0,0,22.484,0ZM18.344-1.125a2.739,2.739,0,0,0,1.508-.43,2.042,2.042,0,0,0,.875-.984V-3.914H19a2.24,2.24,0,0,0-1.488.469,1.4,1.4,0,0,0-.559,1.1,1.159,1.159,0,0,0,.352.891A1.472,1.472,0,0,0,18.344-1.125Zm7.531-7.328L25.984-7.2a3.069,3.069,0,0,1,1.059-1.043,2.824,2.824,0,0,1,1.449-.371,2.759,2.759,0,0,1,2.117.8,3.515,3.515,0,0,1,.75,2.473V0H29.82V-5.3a2.287,2.287,0,0,0-.441-1.586,1.768,1.768,0,0,0-1.348-.469,2.386,2.386,0,0,0-1.207.285,2.072,2.072,0,0,0-.785.8V0H24.5V-8.453Zm12.633,6.18a1.026,1.026,0,0,0-.387-.828,3.732,3.732,0,0,0-1.465-.562,6.146,6.146,0,0,1-2.293-.9,1.814,1.814,0,0,1-.8-1.547,2.229,2.229,0,0,1,.879-1.766,3.433,3.433,0,0,1,2.277-.734,3.4,3.4,0,0,1,2.328.781,2.239,2.239,0,0,1,.852,1.82l-.016.047H38.414a1.331,1.331,0,0,0-.48-.992A1.717,1.717,0,0,0,36.719-7.4a1.751,1.751,0,0,0-1.215.367,1.146,1.146,0,0,0-.4.875.927.927,0,0,0,.348.773,3.848,3.848,0,0,0,1.434.5,6.058,6.058,0,0,1,2.359.93,1.872,1.872,0,0,1,.8,1.57,2.226,2.226,0,0,1-.91,1.836,3.754,3.754,0,0,1-2.379.711,3.715,3.715,0,0,1-2.547-.82,2.341,2.341,0,0,1-.883-1.914l.016-.047h1.469a1.424,1.424,0,0,0,.609,1.2,2.358,2.358,0,0,0,1.336.379,2.1,2.1,0,0,0,1.285-.348A1.063,1.063,0,0,0,38.508-2.273ZM47.156,0q-.078-.383-.121-.676a4.96,4.96,0,0,1-.051-.59,3.589,3.589,0,0,1-1.121,1.02,2.867,2.867,0,0,1-1.488.41,2.763,2.763,0,0,1-2.012-.676,2.486,2.486,0,0,1-.691-1.863,2.183,2.183,0,0,1,.98-1.895,4.579,4.579,0,0,1,2.66-.684h1.672v-.836a1.551,1.551,0,0,0-.453-1.176A1.779,1.779,0,0,0,45.25-7.4a1.859,1.859,0,0,0-1.211.375,1.125,1.125,0,0,0-.461.9l-1.461.016L42.1-6.156a2.023,2.023,0,0,1,.863-1.687,3.578,3.578,0,0,1,2.371-.766,3.49,3.49,0,0,1,2.313.73,2.588,2.588,0,0,1,.875,2.105V-1.7a7.923,7.923,0,0,0,.047.875A4.5,4.5,0,0,0,48.742,0ZM44.6-1.125a2.739,2.739,0,0,0,1.508-.43,2.042,2.042,0,0,0,.875-.984V-3.914H45.258a2.24,2.24,0,0,0-1.488.469,1.4,1.4,0,0,0-.559,1.1,1.159,1.159,0,0,0,.352.891A1.472,1.472,0,0,0,44.6-1.125Zm9.516.086a1.81,1.81,0,0,0,1.242-.473,1.494,1.494,0,0,0,.531-1.16h1.391l.023.047a2.428,2.428,0,0,1-.937,1.941,3.312,3.312,0,0,1-2.25.848,3.319,3.319,0,0,1-2.75-1.211A4.674,4.674,0,0,1,50.4-4.062v-.328a4.654,4.654,0,0,1,.973-3,3.317,3.317,0,0,1,2.746-1.215,3.189,3.189,0,0,1,2.316.875A2.775,2.775,0,0,1,57.3-5.586l-.016.047h-1.4a1.865,1.865,0,0,0-.5-1.316,1.658,1.658,0,0,0-1.27-.543,1.777,1.777,0,0,0-1.652.879,4.114,4.114,0,0,0-.52,2.129v.328a4.192,4.192,0,0,0,.512,2.148A1.776,1.776,0,0,0,54.117-1.039Zm8.375,0a1.81,1.81,0,0,0,1.242-.473,1.494,1.494,0,0,0,.531-1.16h1.391l.023.047a2.428,2.428,0,0,1-.937,1.941,3.313,3.313,0,0,1-2.25.848,3.319,3.319,0,0,1-2.75-1.211,4.674,4.674,0,0,1-.969-3.016v-.328a4.654,4.654,0,0,1,.973-3,3.317,3.317,0,0,1,2.746-1.215,3.189,3.189,0,0,1,2.316.875,2.775,2.775,0,0,1,.871,2.148l-.016.047h-1.4a1.865,1.865,0,0,0-.5-1.316,1.658,1.658,0,0,0-1.27-.543,1.777,1.777,0,0,0-1.652.879,4.114,4.114,0,0,0-.52,2.129v.328a4.192,4.192,0,0,0,.512,2.148A1.776,1.776,0,0,0,62.492-1.039ZM69.172,0H67.633V-8.453h1.539Zm0-10.617H67.633v-1.57h1.539ZM71.18-4.3A4.654,4.654,0,0,1,72.2-7.395a3.406,3.406,0,0,1,2.758-1.215A3.439,3.439,0,0,1,77.73-7.4,4.639,4.639,0,0,1,78.75-4.3v.172a4.631,4.631,0,0,1-1.016,3.094,3.429,3.429,0,0,1-2.766,1.2A3.436,3.436,0,0,1,72.2-1.043a4.623,4.623,0,0,1-1.02-3.09Zm1.539.172a4.009,4.009,0,0,0,.566,2.219,1.875,1.875,0,0,0,1.684.875,1.87,1.87,0,0,0,1.672-.875,3.988,3.988,0,0,0,.57-2.219V-4.3a3.976,3.976,0,0,0-.574-2.211A1.882,1.882,0,0,0,74.953-7.4a1.856,1.856,0,0,0-1.668.883A4.018,4.018,0,0,0,72.719-4.3Zm2.992-7.906h1.8l.016.047-2.1,2.031H74.266Zm6.3,3.586L82.117-7.2a3.069,3.069,0,0,1,1.059-1.043,2.824,2.824,0,0,1,1.449-.371,2.759,2.759,0,0,1,2.117.8,3.515,3.515,0,0,1,.75,2.473V0H85.953V-5.3a2.287,2.287,0,0,0-.441-1.586,1.768,1.768,0,0,0-1.348-.469,2.386,2.386,0,0,0-1.207.285,2.072,2.072,0,0,0-.785.8V0H80.633V-8.453Z" transform="translate(1273 2098)" fill="#12263f"/>
    <path id="Trazado_888909" data-name="Trazado 888909" d="M9.281-10.164H5.531V0H3.992V-10.164H.289v-1.211H9.281Zm4.82,3.07-.789-.047a1.762,1.762,0,0,0-1.027.289,1.855,1.855,0,0,0-.645.813V0H10.1V-8.453h1.375l.148,1.234a2.934,2.934,0,0,1,.887-1.023,2.073,2.073,0,0,1,1.215-.367,1.9,1.9,0,0,1,.328.027,2.175,2.175,0,0,1,.258.059ZM20.9,0q-.078-.383-.121-.676a4.96,4.96,0,0,1-.051-.59,3.589,3.589,0,0,1-1.121,1.02,2.867,2.867,0,0,1-1.488.41,2.763,2.763,0,0,1-2.012-.676,2.486,2.486,0,0,1-.691-1.863,2.183,2.183,0,0,1,.98-1.895,4.579,4.579,0,0,1,2.66-.684h1.672v-.836a1.551,1.551,0,0,0-.453-1.176A1.779,1.779,0,0,0,18.992-7.4a1.859,1.859,0,0,0-1.211.375,1.125,1.125,0,0,0-.461.9l-1.461.016-.016-.047a2.023,2.023,0,0,1,.863-1.687,3.578,3.578,0,0,1,2.371-.766,3.49,3.49,0,0,1,2.313.73,2.588,2.588,0,0,1,.875,2.105V-1.7a7.923,7.923,0,0,0,.047.875A4.5,4.5,0,0,0,22.484,0ZM18.344-1.125a2.739,2.739,0,0,0,1.508-.43,2.042,2.042,0,0,0,.875-.984V-3.914H19a2.24,2.24,0,0,0-1.488.469,1.4,1.4,0,0,0-.559,1.1,1.159,1.159,0,0,0,.352.891A1.472,1.472,0,0,0,18.344-1.125Zm7.531-7.328L25.984-7.2a3.069,3.069,0,0,1,1.059-1.043,2.824,2.824,0,0,1,1.449-.371,2.759,2.759,0,0,1,2.117.8,3.515,3.515,0,0,1,.75,2.473V0H29.82V-5.3a2.287,2.287,0,0,0-.441-1.586,1.768,1.768,0,0,0-1.348-.469,2.386,2.386,0,0,0-1.207.285,2.072,2.072,0,0,0-.785.8V0H24.5V-8.453Zm12.633,6.18a1.026,1.026,0,0,0-.387-.828,3.732,3.732,0,0,0-1.465-.562,6.146,6.146,0,0,1-2.293-.9,1.814,1.814,0,0,1-.8-1.547,2.229,2.229,0,0,1,.879-1.766,3.433,3.433,0,0,1,2.277-.734,3.4,3.4,0,0,1,2.328.781,2.239,2.239,0,0,1,.852,1.82l-.016.047H38.414a1.331,1.331,0,0,0-.48-.992A1.717,1.717,0,0,0,36.719-7.4a1.751,1.751,0,0,0-1.215.367,1.146,1.146,0,0,0-.4.875.927.927,0,0,0,.348.773,3.848,3.848,0,0,0,1.434.5,6.058,6.058,0,0,1,2.359.93,1.872,1.872,0,0,1,.8,1.57,2.226,2.226,0,0,1-.91,1.836,3.754,3.754,0,0,1-2.379.711,3.715,3.715,0,0,1-2.547-.82,2.341,2.341,0,0,1-.883-1.914l.016-.047h1.469a1.424,1.424,0,0,0,.609,1.2,2.358,2.358,0,0,0,1.336.379,2.1,2.1,0,0,0,1.285-.348A1.063,1.063,0,0,0,38.508-2.273ZM47.156,0q-.078-.383-.121-.676a4.96,4.96,0,0,1-.051-.59,3.589,3.589,0,0,1-1.121,1.02,2.867,2.867,0,0,1-1.488.41,2.763,2.763,0,0,1-2.012-.676,2.486,2.486,0,0,1-.691-1.863,2.183,2.183,0,0,1,.98-1.895,4.579,4.579,0,0,1,2.66-.684h1.672v-.836a1.551,1.551,0,0,0-.453-1.176A1.779,1.779,0,0,0,45.25-7.4a1.859,1.859,0,0,0-1.211.375,1.125,1.125,0,0,0-.461.9l-1.461.016L42.1-6.156a2.023,2.023,0,0,1,.863-1.687,3.578,3.578,0,0,1,2.371-.766,3.49,3.49,0,0,1,2.313.73,2.588,2.588,0,0,1,.875,2.105V-1.7a7.923,7.923,0,0,0,.047.875A4.5,4.5,0,0,0,48.742,0ZM44.6-1.125a2.739,2.739,0,0,0,1.508-.43,2.042,2.042,0,0,0,.875-.984V-3.914H45.258a2.24,2.24,0,0,0-1.488.469,1.4,1.4,0,0,0-.559,1.1,1.159,1.159,0,0,0,.352.891A1.472,1.472,0,0,0,44.6-1.125Zm9.516.086a1.81,1.81,0,0,0,1.242-.473,1.494,1.494,0,0,0,.531-1.16h1.391l.023.047a2.428,2.428,0,0,1-.937,1.941,3.312,3.312,0,0,1-2.25.848,3.319,3.319,0,0,1-2.75-1.211A4.674,4.674,0,0,1,50.4-4.062v-.328a4.654,4.654,0,0,1,.973-3,3.317,3.317,0,0,1,2.746-1.215,3.189,3.189,0,0,1,2.316.875A2.775,2.775,0,0,1,57.3-5.586l-.016.047h-1.4a1.865,1.865,0,0,0-.5-1.316,1.658,1.658,0,0,0-1.27-.543,1.777,1.777,0,0,0-1.652.879,4.114,4.114,0,0,0-.52,2.129v.328a4.192,4.192,0,0,0,.512,2.148A1.776,1.776,0,0,0,54.117-1.039Zm8.375,0a1.81,1.81,0,0,0,1.242-.473,1.494,1.494,0,0,0,.531-1.16h1.391l.023.047a2.428,2.428,0,0,1-.937,1.941,3.313,3.313,0,0,1-2.25.848,3.319,3.319,0,0,1-2.75-1.211,4.674,4.674,0,0,1-.969-3.016v-.328a4.654,4.654,0,0,1,.973-3,3.317,3.317,0,0,1,2.746-1.215,3.189,3.189,0,0,1,2.316.875,2.775,2.775,0,0,1,.871,2.148l-.016.047h-1.4a1.865,1.865,0,0,0-.5-1.316,1.658,1.658,0,0,0-1.27-.543,1.777,1.777,0,0,0-1.652.879,4.114,4.114,0,0,0-.52,2.129v.328a4.192,4.192,0,0,0,.512,2.148A1.776,1.776,0,0,0,62.492-1.039ZM69.172,0H67.633V-8.453h1.539Zm0-10.617H67.633v-1.57h1.539ZM71.18-4.3A4.654,4.654,0,0,1,72.2-7.395a3.406,3.406,0,0,1,2.758-1.215A3.439,3.439,0,0,1,77.73-7.4,4.639,4.639,0,0,1,78.75-4.3v.172a4.631,4.631,0,0,1-1.016,3.094,3.429,3.429,0,0,1-2.766,1.2A3.436,3.436,0,0,1,72.2-1.043a4.623,4.623,0,0,1-1.02-3.09Zm1.539.172a4.009,4.009,0,0,0,.566,2.219,1.875,1.875,0,0,0,1.684.875,1.87,1.87,0,0,0,1.672-.875,3.988,3.988,0,0,0,.57-2.219V-4.3a3.976,3.976,0,0,0-.574-2.211A1.882,1.882,0,0,0,74.953-7.4a1.856,1.856,0,0,0-1.668.883A4.018,4.018,0,0,0,72.719-4.3Zm2.992-7.906h1.8l.016.047-2.1,2.031H74.266Zm6.3,3.586L82.117-7.2a3.069,3.069,0,0,1,1.059-1.043,2.824,2.824,0,0,1,1.449-.371,2.759,2.759,0,0,1,2.117.8,3.515,3.515,0,0,1,.75,2.473V0H85.953V-5.3a2.287,2.287,0,0,0-.441-1.586,1.768,1.768,0,0,0-1.348-.469,2.386,2.386,0,0,0-1.207.285,2.072,2.072,0,0,0-.785.8V0H80.633V-8.453Z" transform="translate(1273 2313)" fill="#12263f"/>
  </g>
</svg>
