<svg xmlns="http://www.w3.org/2000/svg" width="846" height="421" viewBox="0 0 846 421">
  <g id="Grupo_1102363" data-name="Grupo 1102363" transform="translate(-354 -1231)">
    <path id="Trazado_888949" data-name="Trazado 888949" d="M0,0H351V123H0Z" transform="translate(849 1377)" fill="#f7eefe"/>
    <path id="Trazado_888950" data-name="Trazado 888950" d="M5.547,15H4V5.047L1.523,5.07V3.883l4.023-.422ZM11.8,15H10.266V13.422H11.8Zm8.328-4.93V15H18.594V3.633h3.891a4.32,4.32,0,0,1,2.852.828,2.968,2.968,0,0,1,.984,2.406,2.576,2.576,0,0,1-.457,1.523,3.1,3.1,0,0,1-1.332,1.031,2.331,2.331,0,0,1,1.348.988,3.236,3.236,0,0,1,.41,1.691v1.07a3.564,3.564,0,0,0,.117.953,1.429,1.429,0,0,0,.406.688V15H25.227a1.273,1.273,0,0,1-.391-.781,6.453,6.453,0,0,1-.086-1.062V12.117a2.056,2.056,0,0,0-.539-1.484,1.908,1.908,0,0,0-1.445-.562Zm0-1.211h2.2a2.858,2.858,0,0,0,1.879-.5,1.89,1.89,0,0,0,.574-1.512,1.948,1.948,0,0,0-.559-1.488,2.461,2.461,0,0,0-1.738-.527H20.133Zm11.93,6.3A3.576,3.576,0,0,1,29.223,14a4.48,4.48,0,0,1-1.02-3.062v-.344a4.386,4.386,0,0,1,1.051-3.012A3.3,3.3,0,0,1,31.82,6.391a3.067,3.067,0,0,1,2.543,1.055,4.345,4.345,0,0,1,.848,2.8v.813H29.8l-.023.039a3.494,3.494,0,0,0,.563,2.066,1.965,1.965,0,0,0,1.719.793,3.872,3.872,0,0,0,1.371-.223,3.061,3.061,0,0,0,1.012-.613l.6,1a3.7,3.7,0,0,1-1.2.738A4.762,4.762,0,0,1,32.063,15.164ZM31.82,7.6a1.673,1.673,0,0,0-1.332.621,2.938,2.938,0,0,0-.645,1.59l.016.039h3.813V9.727A2.462,2.462,0,0,0,33.219,8.2,1.638,1.638,0,0,0,31.82,7.6Zm4.766,3.328a5.641,5.641,0,0,1,.871-3.289A2.807,2.807,0,0,1,39.9,6.391a3.027,3.027,0,0,1,1.316.273,2.7,2.7,0,0,1,.98.8V2.813h1.539V15h-1.18l-.234-1.07a2.743,2.743,0,0,1-1.023.922,3.058,3.058,0,0,1-1.414.313,2.9,2.9,0,0,1-2.422-1.121,4.659,4.659,0,0,1-.875-2.949Zm1.539.164a3.588,3.588,0,0,0,.523,2.051,1.828,1.828,0,0,0,1.625.77A2.039,2.039,0,0,0,41.43,13.6a2.334,2.334,0,0,0,.766-.875V8.781a2.37,2.37,0,0,0-.77-.832,2.033,2.033,0,0,0-1.137-.309,1.759,1.759,0,0,0-1.637.914,4.718,4.718,0,0,0-.527,2.375Zm11.406,4.07A3.576,3.576,0,0,1,46.691,14a4.48,4.48,0,0,1-1.02-3.062v-.344a4.386,4.386,0,0,1,1.051-3.012,3.3,3.3,0,0,1,2.566-1.191,3.067,3.067,0,0,1,2.543,1.055,4.345,4.345,0,0,1,.848,2.8v.813H47.273l-.023.039a3.494,3.494,0,0,0,.563,2.066,1.965,1.965,0,0,0,1.719.793,3.872,3.872,0,0,0,1.371-.223,3.061,3.061,0,0,0,1.012-.613l.6,1a3.7,3.7,0,0,1-1.2.738A4.762,4.762,0,0,1,49.531,15.164ZM49.289,7.6a1.673,1.673,0,0,0-1.332.621,2.938,2.938,0,0,0-.645,1.59l.016.039h3.813V9.727A2.462,2.462,0,0,0,50.688,8.2,1.638,1.638,0,0,0,49.289,7.6ZM59.32,12.727a1.026,1.026,0,0,0-.387-.828,3.732,3.732,0,0,0-1.465-.562,6.146,6.146,0,0,1-2.293-.9,1.814,1.814,0,0,1-.8-1.547,2.229,2.229,0,0,1,.879-1.766,3.879,3.879,0,0,1,4.605.047,2.239,2.239,0,0,1,.852,1.82l-.016.047H59.227a1.331,1.331,0,0,0-.48-.992A1.717,1.717,0,0,0,57.531,7.6a1.751,1.751,0,0,0-1.215.367,1.146,1.146,0,0,0-.4.875.927.927,0,0,0,.348.773,3.848,3.848,0,0,0,1.434.5,6.058,6.058,0,0,1,2.359.93,1.872,1.872,0,0,1,.8,1.57,2.226,2.226,0,0,1-.91,1.836,3.754,3.754,0,0,1-2.379.711,3.715,3.715,0,0,1-2.547-.82,2.341,2.341,0,0,1-.883-1.914l.016-.047h1.469a1.424,1.424,0,0,0,.609,1.2,2.358,2.358,0,0,0,1.336.379,2.1,2.1,0,0,0,1.285-.348A1.063,1.063,0,0,0,59.32,12.727ZM68.414,15H66.875V6.547h1.539Zm0-10.617H66.875V2.813h1.539Zm3.742,2.164L72.266,7.8a3.069,3.069,0,0,1,1.059-1.043,2.824,2.824,0,0,1,1.449-.371,2.759,2.759,0,0,1,2.117.8,3.515,3.515,0,0,1,.75,2.473V15H76.1V9.7a2.287,2.287,0,0,0-.441-1.586,1.768,1.768,0,0,0-1.348-.469,2.386,2.386,0,0,0-1.207.285,2.072,2.072,0,0,0-.785.8V15H70.781V6.547Zm7.367,4.383a5.641,5.641,0,0,1,.871-3.289,2.807,2.807,0,0,1,2.441-1.25,3.027,3.027,0,0,1,1.316.273,2.7,2.7,0,0,1,.98.8V2.813h1.539V15h-1.18l-.234-1.07a2.743,2.743,0,0,1-1.023.922,3.058,3.058,0,0,1-1.414.313A2.9,2.9,0,0,1,80.4,14.043a4.659,4.659,0,0,1-.875-2.949Zm1.539.164a3.588,3.588,0,0,0,.523,2.051,1.828,1.828,0,0,0,1.625.77,2.039,2.039,0,0,0,1.156-.312,2.334,2.334,0,0,0,.766-.875V8.781a2.37,2.37,0,0,0-.77-.832,2.033,2.033,0,0,0-1.137-.309,1.759,1.759,0,0,0-1.637.914,4.718,4.718,0,0,0-.527,2.375ZM90.633,15H89.094V6.547h1.539Zm0-10.617H89.094V2.813h1.539Zm5.188,8.125.133.594H96l.148-.594,1.945-5.961h1.57L96.555,15H95.391L92.242,6.547H93.82ZM102.711,15h-1.539V6.547h1.539Zm0-10.617h-1.539V2.813h1.539Zm2.016,6.547a5.641,5.641,0,0,1,.871-3.289,2.807,2.807,0,0,1,2.441-1.25,3.027,3.027,0,0,1,1.316.273,2.7,2.7,0,0,1,.98.8V2.813h1.539V15H110.7l-.234-1.07a2.743,2.743,0,0,1-1.023.922,3.058,3.058,0,0,1-1.414.313,2.9,2.9,0,0,1-2.422-1.121,4.659,4.659,0,0,1-.875-2.949Zm1.539.164a3.588,3.588,0,0,0,.523,2.051,1.828,1.828,0,0,0,1.625.77,2.039,2.039,0,0,0,1.156-.312,2.334,2.334,0,0,0,.766-.875V8.781a2.37,2.37,0,0,0-.77-.832,2.033,2.033,0,0,0-1.137-.309,1.759,1.759,0,0,0-1.637.914,4.718,4.718,0,0,0-.527,2.375Zm13.273,2.656a2.863,2.863,0,0,1-1.023,1.047,2.8,2.8,0,0,1-1.445.367,2.716,2.716,0,0,1-2.156-.883,4.1,4.1,0,0,1-.773-2.75V6.547h1.539v5a3.147,3.147,0,0,0,.4,1.859,1.481,1.481,0,0,0,1.242.508,2.531,2.531,0,0,0,1.355-.332,2.077,2.077,0,0,0,.809-.941V6.547h1.539V15h-1.383ZM128.461,15q-.078-.383-.121-.676a4.96,4.96,0,0,1-.051-.59,3.588,3.588,0,0,1-1.121,1.02,2.867,2.867,0,0,1-1.488.41,2.763,2.763,0,0,1-2.012-.676,2.486,2.486,0,0,1-.691-1.863,2.183,2.183,0,0,1,.98-1.895,4.579,4.579,0,0,1,2.66-.684h1.672V9.211a1.551,1.551,0,0,0-.453-1.176,1.779,1.779,0,0,0-1.281-.434,1.859,1.859,0,0,0-1.211.375,1.125,1.125,0,0,0-.461.9l-1.461.016-.016-.047a2.023,2.023,0,0,1,.863-1.687,3.578,3.578,0,0,1,2.371-.766,3.49,3.49,0,0,1,2.313.73,2.588,2.588,0,0,1,.875,2.105V13.3a7.923,7.923,0,0,0,.047.875,4.5,4.5,0,0,0,.172.828Zm-2.555-1.125a2.739,2.739,0,0,0,1.508-.43,2.042,2.042,0,0,0,.875-.984V11.086h-1.727a2.24,2.24,0,0,0-1.488.469,1.4,1.4,0,0,0-.559,1.1,1.159,1.159,0,0,0,.352.891A1.472,1.472,0,0,0,125.906,13.875ZM133.727,15h-1.539V2.813h1.539Zm5.867.164A3.576,3.576,0,0,1,136.754,14a4.48,4.48,0,0,1-1.02-3.062v-.344a4.386,4.386,0,0,1,1.051-3.012,3.3,3.3,0,0,1,2.566-1.191,3.067,3.067,0,0,1,2.543,1.055,4.345,4.345,0,0,1,.848,2.8v.813h-5.406l-.023.039a3.494,3.494,0,0,0,.563,2.066,1.965,1.965,0,0,0,1.719.793,3.872,3.872,0,0,0,1.371-.223,3.061,3.061,0,0,0,1.012-.613l.6,1a3.7,3.7,0,0,1-1.2.738A4.762,4.762,0,0,1,139.594,15.164ZM139.352,7.6a1.673,1.673,0,0,0-1.332.621,2.938,2.938,0,0,0-.645,1.59l.016.039H141.2V9.727A2.462,2.462,0,0,0,140.75,8.2,1.638,1.638,0,0,0,139.352,7.6Zm10.031,5.125A1.026,1.026,0,0,0,149,11.9a3.732,3.732,0,0,0-1.465-.562,6.146,6.146,0,0,1-2.293-.9,1.814,1.814,0,0,1-.8-1.547,2.229,2.229,0,0,1,.879-1.766,3.879,3.879,0,0,1,4.605.047,2.239,2.239,0,0,1,.852,1.82l-.016.047h-1.469a1.331,1.331,0,0,0-.48-.992,1.717,1.717,0,0,0-1.215-.445,1.751,1.751,0,0,0-1.215.367,1.146,1.146,0,0,0-.4.875.927.927,0,0,0,.348.773,3.848,3.848,0,0,0,1.434.5,6.058,6.058,0,0,1,2.359.93,1.872,1.872,0,0,1,.8,1.57,2.226,2.226,0,0,1-.91,1.836,3.754,3.754,0,0,1-2.379.711,3.715,3.715,0,0,1-2.547-.82,2.341,2.341,0,0,1-.883-1.914l.016-.047h1.469a1.424,1.424,0,0,0,.609,1.2,2.358,2.358,0,0,0,1.336.379,2.1,2.1,0,0,0,1.285-.348A1.063,1.063,0,0,0,149.383,12.727ZM154.516,15h-1.539V13.422h1.539ZM8.234,39H1.172V37.945l3.57-4.258a10.726,10.726,0,0,0,1.293-1.84,3.07,3.07,0,0,0,.34-1.379,1.841,1.841,0,0,0-.461-1.293,1.639,1.639,0,0,0-1.273-.5,1.908,1.908,0,0,0-1.535.617,2.286,2.286,0,0,0-.527,1.539H1.094l-.016-.047a3.068,3.068,0,0,1,.93-2.355,3.566,3.566,0,0,1,2.633-.965,3.31,3.31,0,0,1,2.4.844,2.894,2.894,0,0,1,.875,2.18,3.476,3.476,0,0,1-.5,1.758A19.612,19.612,0,0,1,5.906,34.4L3.039,37.758l.016.039h5.18Zm3.57,0H10.266V37.422H11.8Zm14.906-3.641.016.047a3.417,3.417,0,0,1-1.125,2.68,4.3,4.3,0,0,1-3.055,1.078A4.012,4.012,0,0,1,19.4,37.8a5.028,5.028,0,0,1-1.215-3.469V32.3A5.043,5.043,0,0,1,19.4,28.832a4.006,4.006,0,0,1,3.145-1.371,4.416,4.416,0,0,1,3.07,1.027,3.4,3.4,0,0,1,1.109,2.723l-.016.047H25.234a2.539,2.539,0,0,0-.7-1.891,2.7,2.7,0,0,0-1.984-.7,2.424,2.424,0,0,0-2.055,1.039,4.227,4.227,0,0,0-.766,2.578v2.039a4.254,4.254,0,0,0,.766,2.594,2.424,2.424,0,0,0,2.055,1.039,2.71,2.71,0,0,0,1.984-.691,2.557,2.557,0,0,0,.7-1.91Zm1.445-.664a4.654,4.654,0,0,1,1.016-3.09,3.764,3.764,0,0,1,5.535,0,4.639,4.639,0,0,1,1.02,3.094v.172a4.631,4.631,0,0,1-1.016,3.094,3.781,3.781,0,0,1-5.535,0,4.623,4.623,0,0,1-1.02-3.09Zm1.539.172a4.009,4.009,0,0,0,.566,2.219,2.046,2.046,0,0,0,3.355,0,3.988,3.988,0,0,0,.57-2.219V34.7a3.976,3.976,0,0,0-.574-2.211A1.882,1.882,0,0,0,31.93,31.6a1.856,1.856,0,0,0-1.668.883A4.018,4.018,0,0,0,29.7,34.7Zm9.289-4.32.109,1.258a3.069,3.069,0,0,1,1.059-1.043,2.824,2.824,0,0,1,1.449-.371,2.759,2.759,0,0,1,2.117.8,3.515,3.515,0,0,1,.75,2.473V39H42.93V33.7a2.287,2.287,0,0,0-.441-1.586,1.768,1.768,0,0,0-1.348-.469,2.386,2.386,0,0,0-1.207.285,2.072,2.072,0,0,0-.785.8V39H37.609V30.547ZM50.2,39.164A3.576,3.576,0,0,1,47.363,38a4.48,4.48,0,0,1-1.02-3.062v-.344a4.386,4.386,0,0,1,1.051-3.012,3.3,3.3,0,0,1,2.566-1.191A3.067,3.067,0,0,1,52.5,31.445a4.345,4.345,0,0,1,.848,2.8v.813H47.945l-.023.039a3.494,3.494,0,0,0,.563,2.066,1.965,1.965,0,0,0,1.719.793,3.872,3.872,0,0,0,1.371-.223,3.061,3.061,0,0,0,1.012-.613l.6,1a3.7,3.7,0,0,1-1.2.738A4.762,4.762,0,0,1,50.2,39.164ZM49.961,31.6a1.673,1.673,0,0,0-1.332.621,2.938,2.938,0,0,0-.645,1.59l.016.039h3.813v-.125a2.462,2.462,0,0,0-.453-1.523A1.638,1.638,0,0,0,49.961,31.6Zm8.477,6.359a1.81,1.81,0,0,0,1.242-.473,1.494,1.494,0,0,0,.531-1.16H61.6l.023.047a2.428,2.428,0,0,1-.937,1.941,3.582,3.582,0,0,1-5-.363,4.674,4.674,0,0,1-.969-3.016v-.328a4.654,4.654,0,0,1,.973-3,3.317,3.317,0,0,1,2.746-1.215,3.189,3.189,0,0,1,2.316.875,2.775,2.775,0,0,1,.871,2.148l-.016.047h-1.4a1.865,1.865,0,0,0-.5-1.316,1.658,1.658,0,0,0-1.27-.543,1.777,1.777,0,0,0-1.652.879,4.114,4.114,0,0,0-.52,2.129v.328a4.192,4.192,0,0,0,.512,2.148A1.776,1.776,0,0,0,58.438,37.961Zm7.156-9.453v2.039h1.6v1.141h-1.6V36.82a1.149,1.149,0,0,0,.246.836.89.89,0,0,0,.652.242,1.43,1.43,0,0,0,.3-.035,2.2,2.2,0,0,0,.273-.074l.211,1.055a1.36,1.36,0,0,1-.508.23,2.562,2.562,0,0,1-.664.09,1.993,1.993,0,0,1-1.492-.566,2.46,2.46,0,0,1-.555-1.777V31.688H62.711V30.547h1.344V28.508ZM74.039,39q-.078-.383-.121-.676a4.96,4.96,0,0,1-.051-.59,3.589,3.589,0,0,1-1.121,1.02,2.867,2.867,0,0,1-1.488.41,2.763,2.763,0,0,1-2.012-.676,2.486,2.486,0,0,1-.691-1.863,2.183,2.183,0,0,1,.98-1.895,4.579,4.579,0,0,1,2.66-.684h1.672v-.836a1.551,1.551,0,0,0-.453-1.176,1.779,1.779,0,0,0-1.281-.434,1.859,1.859,0,0,0-1.211.375,1.125,1.125,0,0,0-.461.9L69,32.891l-.016-.047a2.023,2.023,0,0,1,.863-1.687,3.578,3.578,0,0,1,2.371-.766,3.49,3.49,0,0,1,2.313.73,2.588,2.588,0,0,1,.875,2.105V37.3a7.923,7.923,0,0,0,.047.875,4.5,4.5,0,0,0,.172.828Zm-2.555-1.125a2.739,2.739,0,0,0,1.508-.43,2.042,2.042,0,0,0,.875-.984V35.086H72.141a2.24,2.24,0,0,0-1.488.469,1.4,1.4,0,0,0-.559,1.1,1.159,1.159,0,0,0,.352.891A1.472,1.472,0,0,0,71.484,37.875Zm5.8-2.945a5.641,5.641,0,0,1,.871-3.289,2.807,2.807,0,0,1,2.441-1.25,3.027,3.027,0,0,1,1.316.273,2.7,2.7,0,0,1,.98.8V26.813h1.539V39h-1.18l-.234-1.07A2.743,2.743,0,0,1,82,38.852a3.058,3.058,0,0,1-1.414.313,2.9,2.9,0,0,1-2.422-1.121,4.659,4.659,0,0,1-.875-2.949Zm1.539.164a3.588,3.588,0,0,0,.523,2.051,1.828,1.828,0,0,0,1.625.77,2.039,2.039,0,0,0,1.156-.312,2.334,2.334,0,0,0,.766-.875V32.781a2.37,2.37,0,0,0-.77-.832,2.033,2.033,0,0,0-1.137-.309,1.759,1.759,0,0,0-1.637.914,4.718,4.718,0,0,0-.527,2.375ZM91.93,39q-.078-.383-.121-.676a4.96,4.96,0,0,1-.051-.59,3.589,3.589,0,0,1-1.121,1.02,2.867,2.867,0,0,1-1.488.41,2.763,2.763,0,0,1-2.012-.676,2.486,2.486,0,0,1-.691-1.863,2.183,2.183,0,0,1,.98-1.895,4.579,4.579,0,0,1,2.66-.684h1.672v-.836a1.551,1.551,0,0,0-.453-1.176,1.779,1.779,0,0,0-1.281-.434,1.859,1.859,0,0,0-1.211.375,1.125,1.125,0,0,0-.461.9l-1.461.016-.016-.047a2.023,2.023,0,0,1,.863-1.687,3.578,3.578,0,0,1,2.371-.766,3.49,3.49,0,0,1,2.313.73,2.588,2.588,0,0,1,.875,2.105V37.3a7.923,7.923,0,0,0,.047.875,4.5,4.5,0,0,0,.172.828Zm-2.555-1.125a2.739,2.739,0,0,0,1.508-.43,2.042,2.042,0,0,0,.875-.984V35.086H90.031a2.24,2.24,0,0,0-1.488.469,1.4,1.4,0,0,0-.559,1.1,1.159,1.159,0,0,0,.352.891A1.472,1.472,0,0,0,89.375,37.875Zm11.07-1.148a1.026,1.026,0,0,0-.387-.828,3.732,3.732,0,0,0-1.465-.562,6.146,6.146,0,0,1-2.293-.9,1.814,1.814,0,0,1-.8-1.547,2.229,2.229,0,0,1,.879-1.766,3.879,3.879,0,0,1,4.605.047,2.239,2.239,0,0,1,.852,1.82l-.016.047h-1.469a1.331,1.331,0,0,0-.48-.992,1.717,1.717,0,0,0-1.215-.445,1.751,1.751,0,0,0-1.215.367,1.146,1.146,0,0,0-.4.875.927.927,0,0,0,.348.773,3.848,3.848,0,0,0,1.434.5,6.058,6.058,0,0,1,2.359.93,1.872,1.872,0,0,1,.8,1.57,2.226,2.226,0,0,1-.91,1.836,3.754,3.754,0,0,1-2.379.711,3.715,3.715,0,0,1-2.547-.82,2.341,2.341,0,0,1-.883-1.914l.016-.047H96.75a1.424,1.424,0,0,0,.609,1.2,2.358,2.358,0,0,0,1.336.379,2.1,2.1,0,0,0,1.285-.348A1.063,1.063,0,0,0,100.445,36.727ZM4.523,56.531A1.8,1.8,0,0,0,5.98,56.02a2.179,2.179,0,0,0,.426-1.434A2.02,2.02,0,0,0,5.941,53.2a1.741,1.741,0,0,0-1.379-.527,2.057,2.057,0,0,0-1.473.551A1.819,1.819,0,0,0,2.508,54.6H1.039l-.023-.047a2.718,2.718,0,0,1,.969-2.187,3.709,3.709,0,0,1,2.578-.906,3.6,3.6,0,0,1,2.484.8,2.991,2.991,0,0,1,.9,2.355,2.65,2.65,0,0,1-.418,1.453,2.818,2.818,0,0,1-1.168,1.023,2.688,2.688,0,0,1,1.309,1.043,3.063,3.063,0,0,1,.449,1.691,3.122,3.122,0,0,1-.988,2.449,3.7,3.7,0,0,1-2.566.887A4.064,4.064,0,0,1,2,62.309,2.62,2.62,0,0,1,.938,60.047L.953,60H2.422a1.846,1.846,0,0,0,.6,1.395,2.152,2.152,0,0,0,1.543.566,1.914,1.914,0,0,0,1.477-.582,2.147,2.147,0,0,0,.539-1.52,2.273,2.273,0,0,0-.5-1.6,2.041,2.041,0,0,0-1.559-.531H3.258v-1.2ZM11.8,63H10.266V61.422H11.8Zm14.906-3.641.016.047a3.417,3.417,0,0,1-1.125,2.68,4.3,4.3,0,0,1-3.055,1.078A4.012,4.012,0,0,1,19.4,61.8a5.028,5.028,0,0,1-1.215-3.469V56.3A5.043,5.043,0,0,1,19.4,52.832a4.006,4.006,0,0,1,3.145-1.371,4.416,4.416,0,0,1,3.07,1.027,3.4,3.4,0,0,1,1.109,2.723l-.016.047H25.234a2.539,2.539,0,0,0-.7-1.891,2.7,2.7,0,0,0-1.984-.7,2.424,2.424,0,0,0-2.055,1.039,4.227,4.227,0,0,0-.766,2.578v2.039a4.254,4.254,0,0,0,.766,2.594,2.424,2.424,0,0,0,2.055,1.039,2.71,2.71,0,0,0,1.984-.691,2.557,2.557,0,0,0,.7-1.91Zm1.445-.664a4.654,4.654,0,0,1,1.016-3.09,3.764,3.764,0,0,1,5.535,0,4.639,4.639,0,0,1,1.02,3.094v.172a4.631,4.631,0,0,1-1.016,3.094,3.781,3.781,0,0,1-5.535,0,4.623,4.623,0,0,1-1.02-3.09Zm1.539.172a4.009,4.009,0,0,0,.566,2.219,2.046,2.046,0,0,0,3.355,0,3.988,3.988,0,0,0,.57-2.219V58.7a3.976,3.976,0,0,0-.574-2.211A1.882,1.882,0,0,0,31.93,55.6a1.856,1.856,0,0,0-1.668.883A4.018,4.018,0,0,0,29.7,58.7Zm9.289-4.32.109,1.258a3.069,3.069,0,0,1,1.059-1.043,2.824,2.824,0,0,1,1.449-.371,2.759,2.759,0,0,1,2.117.8,3.515,3.515,0,0,1,.75,2.473V63H42.93V57.7a2.287,2.287,0,0,0-.441-1.586,1.768,1.768,0,0,0-1.348-.469,2.386,2.386,0,0,0-1.207.285,2.072,2.072,0,0,0-.785.8V63H37.609V54.547Zm16.609,6.18a1.026,1.026,0,0,0-.387-.828,3.732,3.732,0,0,0-1.465-.562,6.146,6.146,0,0,1-2.293-.9,1.814,1.814,0,0,1-.8-1.547,2.229,2.229,0,0,1,.879-1.766,3.879,3.879,0,0,1,4.605.047,2.239,2.239,0,0,1,.852,1.82l-.016.047H55.5a1.331,1.331,0,0,0-.48-.992A1.717,1.717,0,0,0,53.8,55.6a1.751,1.751,0,0,0-1.215.367,1.146,1.146,0,0,0-.4.875.927.927,0,0,0,.348.773,3.848,3.848,0,0,0,1.434.5,6.058,6.058,0,0,1,2.359.93,1.872,1.872,0,0,1,.8,1.57,2.226,2.226,0,0,1-.91,1.836,3.754,3.754,0,0,1-2.379.711,3.715,3.715,0,0,1-2.547-.82,2.341,2.341,0,0,1-.883-1.914l.016-.047H51.9a1.424,1.424,0,0,0,.609,1.2,2.358,2.358,0,0,0,1.336.379,2.1,2.1,0,0,0,1.285-.348A1.063,1.063,0,0,0,55.594,60.727Zm6.953,2.438A3.576,3.576,0,0,1,59.707,62a4.48,4.48,0,0,1-1.02-3.062v-.344a4.386,4.386,0,0,1,1.051-3.012A3.3,3.3,0,0,1,62.3,54.391a3.067,3.067,0,0,1,2.543,1.055,4.345,4.345,0,0,1,.848,2.8v.813H60.289l-.023.039a3.494,3.494,0,0,0,.563,2.066,1.965,1.965,0,0,0,1.719.793,3.872,3.872,0,0,0,1.371-.223,3.061,3.061,0,0,0,1.012-.613l.6,1a3.7,3.7,0,0,1-1.2.738A4.762,4.762,0,0,1,62.547,63.164ZM62.3,55.6a1.673,1.673,0,0,0-1.332.621,2.938,2.938,0,0,0-.645,1.59l.016.039h3.813v-.125A2.462,2.462,0,0,0,63.7,56.2,1.638,1.638,0,0,0,62.3,55.6Zm4.844,3.328a5.641,5.641,0,0,1,.871-3.289,2.8,2.8,0,0,1,2.434-1.25,2.966,2.966,0,0,1,1.414.324,2.845,2.845,0,0,1,1.023.934l.188-1.1H74.3v8.5a3.225,3.225,0,0,1-.945,2.5,3.884,3.884,0,0,1-2.727.871,5.717,5.717,0,0,1-1.316-.168,5.147,5.147,0,0,1-1.246-.457l.234-1.2a4.45,4.45,0,0,0,1.074.379,5.517,5.517,0,0,0,1.238.145,2.242,2.242,0,0,0,1.637-.512,2.12,2.12,0,0,0,.512-1.559v-.961a2.725,2.725,0,0,1-.992.8,3.091,3.091,0,0,1-1.336.273,2.89,2.89,0,0,1-2.418-1.121,4.674,4.674,0,0,1-.871-2.949Zm1.539.164a3.592,3.592,0,0,0,.523,2.047,1.817,1.817,0,0,0,1.617.773,2.034,2.034,0,0,0,1.164-.316,2.4,2.4,0,0,0,.773-.895V56.813a2.388,2.388,0,0,0-.773-.855,2.029,2.029,0,0,0-1.148-.316,1.752,1.752,0,0,0-1.629.914,4.718,4.718,0,0,0-.527,2.375Zm13.2,2.656A2.863,2.863,0,0,1,80.859,62.8a2.8,2.8,0,0,1-1.445.367,2.716,2.716,0,0,1-2.156-.883,4.1,4.1,0,0,1-.773-2.75V54.547h1.539v5a3.147,3.147,0,0,0,.4,1.859,1.481,1.481,0,0,0,1.242.508,2.531,2.531,0,0,0,1.355-.332,2.077,2.077,0,0,0,.809-.941V54.547h1.539V63H81.984Zm7.727-5.844-.789-.047a1.762,1.762,0,0,0-1.027.289,1.854,1.854,0,0,0-.645.813V63H85.609V54.547h1.375l.148,1.234a2.934,2.934,0,0,1,.887-1.023,2.073,2.073,0,0,1,1.215-.367,1.9,1.9,0,0,1,.328.027,2.175,2.175,0,0,1,.258.059ZM92.875,63H91.336V54.547h1.539Zm0-10.617H91.336v-1.57h1.539Zm2.016,6.547a5.641,5.641,0,0,1,.871-3.289,2.807,2.807,0,0,1,2.441-1.25,3.027,3.027,0,0,1,1.316.273,2.7,2.7,0,0,1,.98.8V50.813h1.539V63h-1.18l-.234-1.07a2.743,2.743,0,0,1-1.023.922,3.058,3.058,0,0,1-1.414.313,2.9,2.9,0,0,1-2.422-1.121,4.659,4.659,0,0,1-.875-2.949Zm1.539.164a3.588,3.588,0,0,0,.523,2.051,1.828,1.828,0,0,0,1.625.77,2.039,2.039,0,0,0,1.156-.312,2.334,2.334,0,0,0,.766-.875V56.781a2.37,2.37,0,0,0-.77-.832,2.033,2.033,0,0,0-1.137-.309,1.759,1.759,0,0,0-1.637.914,4.718,4.718,0,0,0-.527,2.375ZM109.531,63q-.078-.383-.121-.676a4.96,4.96,0,0,1-.051-.59,3.589,3.589,0,0,1-1.121,1.02,2.867,2.867,0,0,1-1.488.41,2.763,2.763,0,0,1-2.012-.676,2.486,2.486,0,0,1-.691-1.863,2.183,2.183,0,0,1,.98-1.895,4.579,4.579,0,0,1,2.66-.684h1.672v-.836a1.551,1.551,0,0,0-.453-1.176,1.779,1.779,0,0,0-1.281-.434,1.859,1.859,0,0,0-1.211.375,1.125,1.125,0,0,0-.461.9l-1.461.016-.016-.047a2.023,2.023,0,0,1,.863-1.687,3.578,3.578,0,0,1,2.371-.766,3.49,3.49,0,0,1,2.313.73,2.588,2.588,0,0,1,.875,2.105V61.3a7.923,7.923,0,0,0,.047.875,4.5,4.5,0,0,0,.172.828Zm-2.555-1.125a2.739,2.739,0,0,0,1.508-.43,2.042,2.042,0,0,0,.875-.984V59.086h-1.727a2.24,2.24,0,0,0-1.488.469,1.4,1.4,0,0,0-.559,1.1,1.159,1.159,0,0,0,.352.891A1.472,1.472,0,0,0,106.977,61.875Zm5.8-2.945a5.641,5.641,0,0,1,.871-3.289,2.807,2.807,0,0,1,2.441-1.25,3.027,3.027,0,0,1,1.316.273,2.7,2.7,0,0,1,.98.8V50.813h1.539V63h-1.18l-.234-1.07a2.743,2.743,0,0,1-1.023.922,3.058,3.058,0,0,1-1.414.313,2.9,2.9,0,0,1-2.422-1.121,4.659,4.659,0,0,1-.875-2.949Zm1.539.164a3.588,3.588,0,0,0,.523,2.051,1.828,1.828,0,0,0,1.625.77,2.039,2.039,0,0,0,1.156-.312,2.334,2.334,0,0,0,.766-.875V56.781a2.37,2.37,0,0,0-.77-.832,2.033,2.033,0,0,0-1.137-.309,1.759,1.759,0,0,0-1.637.914,4.718,4.718,0,0,0-.527,2.375Zm9.25,3.531L122.4,65.016h-.914l.547-2.469V61.273h1.539ZM134.555,63q-.078-.383-.121-.676a4.96,4.96,0,0,1-.051-.59,3.588,3.588,0,0,1-1.121,1.02,2.867,2.867,0,0,1-1.488.41,2.763,2.763,0,0,1-2.012-.676,2.486,2.486,0,0,1-.691-1.863,2.183,2.183,0,0,1,.98-1.895,4.579,4.579,0,0,1,2.66-.684h1.672v-.836a1.551,1.551,0,0,0-.453-1.176,1.779,1.779,0,0,0-1.281-.434,1.859,1.859,0,0,0-1.211.375,1.125,1.125,0,0,0-.461.9l-1.461.016-.016-.047a2.023,2.023,0,0,1,.863-1.687,3.578,3.578,0,0,1,2.371-.766,3.49,3.49,0,0,1,2.313.73,2.588,2.588,0,0,1,.875,2.105V61.3a7.923,7.923,0,0,0,.047.875,4.5,4.5,0,0,0,.172.828ZM132,61.875a2.739,2.739,0,0,0,1.508-.43,2.042,2.042,0,0,0,.875-.984V59.086h-1.727a2.24,2.24,0,0,0-1.488.469,1.4,1.4,0,0,0-.559,1.1,1.159,1.159,0,0,0,.352.891A1.472,1.472,0,0,0,132,61.875Zm7.531-7.328.109,1.258a3.069,3.069,0,0,1,1.059-1.043,2.824,2.824,0,0,1,1.449-.371,2.759,2.759,0,0,1,2.117.8,3.515,3.515,0,0,1,.75,2.473V63h-1.539V57.7a2.287,2.287,0,0,0-.441-1.586,1.768,1.768,0,0,0-1.348-.469,2.386,2.386,0,0,0-1.207.285,2.072,2.072,0,0,0-.785.8V63h-1.539V54.547ZM152.445,63q-.078-.383-.121-.676a4.96,4.96,0,0,1-.051-.59,3.588,3.588,0,0,1-1.121,1.02,2.867,2.867,0,0,1-1.488.41,2.763,2.763,0,0,1-2.012-.676,2.486,2.486,0,0,1-.691-1.863,2.183,2.183,0,0,1,.98-1.895,4.579,4.579,0,0,1,2.66-.684h1.672v-.836a1.551,1.551,0,0,0-.453-1.176,1.779,1.779,0,0,0-1.281-.434,1.859,1.859,0,0,0-1.211.375,1.125,1.125,0,0,0-.461.9l-1.461.016-.016-.047a2.023,2.023,0,0,1,.863-1.687,3.578,3.578,0,0,1,2.371-.766,3.49,3.49,0,0,1,2.313.73,2.588,2.588,0,0,1,.875,2.105V61.3a7.923,7.923,0,0,0,.047.875,4.5,4.5,0,0,0,.172.828Zm-2.555-1.125a2.739,2.739,0,0,0,1.508-.43,2.042,2.042,0,0,0,.875-.984V59.086h-1.727a2.24,2.24,0,0,0-1.488.469,1.4,1.4,0,0,0-.559,1.1,1.159,1.159,0,0,0,.352.891A1.472,1.472,0,0,0,149.891,61.875Zm1.32-10.914h1.8l.016.047-2.1,2.031h-1.156ZM157.711,63h-1.539V50.813h1.539Zm4.031,0H160.2V54.547h1.539Zm0-10.617H160.2v-1.57h1.539Zm7.281,8.344a1.026,1.026,0,0,0-.387-.828,3.732,3.732,0,0,0-1.465-.562,6.146,6.146,0,0,1-2.293-.9,1.814,1.814,0,0,1-.8-1.547,2.229,2.229,0,0,1,.879-1.766,3.879,3.879,0,0,1,4.605.047,2.239,2.239,0,0,1,.852,1.82l-.016.047H168.93a1.331,1.331,0,0,0-.48-.992,1.717,1.717,0,0,0-1.215-.445,1.751,1.751,0,0,0-1.215.367,1.146,1.146,0,0,0-.4.875.927.927,0,0,0,.348.773,3.848,3.848,0,0,0,1.434.5,6.058,6.058,0,0,1,2.359.93,1.872,1.872,0,0,1,.8,1.57,2.226,2.226,0,0,1-.91,1.836,3.754,3.754,0,0,1-2.379.711,3.715,3.715,0,0,1-2.547-.82,2.341,2.341,0,0,1-.883-1.914l.016-.047h1.469a1.424,1.424,0,0,0,.609,1.2,2.358,2.358,0,0,0,1.336.379,2.1,2.1,0,0,0,1.285-.348A1.063,1.063,0,0,0,169.023,60.727ZM174.141,63H172.6V54.547h1.539Zm0-10.617H172.6v-1.57h1.539Zm7.281,8.344a1.026,1.026,0,0,0-.387-.828,3.732,3.732,0,0,0-1.465-.562,6.146,6.146,0,0,1-2.293-.9,1.814,1.814,0,0,1-.8-1.547,2.229,2.229,0,0,1,.879-1.766,3.879,3.879,0,0,1,4.605.047,2.239,2.239,0,0,1,.852,1.82l-.016.047h-1.469a1.331,1.331,0,0,0-.48-.992,1.717,1.717,0,0,0-1.215-.445,1.751,1.751,0,0,0-1.215.367,1.146,1.146,0,0,0-.4.875.927.927,0,0,0,.348.773,3.848,3.848,0,0,0,1.434.5,6.058,6.058,0,0,1,2.359.93,1.872,1.872,0,0,1,.8,1.57,2.226,2.226,0,0,1-.91,1.836,3.754,3.754,0,0,1-2.379.711,3.715,3.715,0,0,1-2.547-.82,2.341,2.341,0,0,1-.883-1.914l.016-.047h1.469a1.424,1.424,0,0,0,.609,1.2,2.358,2.358,0,0,0,1.336.379,2.1,2.1,0,0,0,1.285-.348A1.063,1.063,0,0,0,181.422,60.727Zm10.016-.859.273,1.063h.047l2.078-6.383h1.711l-3.555,9.75a4.383,4.383,0,0,1-.918,1.484,2.113,2.113,0,0,1-1.613.633,3.362,3.362,0,0,1-.477-.043q-.289-.043-.445-.082l.156-1.211a2.061,2.061,0,0,1,.277.016q.324.023.41.023a.95.95,0,0,0,.8-.437,4.543,4.543,0,0,0,.523-.969l.367-.883-3.141-8.281h1.719ZM206.07,63q-.078-.383-.121-.676a4.96,4.96,0,0,1-.051-.59,3.588,3.588,0,0,1-1.121,1.02,2.867,2.867,0,0,1-1.488.41,2.763,2.763,0,0,1-2.012-.676,2.486,2.486,0,0,1-.691-1.863,2.183,2.183,0,0,1,.98-1.895,4.579,4.579,0,0,1,2.66-.684H205.9v-.836a1.551,1.551,0,0,0-.453-1.176,1.779,1.779,0,0,0-1.281-.434,1.859,1.859,0,0,0-1.211.375,1.125,1.125,0,0,0-.461.9l-1.461.016-.016-.047a2.023,2.023,0,0,1,.863-1.687,3.578,3.578,0,0,1,2.371-.766,3.49,3.49,0,0,1,2.313.73,2.588,2.588,0,0,1,.875,2.105V61.3a7.923,7.923,0,0,0,.047.875,4.5,4.5,0,0,0,.172.828Zm-2.555-1.125a2.739,2.739,0,0,0,1.508-.43,2.042,2.042,0,0,0,.875-.984V59.086h-1.727a2.24,2.24,0,0,0-1.488.469,1.4,1.4,0,0,0-.559,1.1,1.159,1.159,0,0,0,.352.891A1.472,1.472,0,0,0,203.516,61.875Zm5.8-2.945a5.641,5.641,0,0,1,.871-3.289,2.807,2.807,0,0,1,2.441-1.25,3.027,3.027,0,0,1,1.316.273,2.7,2.7,0,0,1,.98.8V50.813h1.539V63h-1.18l-.234-1.07a2.743,2.743,0,0,1-1.023.922,3.058,3.058,0,0,1-1.414.313,2.9,2.9,0,0,1-2.422-1.121,4.659,4.659,0,0,1-.875-2.949Zm1.539.164a3.588,3.588,0,0,0,.523,2.051,1.828,1.828,0,0,0,1.625.77,2.039,2.039,0,0,0,1.156-.312,2.334,2.334,0,0,0,.766-.875V56.781a2.37,2.37,0,0,0-.77-.832,2.033,2.033,0,0,0-1.137-.309,1.759,1.759,0,0,0-1.637.914,4.718,4.718,0,0,0-.527,2.375Zm9.281-4.547.109,1.109a2.871,2.871,0,0,1,1.051-.934,3.158,3.158,0,0,1,1.48-.332,2.615,2.615,0,0,1,1.449.391,2.363,2.363,0,0,1,.91,1.172,3.162,3.162,0,0,1,1.059-1.145,2.769,2.769,0,0,1,1.527-.418,2.531,2.531,0,0,1,2.039.887,4.051,4.051,0,0,1,.75,2.668V63h-1.539V57.93a2.81,2.81,0,0,0-.43-1.77,1.567,1.567,0,0,0-1.281-.52,1.631,1.631,0,0,0-1.277.547,2.381,2.381,0,0,0-.574,1.383V63h-1.547V57.93a2.772,2.772,0,0,0-.441-1.738,1.532,1.532,0,0,0-1.27-.551A2.115,2.115,0,0,0,221,55.93a1.867,1.867,0,0,0-.7.813V63h-1.539V54.547ZM234.414,63h-1.539V54.547h1.539Zm0-10.617h-1.539v-1.57h1.539Zm3.742,2.164.109,1.258a3.069,3.069,0,0,1,1.059-1.043,2.824,2.824,0,0,1,1.449-.371,2.759,2.759,0,0,1,2.117.8,3.515,3.515,0,0,1,.75,2.473V63H242.1V57.7a2.287,2.287,0,0,0-.441-1.586,1.768,1.768,0,0,0-1.348-.469,2.386,2.386,0,0,0-1.207.285,2.072,2.072,0,0,0-.785.8V63h-1.539V54.547ZM247.539,63H246V54.547h1.539Zm0-10.617H246v-1.57h1.539Zm7.281,8.344a1.026,1.026,0,0,0-.387-.828,3.732,3.732,0,0,0-1.465-.562,6.146,6.146,0,0,1-2.293-.9,1.814,1.814,0,0,1-.8-1.547,2.229,2.229,0,0,1,.879-1.766,3.879,3.879,0,0,1,4.605.047,2.239,2.239,0,0,1,.852,1.82l-.016.047h-1.469a1.331,1.331,0,0,0-.48-.992,1.717,1.717,0,0,0-1.215-.445,1.751,1.751,0,0,0-1.215.367,1.146,1.146,0,0,0-.4.875.927.927,0,0,0,.348.773,3.848,3.848,0,0,0,1.434.5,6.058,6.058,0,0,1,2.359.93,1.872,1.872,0,0,1,.8,1.57,2.226,2.226,0,0,1-.91,1.836,3.754,3.754,0,0,1-2.379.711,3.715,3.715,0,0,1-2.547-.82,2.341,2.341,0,0,1-.883-1.914l.016-.047h1.469a1.424,1.424,0,0,0,.609,1.2,2.358,2.358,0,0,0,1.336.379,2.1,2.1,0,0,0,1.285-.348A1.063,1.063,0,0,0,254.82,60.727Zm5.594-8.219v2.039h1.6v1.141h-1.6V60.82a1.149,1.149,0,0,0,.246.836.89.89,0,0,0,.652.242,1.43,1.43,0,0,0,.3-.035,2.2,2.2,0,0,0,.273-.074l.211,1.055a1.36,1.36,0,0,1-.508.23,2.562,2.562,0,0,1-.664.09,1.993,1.993,0,0,1-1.492-.566,2.46,2.46,0,0,1-.555-1.777V55.688h-1.344V54.547h1.344V52.508Zm7.25,3.4-.789-.047a1.762,1.762,0,0,0-1.027.289,1.854,1.854,0,0,0-.645.813V63h-1.539V54.547h1.375l.148,1.234a2.934,2.934,0,0,1,.887-1.023,2.073,2.073,0,0,1,1.215-.367,1.9,1.9,0,0,1,.328.027,2.176,2.176,0,0,1,.258.059Zm6.8,7.094q-.078-.383-.121-.676a4.96,4.96,0,0,1-.051-.59,3.589,3.589,0,0,1-1.121,1.02,2.867,2.867,0,0,1-1.488.41,2.763,2.763,0,0,1-2.012-.676,2.486,2.486,0,0,1-.691-1.863,2.183,2.183,0,0,1,.98-1.895,4.579,4.579,0,0,1,2.66-.684h1.672v-.836a1.551,1.551,0,0,0-.453-1.176,1.779,1.779,0,0,0-1.281-.434,1.859,1.859,0,0,0-1.211.375,1.125,1.125,0,0,0-.461.9l-1.461.016-.016-.047a2.023,2.023,0,0,1,.863-1.687,3.578,3.578,0,0,1,2.371-.766,3.49,3.49,0,0,1,2.313.73,2.588,2.588,0,0,1,.875,2.105V61.3a7.923,7.923,0,0,0,.047.875,4.5,4.5,0,0,0,.172.828Zm-2.555-1.125a2.739,2.739,0,0,0,1.508-.43,2.042,2.042,0,0,0,.875-.984V59.086h-1.727a2.24,2.24,0,0,0-1.488.469,1.4,1.4,0,0,0-.559,1.1,1.159,1.159,0,0,0,.352.891A1.472,1.472,0,0,0,271.906,61.875Zm9.516.086a1.81,1.81,0,0,0,1.242-.473,1.494,1.494,0,0,0,.531-1.16h1.391l.023.047a2.427,2.427,0,0,1-.937,1.941,3.582,3.582,0,0,1-5-.363,4.674,4.674,0,0,1-.969-3.016v-.328a4.654,4.654,0,0,1,.973-3,3.317,3.317,0,0,1,2.746-1.215,3.189,3.189,0,0,1,2.316.875,2.775,2.775,0,0,1,.871,2.148l-.016.047h-1.4a1.865,1.865,0,0,0-.5-1.316,1.658,1.658,0,0,0-1.27-.543,1.777,1.777,0,0,0-1.652.879,4.114,4.114,0,0,0-.52,2.129v.328a4.192,4.192,0,0,0,.512,2.148A1.776,1.776,0,0,0,281.422,61.961ZM288.1,63h-1.539V54.547H288.1Zm0-10.617h-1.539v-1.57H288.1Zm2.008,6.313a4.654,4.654,0,0,1,1.016-3.09,3.764,3.764,0,0,1,5.535,0,4.639,4.639,0,0,1,1.02,3.094v.172a4.631,4.631,0,0,1-1.016,3.094,3.781,3.781,0,0,1-5.535,0,4.623,4.623,0,0,1-1.02-3.09Zm1.539.172a4.009,4.009,0,0,0,.566,2.219,2.046,2.046,0,0,0,3.355,0,3.988,3.988,0,0,0,.57-2.219V58.7a3.976,3.976,0,0,0-.574-2.211,1.882,1.882,0,0,0-1.684-.883,1.856,1.856,0,0,0-1.668.883,4.018,4.018,0,0,0-.566,2.211Zm2.992-7.906h1.8l.016.047-2.1,2.031H293.2Zm6.3,3.586.109,1.258a3.069,3.069,0,0,1,1.059-1.043,2.824,2.824,0,0,1,1.449-.371,2.759,2.759,0,0,1,2.117.8,3.515,3.515,0,0,1,.75,2.473V63h-1.539V57.7a2.287,2.287,0,0,0-.441-1.586,1.768,1.768,0,0,0-1.348-.469,2.386,2.386,0,0,0-1.207.285,2.073,2.073,0,0,0-.785.8V63h-1.539V54.547Zm9.4,8.453H308.8V61.422h1.539Z" transform="translate(865 1403)" fill="#12263f"/>
    <path id="Trazado_887944" data-name="Trazado 887944" d="M-8148-10236.136h-59" transform="translate(8997 11697)" fill="none" stroke="#f0c518" stroke-width="1"/>
    <path id="Trazado_888951" data-name="Trazado 888951" d="M210.5,0C326.756,0,421,94.244,421,210.5S326.756,421,210.5,421,0,326.756,0,210.5,94.244,0,210.5,0Z" transform="translate(354 1231)" fill="#fff"/>
    <path id="Trazado_887936" data-name="Trazado 887936" d="M-8428.223-10403.672-8567-10320.5v133.9" transform="translate(8997 11697)" fill="none" stroke="#3a1d71" stroke-width="1"/>
    <path id="Trazado_887937" data-name="Trazado 887937" d="M-8567-10403.672l138.777,83.172v131" transform="translate(9133.223 11697)" fill="none" stroke="#3a1d71" stroke-width="1"/>
    <path id="Trazado_887938" data-name="Trazado 887938" d="M-8567-10403.672l138.777,83.172" transform="translate(8997 11912.672)" fill="none" stroke="#3a1d71" stroke-width="1"/>
    <path id="Trazado_887939" data-name="Trazado 887939" d="M-8428.223-10403.672-8567-10320.5" transform="translate(9133.223 11912.672)" fill="none" stroke="#3a1d71" stroke-width="1"/>
    <path id="Trazado_888952" data-name="Trazado 888952" d="M45,0A45,45,0,1,1,0,45,45,45,0,0,1,45,0Z" transform="translate(520 1256)" fill="#a854f3"/>
    <path id="Trazado_888953" data-name="Trazado 888953" d="M9.141-9.852H5.625V0h-1.9V-9.852H.266v-1.523H9.141Zm4.953,3.109-.812-.031a1.7,1.7,0,0,0-.926.234,1.544,1.544,0,0,0-.574.664V0h-1.9V-8.453h1.734l.125,1.227a2.711,2.711,0,0,1,.824-1.016,1.919,1.919,0,0,1,1.16-.367,1.769,1.769,0,0,1,.32.027,2.339,2.339,0,0,1,.273.066ZM20.594,0q-.1-.32-.168-.625a4.468,4.468,0,0,1-.09-.609,3.256,3.256,0,0,1-1.023,1,2.633,2.633,0,0,1-1.43.4,2.81,2.81,0,0,1-2.027-.68,2.468,2.468,0,0,1-.707-1.867,2.206,2.206,0,0,1,.969-1.91,4.678,4.678,0,0,1,2.727-.684H20.32v-.742a1.38,1.38,0,0,0-.387-1.039,1.547,1.547,0,0,0-1.121-.375,1.6,1.6,0,0,0-1.031.309.981.981,0,0,0-.383.8l-1.828.008-.008-.047a2.094,2.094,0,0,1,.895-1.773,3.79,3.79,0,0,1,2.473-.773,3.616,3.616,0,0,1,2.383.75A2.64,2.64,0,0,1,22.219-5.7v3.758a6.93,6.93,0,0,0,.07,1A5.331,5.331,0,0,0,22.516,0Zm-2.32-1.359a2.373,2.373,0,0,0,1.285-.359,1.81,1.81,0,0,0,.762-.82v-1.25H18.813a1.9,1.9,0,0,0-1.3.41,1.246,1.246,0,0,0-.469.965.984.984,0,0,0,.316.77A1.315,1.315,0,0,0,18.273-1.359Zm7.648-7.094.109,1.219a3.023,3.023,0,0,1,1.043-1.012,2.783,2.783,0,0,1,1.418-.363,2.64,2.64,0,0,1,2.059.813,3.692,3.692,0,0,1,.738,2.539V0h-1.9V-5.242a2.042,2.042,0,0,0-.383-1.4,1.5,1.5,0,0,0-1.156-.414,2.267,2.267,0,0,0-1.055.23,1.847,1.847,0,0,0-.711.637V0h-1.9V-8.453ZM38.016-2.312a.875.875,0,0,0-.371-.723,3.838,3.838,0,0,0-1.4-.512,5.7,5.7,0,0,1-2.281-.9,1.893,1.893,0,0,1-.789-1.594,2.3,2.3,0,0,1,.9-1.816,3.56,3.56,0,0,1,2.367-.754,3.671,3.671,0,0,1,2.441.777,2.252,2.252,0,0,1,.887,1.871l-.016.047H37.93a1.185,1.185,0,0,0-.406-.895,1.528,1.528,0,0,0-1.086-.379,1.552,1.552,0,0,0-1.047.313.977.977,0,0,0-.359.766.823.823,0,0,0,.336.688,3.682,3.682,0,0,0,1.383.461,5.727,5.727,0,0,1,2.344.918,1.939,1.939,0,0,1,.789,1.621,2.246,2.246,0,0,1-.941,1.863,3.965,3.965,0,0,1-2.48.723,3.786,3.786,0,0,1-2.6-.844,2.383,2.383,0,0,1-.906-1.937l.016-.047h1.766a1.266,1.266,0,0,0,.531,1.07,2.135,2.135,0,0,0,1.219.336,1.909,1.909,0,0,0,1.129-.289A.9.9,0,0,0,38.016-2.312ZM48.992-3.945a4.766,4.766,0,0,1-.867,2.977A2.868,2.868,0,0,1,45.711.164a2.99,2.99,0,0,1-1.273-.258,2.62,2.62,0,0,1-.953-.758v4.1h-1.9v-11.7h1.6l.188,1.063a2.819,2.819,0,0,1,.98-.906,2.743,2.743,0,0,1,1.332-.312,2.807,2.807,0,0,1,2.434,1.238,5.556,5.556,0,0,1,.871,3.262ZM47.1-4.109a4.118,4.118,0,0,0-.488-2.121,1.588,1.588,0,0,0-1.457-.824,1.893,1.893,0,0,0-1.008.254,1.869,1.869,0,0,0-.664.707v3.82a1.766,1.766,0,0,0,.664.684,2.024,2.024,0,0,0,1.023.238,1.629,1.629,0,0,0,1.449-.715,3.312,3.312,0,0,0,.48-1.879Zm3.2-.2a4.59,4.59,0,0,1,1.035-3.1,3.535,3.535,0,0,1,2.832-1.207A3.562,3.562,0,0,1,57.02-7.4a4.59,4.59,0,0,1,1.035,3.1v.164A4.583,4.583,0,0,1,57.02-1.035a3.555,3.555,0,0,1-2.84,1.2,3.558,3.558,0,0,1-2.848-1.2,4.587,4.587,0,0,1-1.035-3.1Zm1.9.164a3.75,3.75,0,0,0,.484,2.016,1.645,1.645,0,0,0,1.5.773,1.648,1.648,0,0,0,1.488-.777,3.684,3.684,0,0,0,.5-2.012V-4.3a3.676,3.676,0,0,0-.5-2,1.658,1.658,0,0,0-1.5-.785,1.626,1.626,0,0,0-1.48.785,3.722,3.722,0,0,0-.488,2Zm11.727-2.6-.812-.031a1.7,1.7,0,0,0-.926.234,1.544,1.544,0,0,0-.574.664V0h-1.9V-8.453h1.734l.125,1.227a2.711,2.711,0,0,1,.824-1.016,1.919,1.919,0,0,1,1.16-.367,1.769,1.769,0,0,1,.32.027,2.339,2.339,0,0,1,.273.066Zm3.969-3.766v2.055h1.516v1.406H67.891v4.672a1.019,1.019,0,0,0,.227.746.821.821,0,0,0,.6.223,1.679,1.679,0,0,0,.3-.027,1.852,1.852,0,0,0,.281-.074l.2,1.391a2.181,2.181,0,0,1-.574.207,3.161,3.161,0,0,1-.691.074A2.19,2.19,0,0,1,66.6-.449,2.674,2.674,0,0,1,66-2.375V-7.047H64.711V-8.453H66v-2.055ZM74.523.164A3.681,3.681,0,0,1,71.629-1a4.374,4.374,0,0,1-1.043-3.027v-.312A4.522,4.522,0,0,1,71.629-7.41a3.37,3.37,0,0,1,2.691-1.2A3.163,3.163,0,0,1,76.9-7.559a4.249,4.249,0,0,1,.875,2.809v1.023H72.547l-.016.039A2.77,2.77,0,0,0,73.078-2a1.866,1.866,0,0,0,1.555.648,4.277,4.277,0,0,0,1.34-.187,3.825,3.825,0,0,0,1.051-.539l.617,1.242a4.023,4.023,0,0,1-1.281.711A5.37,5.37,0,0,1,74.523.164Zm-.2-7.25a1.467,1.467,0,0,0-1.187.535,2.652,2.652,0,0,0-.555,1.395l.016.039h3.3v-.148a2.134,2.134,0,0,0-.379-1.316A1.4,1.4,0,0,0,74.32-7.086Z" transform="translate(527 1306)" fill="#fff"/>
    <path id="Trazado_888954" data-name="Trazado 888954" d="M45,0A45,45,0,1,1,0,45,45,45,0,0,1,45,0Z" transform="translate(520 1541)" fill="#a854f3"/>
    <path id="Trazado_888955" data-name="Trazado 888955" d="M7.547-5.117H3.094v3.6h5.25V0H1.2V-11.375H8.289v1.523h-5.2v3.211H7.547Zm5.609,3.766a1.577,1.577,0,0,0,1.1-.406A1.33,1.33,0,0,0,14.7-2.789h1.719l.016.047A2.549,2.549,0,0,1,15.5-.7a3.413,3.413,0,0,1-2.34.859,3.444,3.444,0,0,1-2.82-1.207,4.633,4.633,0,0,1-.992-3.043v-.273A4.637,4.637,0,0,1,10.336-7.4a3.43,3.43,0,0,1,2.813-1.211,3.316,3.316,0,0,1,2.4.887,2.894,2.894,0,0,1,.891,2.254l-.016.047H14.7a1.715,1.715,0,0,0-.43-1.18,1.432,1.432,0,0,0-1.125-.484,1.549,1.549,0,0,0-1.461.785,3.885,3.885,0,0,0-.445,1.941v.273a3.921,3.921,0,0,0,.441,1.957A1.558,1.558,0,0,0,13.156-1.352ZM17.68-4.3a4.59,4.59,0,0,1,1.035-3.1,3.535,3.535,0,0,1,2.832-1.207A3.562,3.562,0,0,1,24.4-7.4a4.59,4.59,0,0,1,1.035,3.1v.164A4.583,4.583,0,0,1,24.4-1.035a3.555,3.555,0,0,1-2.84,1.2,3.558,3.558,0,0,1-2.848-1.2,4.587,4.587,0,0,1-1.035-3.1Zm1.9.164a3.75,3.75,0,0,0,.484,2.016,1.645,1.645,0,0,0,1.5.773,1.648,1.648,0,0,0,1.488-.777,3.684,3.684,0,0,0,.5-2.012V-4.3a3.676,3.676,0,0,0-.5-2,1.658,1.658,0,0,0-1.5-.785,1.626,1.626,0,0,0-1.48.785,3.722,3.722,0,0,0-.488,2ZM29.117,0h-1.9V-12.187h1.9Zm1.773-4.3a4.59,4.59,0,0,1,1.035-3.1,3.535,3.535,0,0,1,2.832-1.207A3.562,3.562,0,0,1,37.613-7.4a4.59,4.59,0,0,1,1.035,3.1v.164a4.583,4.583,0,0,1-1.035,3.105,3.555,3.555,0,0,1-2.84,1.2,3.558,3.558,0,0,1-2.848-1.2,4.587,4.587,0,0,1-1.035-3.1Zm1.9.164a3.75,3.75,0,0,0,.484,2.016,1.645,1.645,0,0,0,1.5.773,1.648,1.648,0,0,0,1.488-.777,3.684,3.684,0,0,0,.5-2.012V-4.3a3.676,3.676,0,0,0-.5-2,1.658,1.658,0,0,0-1.5-.785,1.626,1.626,0,0,0-1.48.785,3.722,3.722,0,0,0-.488,2Zm2.578-7.914h2.148l.016.047L35.4-9.977H33.875Zm4.641,7.945a5.574,5.574,0,0,1,.867-3.262,2.8,2.8,0,0,1,2.438-1.238,2.663,2.663,0,0,1,1.332.324,2.815,2.815,0,0,1,.973.934l.188-1.1h1.578V0a3.19,3.19,0,0,1-1.008,2.523,4.179,4.179,0,0,1-2.859.891,5.6,5.6,0,0,1-1.332-.176,6.188,6.188,0,0,1-1.293-.465l.3-1.492a4.81,4.81,0,0,0,1.082.379A5.465,5.465,0,0,0,43.5,1.8a2.169,2.169,0,0,0,1.508-.441A1.762,1.762,0,0,0,45.484,0V-.867a2.656,2.656,0,0,1-.941.77A2.836,2.836,0,0,1,43.3.164,2.876,2.876,0,0,1,40.875-.969a4.766,4.766,0,0,1-.867-2.977Zm1.891.164a3.381,3.381,0,0,0,.453,1.867,1.583,1.583,0,0,0,1.43.7,1.945,1.945,0,0,0,1.027-.254,1.874,1.874,0,0,0,.676-.73v-3.7a2.029,2.029,0,0,0-.684-.723,1.854,1.854,0,0,0-1-.262,1.537,1.537,0,0,0-1.437.816A4.308,4.308,0,0,0,41.9-4.109ZM51.391,0h-1.9V-8.453h1.9Zm0-10.523h-1.9v-1.664h1.9Zm5.57,9.172a1.577,1.577,0,0,0,1.1-.406,1.33,1.33,0,0,0,.449-1.031h1.719l.016.047A2.549,2.549,0,0,1,59.3-.7a3.413,3.413,0,0,1-2.34.859,3.444,3.444,0,0,1-2.82-1.207,4.633,4.633,0,0,1-.992-3.043v-.273A4.637,4.637,0,0,1,54.141-7.4a3.43,3.43,0,0,1,2.813-1.211,3.316,3.316,0,0,1,2.4.887,2.894,2.894,0,0,1,.891,2.254l-.016.047H58.508a1.715,1.715,0,0,0-.43-1.18,1.432,1.432,0,0,0-1.125-.484,1.549,1.549,0,0,0-1.461.785,3.885,3.885,0,0,0-.445,1.941v.273a3.921,3.921,0,0,0,.441,1.957A1.558,1.558,0,0,0,56.961-1.352ZM61.484-4.3A4.59,4.59,0,0,1,62.52-7.4a3.535,3.535,0,0,1,2.832-1.207A3.562,3.562,0,0,1,68.207-7.4a4.59,4.59,0,0,1,1.035,3.1v.164a4.583,4.583,0,0,1-1.035,3.105,3.555,3.555,0,0,1-2.84,1.2,3.558,3.558,0,0,1-2.848-1.2,4.587,4.587,0,0,1-1.035-3.1Zm1.9.164a3.75,3.75,0,0,0,.484,2.016,1.645,1.645,0,0,0,1.5.773,1.648,1.648,0,0,0,1.488-.777,3.684,3.684,0,0,0,.5-2.012V-4.3a3.676,3.676,0,0,0-.5-2,1.658,1.658,0,0,0-1.5-.785,1.626,1.626,0,0,0-1.48.785,3.722,3.722,0,0,0-.488,2Z" transform="translate(530 1592)" fill="#fff"/>
    <path id="Trazado_887940" data-name="Trazado 887940" d="M-8562.967-10319-8292-10187.285" transform="translate(8997 11697)" fill="none" stroke="#3a1d71" stroke-width="1"/>
    <path id="Trazado_888956" data-name="Trazado 888956" d="M45,0A45,45,0,1,1,0,45,45,45,0,0,1,45,0Z" transform="translate(385 1333)" fill="#a854f3"/>
    <path id="Trazado_888957" data-name="Trazado 888957" d="M-29.68-5.117h-4.453v3.6h5.25V0h-7.148V-11.375h7.094v1.523h-5.2v3.211h4.453Zm1.813,1.008A5.574,5.574,0,0,1-27-7.371a2.8,2.8,0,0,1,2.438-1.238,2.666,2.666,0,0,1,1.23.277,2.785,2.785,0,0,1,.941.793v-4.648h1.9V0h-1.539l-.227-1.07a2.82,2.82,0,0,1-.984.918,2.738,2.738,0,0,1-1.336.316A2.876,2.876,0,0,1-27-.969a4.766,4.766,0,0,1-.867-2.977Zm1.9.164a3.4,3.4,0,0,0,.449,1.867,1.573,1.573,0,0,0,1.426.7,1.906,1.906,0,0,0,1.02-.258,1.963,1.963,0,0,0,.684-.734V-6.062a2,2,0,0,0-.687-.73,1.859,1.859,0,0,0-1-.262,1.531,1.531,0,0,0-1.43.816,4.308,4.308,0,0,0-.461,2.129Zm12.789,2.7a2.836,2.836,0,0,1-1,1.047A2.707,2.707,0,0,1-15.6.164,2.647,2.647,0,0,1-17.727-.73a4.206,4.206,0,0,1-.766-2.777V-8.453H-16.6v4.961a2.825,2.825,0,0,0,.352,1.66,1.3,1.3,0,0,0,1.094.449A2.442,2.442,0,0,0-14-1.629a1.787,1.787,0,0,0,.73-.715V-8.453h1.9V0h-1.633Zm7.234-.1a1.577,1.577,0,0,0,1.1-.406A1.33,1.33,0,0,0-4.4-2.789H-2.68l.016.047A2.549,2.549,0,0,1-3.605-.7a3.413,3.413,0,0,1-2.34.859,3.444,3.444,0,0,1-2.82-1.207,4.633,4.633,0,0,1-.992-3.043v-.273A4.637,4.637,0,0,1-8.766-7.4,3.43,3.43,0,0,1-5.953-8.609a3.316,3.316,0,0,1,2.4.887,2.894,2.894,0,0,1,.891,2.254l-.016.047H-4.4a1.715,1.715,0,0,0-.43-1.18,1.432,1.432,0,0,0-1.125-.484A1.549,1.549,0,0,0-7.414-6.3a3.885,3.885,0,0,0-.445,1.941v.273a3.921,3.921,0,0,0,.441,1.957A1.558,1.558,0,0,0-5.945-1.352ZM4.023,0q-.1-.32-.168-.625a4.468,4.468,0,0,1-.09-.609,3.256,3.256,0,0,1-1.023,1,2.633,2.633,0,0,1-1.43.4A2.81,2.81,0,0,1-.715-.516a2.468,2.468,0,0,1-.707-1.867,2.206,2.206,0,0,1,.969-1.91,4.678,4.678,0,0,1,2.727-.684H3.75v-.742a1.38,1.38,0,0,0-.387-1.039,1.547,1.547,0,0,0-1.121-.375,1.6,1.6,0,0,0-1.031.309.981.981,0,0,0-.383.8L-1-6.016l-.008-.047A2.094,2.094,0,0,1-.113-7.836a3.79,3.79,0,0,1,2.473-.773,3.616,3.616,0,0,1,2.383.75A2.64,2.64,0,0,1,5.648-5.7v3.758a6.93,6.93,0,0,0,.07,1A5.331,5.331,0,0,0,5.945,0ZM1.7-1.359a2.373,2.373,0,0,0,1.285-.359,1.81,1.81,0,0,0,.762-.82v-1.25H2.242a1.9,1.9,0,0,0-1.3.41,1.246,1.246,0,0,0-.469.965.984.984,0,0,0,.316.77A1.315,1.315,0,0,0,1.7-1.359Zm9.375.008a1.577,1.577,0,0,0,1.1-.406,1.33,1.33,0,0,0,.449-1.031h1.719l.016.047A2.549,2.549,0,0,1,13.418-.7a3.413,3.413,0,0,1-2.34.859,3.444,3.444,0,0,1-2.82-1.207,4.633,4.633,0,0,1-.992-3.043v-.273A4.637,4.637,0,0,1,8.258-7.4,3.43,3.43,0,0,1,11.07-8.609a3.316,3.316,0,0,1,2.4.887,2.894,2.894,0,0,1,.891,2.254l-.016.047H12.625A1.715,1.715,0,0,0,12.2-6.6a1.432,1.432,0,0,0-1.125-.484A1.549,1.549,0,0,0,9.609-6.3a3.885,3.885,0,0,0-.445,1.941v.273a3.921,3.921,0,0,0,.441,1.957A1.558,1.558,0,0,0,11.078-1.352ZM17.977,0h-1.9V-8.453h1.9Zm0-10.523h-1.9v-1.664h1.9ZM19.75-4.3a4.59,4.59,0,0,1,1.035-3.1,3.535,3.535,0,0,1,2.832-1.207A3.562,3.562,0,0,1,26.473-7.4a4.59,4.59,0,0,1,1.035,3.1v.164a4.583,4.583,0,0,1-1.035,3.105,3.555,3.555,0,0,1-2.84,1.2,3.558,3.558,0,0,1-2.848-1.2,4.587,4.587,0,0,1-1.035-3.1Zm1.9.164a3.75,3.75,0,0,0,.484,2.016,1.645,1.645,0,0,0,1.5.773,1.648,1.648,0,0,0,1.488-.777,3.684,3.684,0,0,0,.5-2.012V-4.3a3.676,3.676,0,0,0-.5-2,1.658,1.658,0,0,0-1.5-.785,1.626,1.626,0,0,0-1.48.785,3.722,3.722,0,0,0-.488,2Zm2.578-7.914h2.148l.016.047L24.258-9.977H22.734Zm6.656,3.6.109,1.219a3.023,3.023,0,0,1,1.043-1.012,2.783,2.783,0,0,1,1.418-.363,2.64,2.64,0,0,1,2.059.813,3.692,3.692,0,0,1,.738,2.539V0h-1.9V-5.242a2.042,2.042,0,0,0-.383-1.4,1.5,1.5,0,0,0-1.156-.414,2.267,2.267,0,0,0-1.055.23,1.847,1.847,0,0,0-.711.637V0h-1.9V-8.453Z" transform="translate(430 1382)" fill="#fff"/>
    <path id="Trazado_888958" data-name="Trazado 888958" d="M45,0A45,45,0,1,1,0,45,45,45,0,0,1,45,0Z" transform="translate(653 1456)" fill="#a854f3"/>
    <path id="Trazado_888959" data-name="Trazado 888959" d="M10.133-4.664A4.807,4.807,0,0,1,8.824-1.207,4.491,4.491,0,0,1,5.422.164,4.337,4.337,0,0,1,2.1-1.207,4.865,4.865,0,0,1,.82-4.664V-6.711A4.877,4.877,0,0,1,2.1-10.164a4.328,4.328,0,0,1,3.324-1.375,4.487,4.487,0,0,1,3.4,1.375,4.8,4.8,0,0,1,1.313,3.453Zm-1.9-2.062a3.538,3.538,0,0,0-.758-2.336,2.529,2.529,0,0,0-2.055-.914,2.387,2.387,0,0,0-1.98.914,3.652,3.652,0,0,0-.723,2.336v2.063a3.68,3.68,0,0,0,.727,2.355,2.386,2.386,0,0,0,1.977.918A2.526,2.526,0,0,0,7.48-2.3a3.586,3.586,0,0,0,.754-2.359Zm6.148-3.781v2.055H15.9v1.406H14.383v4.672a1.019,1.019,0,0,0,.227.746.821.821,0,0,0,.6.223,1.679,1.679,0,0,0,.3-.027,1.852,1.852,0,0,0,.281-.074L16-.117a2.181,2.181,0,0,1-.574.207,3.161,3.161,0,0,1-.691.074A2.19,2.19,0,0,1,13.09-.449a2.674,2.674,0,0,1-.6-1.926V-7.047H11.2V-8.453h1.289v-2.055Zm7.258,3.766-.812-.031a1.7,1.7,0,0,0-.926.234,1.544,1.544,0,0,0-.574.664V0h-1.9V-8.453h1.734l.125,1.227a2.711,2.711,0,0,1,.824-1.016,1.919,1.919,0,0,1,1.16-.367,1.769,1.769,0,0,1,.32.027,2.339,2.339,0,0,1,.273.066Zm.9,2.438a4.59,4.59,0,0,1,1.035-3.1,3.535,3.535,0,0,1,2.832-1.207A3.562,3.562,0,0,1,29.262-7.4,4.59,4.59,0,0,1,30.3-4.3v.164a4.583,4.583,0,0,1-1.035,3.105,3.555,3.555,0,0,1-2.84,1.2,3.558,3.558,0,0,1-2.848-1.2,4.587,4.587,0,0,1-1.035-3.1Zm1.9.164a3.75,3.75,0,0,0,.484,2.016,1.645,1.645,0,0,0,1.5.773,1.648,1.648,0,0,0,1.488-.777,3.684,3.684,0,0,0,.5-2.012V-4.3a3.676,3.676,0,0,0-.5-2,1.658,1.658,0,0,0-1.5-.785,1.626,1.626,0,0,0-1.48.785,3.722,3.722,0,0,0-.488,2ZM36.7-2.312a.875.875,0,0,0-.371-.723,3.838,3.838,0,0,0-1.4-.512,5.7,5.7,0,0,1-2.281-.9,1.893,1.893,0,0,1-.789-1.594,2.3,2.3,0,0,1,.9-1.816,3.56,3.56,0,0,1,2.367-.754,3.671,3.671,0,0,1,2.441.777,2.252,2.252,0,0,1,.887,1.871l-.016.047h-1.82a1.185,1.185,0,0,0-.406-.895,1.528,1.528,0,0,0-1.086-.379,1.552,1.552,0,0,0-1.047.313.977.977,0,0,0-.359.766.823.823,0,0,0,.336.688,3.682,3.682,0,0,0,1.383.461,5.727,5.727,0,0,1,2.344.918,1.939,1.939,0,0,1,.789,1.621,2.246,2.246,0,0,1-.941,1.863,3.965,3.965,0,0,1-2.48.723,3.786,3.786,0,0,1-2.6-.844,2.383,2.383,0,0,1-.906-1.937l.016-.047h1.766a1.266,1.266,0,0,0,.531,1.07,2.135,2.135,0,0,0,1.219.336A1.909,1.909,0,0,0,36.3-1.547.9.9,0,0,0,36.7-2.312Z" transform="translate(679 1505)" fill="#fff"/>
    <path id="Trazado_887941" data-name="Trazado 887941" d="M-8292-10319l-270.967,131.715" transform="translate(8997 11697)" fill="none" stroke="#3a1d71" stroke-width="1"/>
    <path id="Trazado_888960" data-name="Trazado 888960" d="M45,0A45,45,0,1,1,0,45,45,45,0,0,1,45,0Z" transform="translate(385 1456)" fill="#a854f3"/>
    <path id="Trazado_888961" data-name="Trazado 888961" d="M-34.5-4.312V0h-1.9V-11.375h4.359a4.214,4.214,0,0,1,2.949.973,3.3,3.3,0,0,1,1.066,2.559A3.293,3.293,0,0,1-29.09-5.277a4.236,4.236,0,0,1-2.949.965Zm0-1.523h2.461A2.081,2.081,0,0,0-30.453-6.4a2,2,0,0,0,.531-1.43,2.055,2.055,0,0,0-.531-1.445,2.049,2.049,0,0,0-1.586-.578H-34.5ZM-21.4,0q-.1-.32-.168-.625a4.468,4.468,0,0,1-.09-.609,3.256,3.256,0,0,1-1.023,1,2.633,2.633,0,0,1-1.43.4,2.81,2.81,0,0,1-2.027-.68,2.468,2.468,0,0,1-.707-1.867,2.206,2.206,0,0,1,.969-1.91,4.678,4.678,0,0,1,2.727-.684h1.477v-.742a1.38,1.38,0,0,0-.387-1.039,1.547,1.547,0,0,0-1.121-.375,1.6,1.6,0,0,0-1.031.309.981.981,0,0,0-.383.8l-1.828.008-.008-.047a2.094,2.094,0,0,1,.895-1.773,3.79,3.79,0,0,1,2.473-.773,3.616,3.616,0,0,1,2.383.75A2.64,2.64,0,0,1-19.773-5.7v3.758a6.93,6.93,0,0,0,.07,1A5.331,5.331,0,0,0-19.477,0Zm-2.32-1.359a2.373,2.373,0,0,0,1.285-.359,1.81,1.81,0,0,0,.762-.82v-1.25H-23.18a1.9,1.9,0,0,0-1.3.41,1.246,1.246,0,0,0-.469.965.984.984,0,0,0,.316.77A1.315,1.315,0,0,0-23.719-1.359Zm1.133-10.7h2.148l.016.047-2.133,2.031h-1.523Zm4.5,7.945a5.574,5.574,0,0,1,.867-3.262,2.8,2.8,0,0,1,2.438-1.238,2.663,2.663,0,0,1,1.332.324,2.815,2.815,0,0,1,.973.934l.188-1.1h1.578V0a3.19,3.19,0,0,1-1.008,2.523,4.179,4.179,0,0,1-2.859.891,5.6,5.6,0,0,1-1.332-.176A6.188,6.188,0,0,1-17.2,2.773l.3-1.492a4.81,4.81,0,0,0,1.082.379,5.465,5.465,0,0,0,1.223.137,2.169,2.169,0,0,0,1.508-.441A1.762,1.762,0,0,0-12.609,0V-.867a2.656,2.656,0,0,1-.941.77A2.836,2.836,0,0,1-14.8.164,2.876,2.876,0,0,1-17.219-.969a4.766,4.766,0,0,1-.867-2.977Zm1.891.164a3.381,3.381,0,0,0,.453,1.867,1.583,1.583,0,0,0,1.43.7,1.945,1.945,0,0,0,1.027-.254,1.874,1.874,0,0,0,.676-.73v-3.7a2.029,2.029,0,0,0-.684-.723,1.854,1.854,0,0,0-1-.262,1.537,1.537,0,0,0-1.437.816A4.308,4.308,0,0,0-16.2-4.109ZM-6.7,0H-8.6V-8.453h1.9Zm0-10.523H-8.6v-1.664h1.9Zm3.844,2.07.109,1.219A3.023,3.023,0,0,1-1.707-8.246,2.783,2.783,0,0,1-.289-8.609,2.64,2.64,0,0,1,1.77-7.8a3.692,3.692,0,0,1,.738,2.539V0H.609V-5.242a2.042,2.042,0,0,0-.383-1.4A1.5,1.5,0,0,0-.93-7.055a2.267,2.267,0,0,0-1.055.23,1.847,1.847,0,0,0-.711.637V0h-1.9V-8.453ZM9.578,0q-.1-.32-.168-.625a4.468,4.468,0,0,1-.09-.609,3.256,3.256,0,0,1-1.023,1,2.633,2.633,0,0,1-1.43.4A2.81,2.81,0,0,1,4.84-.516a2.468,2.468,0,0,1-.707-1.867A2.206,2.206,0,0,1,5.1-4.293a4.678,4.678,0,0,1,2.727-.684H9.3v-.742a1.38,1.38,0,0,0-.387-1.039A1.547,1.547,0,0,0,7.8-7.133a1.6,1.6,0,0,0-1.031.309.981.981,0,0,0-.383.8l-1.828.008-.008-.047a2.094,2.094,0,0,1,.895-1.773,3.79,3.79,0,0,1,2.473-.773,3.617,3.617,0,0,1,2.383.75A2.64,2.64,0,0,1,11.2-5.7v3.758a6.93,6.93,0,0,0,.07,1A5.331,5.331,0,0,0,11.5,0ZM7.258-1.359a2.373,2.373,0,0,0,1.285-.359,1.81,1.81,0,0,0,.762-.82v-1.25H7.8a1.9,1.9,0,0,0-1.3.41,1.246,1.246,0,0,0-.469.965.984.984,0,0,0,.316.77A1.315,1.315,0,0,0,7.258-1.359Zm9.563-2.75a5.574,5.574,0,0,1,.867-3.262,2.8,2.8,0,0,1,2.438-1.238,2.666,2.666,0,0,1,1.23.277,2.785,2.785,0,0,1,.941.793v-4.648h1.9V0H22.656L22.43-1.07a2.82,2.82,0,0,1-.984.918,2.738,2.738,0,0,1-1.336.316A2.876,2.876,0,0,1,17.688-.969a4.766,4.766,0,0,1-.867-2.977Zm1.9.164a3.4,3.4,0,0,0,.449,1.867,1.573,1.573,0,0,0,1.426.7,1.906,1.906,0,0,0,1.02-.258,1.963,1.963,0,0,0,.684-.734V-6.062a2,2,0,0,0-.687-.73,1.859,1.859,0,0,0-1-.262,1.531,1.531,0,0,0-1.43.816,4.308,4.308,0,0,0-.461,2.129ZM29.82.164A3.681,3.681,0,0,1,26.926-1a4.374,4.374,0,0,1-1.043-3.027v-.312A4.522,4.522,0,0,1,26.926-7.41a3.37,3.37,0,0,1,2.691-1.2A3.163,3.163,0,0,1,32.2-7.559,4.249,4.249,0,0,1,33.07-4.75v1.023H27.844l-.016.039A2.77,2.77,0,0,0,28.375-2a1.866,1.866,0,0,0,1.555.648,4.277,4.277,0,0,0,1.34-.187,3.825,3.825,0,0,0,1.051-.539l.617,1.242a4.023,4.023,0,0,1-1.281.711A5.37,5.37,0,0,1,29.82.164Zm-.2-7.25a1.467,1.467,0,0,0-1.187.535,2.652,2.652,0,0,0-.555,1.395l.016.039h3.3v-.148a2.134,2.134,0,0,0-.379-1.316A1.4,1.4,0,0,0,29.617-7.086ZM-16.422,24h-1.9V12.625h1.9Zm4.07-8.453.109,1.219A3.024,3.024,0,0,1-11.2,15.754a2.783,2.783,0,0,1,1.418-.363,2.64,2.64,0,0,1,2.059.813,3.692,3.692,0,0,1,.738,2.539V24h-1.9V18.758a2.042,2.042,0,0,0-.383-1.4,1.5,1.5,0,0,0-1.156-.414,2.267,2.267,0,0,0-1.055.23,1.847,1.847,0,0,0-.711.637V24h-1.9V15.547ZM-2.984,24h-1.9V15.547h1.9Zm0-10.523h-1.9V11.813h1.9Zm5.57,9.172a1.577,1.577,0,0,0,1.1-.406,1.33,1.33,0,0,0,.449-1.031H5.852l.016.047A2.549,2.549,0,0,1,4.926,23.3a3.413,3.413,0,0,1-2.34.859,3.444,3.444,0,0,1-2.82-1.207,4.633,4.633,0,0,1-.992-3.043v-.273A4.637,4.637,0,0,1-.234,16.6a3.43,3.43,0,0,1,2.813-1.211,3.316,3.316,0,0,1,2.4.887,2.894,2.894,0,0,1,.891,2.254l-.016.047H4.133A1.715,1.715,0,0,0,3.7,17.4a1.432,1.432,0,0,0-1.125-.484,1.549,1.549,0,0,0-1.461.785,3.885,3.885,0,0,0-.445,1.941v.273a3.921,3.921,0,0,0,.441,1.957A1.558,1.558,0,0,0,2.586,22.648ZM9.484,24h-1.9V15.547h1.9Zm0-10.523h-1.9V11.813h1.9ZM11.258,19.7a4.59,4.59,0,0,1,1.035-3.1,3.535,3.535,0,0,1,2.832-1.207A3.562,3.562,0,0,1,17.98,16.6a4.59,4.59,0,0,1,1.035,3.1v.164a4.583,4.583,0,0,1-1.035,3.105,3.555,3.555,0,0,1-2.84,1.2,3.558,3.558,0,0,1-2.848-1.2,4.587,4.587,0,0,1-1.035-3.1Zm1.9.164a3.75,3.75,0,0,0,.484,2.016,1.645,1.645,0,0,0,1.5.773,1.648,1.648,0,0,0,1.488-.777,3.684,3.684,0,0,0,.5-2.012V19.7a3.676,3.676,0,0,0-.5-2,1.658,1.658,0,0,0-1.5-.785,1.626,1.626,0,0,0-1.48.785,3.722,3.722,0,0,0-.488,2Z" transform="translate(433 1497)" fill="#fff"/>
    <path id="Trazado_888962" data-name="Trazado 888962" d="M45,0A45,45,0,1,1,0,45,45,45,0,0,1,45,0Z" transform="translate(653 1333)" fill="#a854f3"/>
    <path id="Trazado_888963" data-name="Trazado 888963" d="M7.547-5.117H3.094v3.6h5.25V0H1.2V-11.375H8.289v1.523h-5.2v3.211H7.547Zm4.031-3.336.109,1.219A3.024,3.024,0,0,1,12.73-8.246a2.783,2.783,0,0,1,1.418-.363,2.64,2.64,0,0,1,2.059.813,3.692,3.692,0,0,1,.738,2.539V0h-1.9V-5.242a2.042,2.042,0,0,0-.383-1.4,1.5,1.5,0,0,0-1.156-.414,2.267,2.267,0,0,0-1.055.23,1.847,1.847,0,0,0-.711.637V0h-1.9V-8.453ZM22.508.164A3.681,3.681,0,0,1,19.613-1,4.374,4.374,0,0,1,18.57-4.031v-.312A4.522,4.522,0,0,1,19.613-7.41a3.37,3.37,0,0,1,2.691-1.2,3.163,3.163,0,0,1,2.578,1.051,4.249,4.249,0,0,1,.875,2.809v1.023H20.531l-.016.039A2.77,2.77,0,0,0,21.063-2a1.866,1.866,0,0,0,1.555.648,4.277,4.277,0,0,0,1.34-.187,3.825,3.825,0,0,0,1.051-.539l.617,1.242a4.023,4.023,0,0,1-1.281.711A5.37,5.37,0,0,1,22.508.164Zm-.2-7.25a1.467,1.467,0,0,0-1.187.535,2.652,2.652,0,0,0-.555,1.395l.016.039h3.3v-.148A2.134,2.134,0,0,0,23.5-6.582,1.4,1.4,0,0,0,22.3-7.086Zm9.2.344L30.7-6.773a1.7,1.7,0,0,0-.926.234,1.544,1.544,0,0,0-.574.664V0H27.3V-8.453h1.734l.125,1.227a2.711,2.711,0,0,1,.824-1.016,1.919,1.919,0,0,1,1.16-.367,1.769,1.769,0,0,1,.32.027,2.339,2.339,0,0,1,.273.066Zm.961,2.633a5.574,5.574,0,0,1,.867-3.262,2.8,2.8,0,0,1,2.438-1.238,2.663,2.663,0,0,1,1.332.324,2.815,2.815,0,0,1,.973.934l.188-1.1h1.578V0a3.19,3.19,0,0,1-1.008,2.523,4.179,4.179,0,0,1-2.859.891,5.6,5.6,0,0,1-1.332-.176,6.188,6.188,0,0,1-1.293-.465l.3-1.492a4.81,4.81,0,0,0,1.082.379,5.465,5.465,0,0,0,1.223.137,2.169,2.169,0,0,0,1.508-.441A1.762,1.762,0,0,0,37.945,0V-.867A2.656,2.656,0,0,1,37-.1a2.836,2.836,0,0,1-1.246.262A2.876,2.876,0,0,1,33.336-.969a4.766,4.766,0,0,1-.867-2.977Zm1.891.164a3.381,3.381,0,0,0,.453,1.867,1.583,1.583,0,0,0,1.43.7,1.945,1.945,0,0,0,1.027-.254,1.874,1.874,0,0,0,.676-.73v-3.7a2.029,2.029,0,0,0-.684-.723,1.854,1.854,0,0,0-1-.262,1.537,1.537,0,0,0-1.437.816,4.308,4.308,0,0,0-.461,2.129ZM43.844,0h-1.9V-8.453h1.9ZM43.5-11.891h2.148l.016.047L43.531-9.812H42.008ZM51.125,0q-.1-.32-.168-.625a4.468,4.468,0,0,1-.09-.609,3.256,3.256,0,0,1-1.023,1,2.633,2.633,0,0,1-1.43.4,2.81,2.81,0,0,1-2.027-.68,2.468,2.468,0,0,1-.707-1.867,2.206,2.206,0,0,1,.969-1.91,4.678,4.678,0,0,1,2.727-.684h1.477v-.742a1.38,1.38,0,0,0-.387-1.039,1.547,1.547,0,0,0-1.121-.375,1.6,1.6,0,0,0-1.031.309.981.981,0,0,0-.383.8L46.1-6.016l-.008-.047a2.094,2.094,0,0,1,.895-1.773,3.79,3.79,0,0,1,2.473-.773,3.617,3.617,0,0,1,2.383.75A2.64,2.64,0,0,1,52.75-5.7v3.758a6.93,6.93,0,0,0,.07,1A5.331,5.331,0,0,0,53.047,0ZM48.8-1.359a2.373,2.373,0,0,0,1.285-.359,1.81,1.81,0,0,0,.762-.82v-1.25H49.344a1.9,1.9,0,0,0-1.3.41,1.246,1.246,0,0,0-.469.965.984.984,0,0,0,.316.77A1.315,1.315,0,0,0,48.8-1.359Z" transform="translate(672 1384)" fill="#fff"/>
    <path id="Trazado_887942" data-name="Trazado 887942" d="M-8372.06-10391.276l229.685,107.308h-117.136" transform="translate(8997 11697)" fill="none" stroke="#f0c518" stroke-width="1"/>
    <path id="Trazado_888964" data-name="Trazado 888964" d="M6.5,0,13,11H0Z" transform="translate(614.487 1307.379) rotate(-60)" fill="#f0c518"/>
    <path id="Trazado_888965" data-name="Trazado 888965" d="M6.5,0,13,11H0Z" transform="translate(728.743 1419.72) rotate(-92)" fill="#f0c518"/>
    <path id="Trazado_887943" data-name="Trazado 887943" d="M-8142.375-10283.969l-132.841,31.433" transform="translate(8997 11697)" fill="none" stroke="#f0c518" stroke-width="1"/>
    <path id="Trazado_888966" data-name="Trazado 888966" d="M6.5,0,13,11H0Z" transform="translate(714.505 1453.452) rotate(-106)" fill="#f0c518"/>
    <path id="Trazado_888967" data-name="Trazado 888967" d="M6.5,0,13,11H0Z" transform="translate(778.774 1467.268) rotate(-89)" fill="#f0c518"/>
    <path id="Trazado_887945" data-name="Trazado 887945" d="M-8432.34-10349.5v195.754" transform="translate(8997 11697)" fill="none" stroke="#3a1d71" stroke-width="1"/>
    <path id="Trazado_888968" data-name="Trazado 888968" d="M70,0A70,70,0,1,1,0,70,70,70,0,0,1,70,0Z" transform="translate(495 1369)" fill="#3a1d71"/>
    <path id="Trazado_888969" data-name="Trazado 888969" d="M7.547-5H3.328v3.25H8.344V0h-7.3V-11.375H8.328v1.758h-5v2.859H7.547Zm4.344-3.453.094,1.117A2.84,2.84,0,0,1,13-8.277a2.932,2.932,0,0,1,1.418-.332,2.582,2.582,0,0,1,1.391.359,2.217,2.217,0,0,1,.875,1.086A2.93,2.93,0,0,1,17.7-8.227a2.756,2.756,0,0,1,1.469-.383,2.408,2.408,0,0,1,1.973.887,4.233,4.233,0,0,1,.723,2.707V0H19.586V-5.023a2.369,2.369,0,0,0-.312-1.414,1.109,1.109,0,0,0-.93-.4,1.592,1.592,0,0,0-.84.215,1.565,1.565,0,0,0-.566.6q0,.148.008.254t.008.215V0H14.68V-5.023a2.376,2.376,0,0,0-.312-1.4,1.1,1.1,0,0,0-.937-.41,1.769,1.769,0,0,0-.809.176,1.551,1.551,0,0,0-.574.5V0H9.773V-8.453ZM31.242-3.992a4.855,4.855,0,0,1-.867,3.016A2.869,2.869,0,0,1,27.953.164a2.707,2.707,0,0,1-1.18-.246A2.423,2.423,0,0,1,25.891-.8V3.25H23.617v-11.7h2.055l.133,1a2.709,2.709,0,0,1,.9-.855,2.441,2.441,0,0,1,1.23-.3,2.813,2.813,0,0,1,2.438,1.227,5.474,5.474,0,0,1,.867,3.227Zm-2.281-.164a4.09,4.09,0,0,0-.4-1.937,1.3,1.3,0,0,0-1.219-.742,1.722,1.722,0,0,0-.879.211,1.505,1.505,0,0,0-.574.6v3.7a1.4,1.4,0,0,0,.574.547,1.935,1.935,0,0,0,.895.188,1.312,1.312,0,0,0,1.215-.648,3.423,3.423,0,0,0,.387-1.758Zm8.133-2.336-.836-.023a1.519,1.519,0,0,0-.836.211,1.337,1.337,0,0,0-.5.594V0H32.648V-8.453h2.117l.1,1.25a2.667,2.667,0,0,1,.77-1.035,1.715,1.715,0,0,1,1.09-.371,1.705,1.705,0,0,1,.316.027q.145.027.293.066ZM41.8.164A3.8,3.8,0,0,1,38.844-1a4.252,4.252,0,0,1-1.062-2.988V-4.3a4.628,4.628,0,0,1,1.031-3.109,3.506,3.506,0,0,1,2.836-1.2,3.282,3.282,0,0,1,2.613,1.043,4.122,4.122,0,0,1,.91,2.809v1.18H40.133l-.023.047a2.284,2.284,0,0,0,.527,1.406,1.766,1.766,0,0,0,1.4.539,4.692,4.692,0,0,0,1.3-.156,5.307,5.307,0,0,0,1.105-.477l.617,1.406a4.234,4.234,0,0,1-1.375.7A6.1,6.1,0,0,1,41.8.164Zm-.148-7.016a1.267,1.267,0,0,0-1.059.473,2.371,2.371,0,0,0-.449,1.254l.016.039h2.781v-.172a1.974,1.974,0,0,0-.3-1.168A1.127,1.127,0,0,0,41.648-6.852ZM51.07-2.344a.787.787,0,0,0-.363-.645,3.69,3.69,0,0,0-1.348-.473,5.375,5.375,0,0,1-2.254-.9,1.962,1.962,0,0,1-.77-1.633,2.329,2.329,0,0,1,.922-1.852,3.717,3.717,0,0,1,2.453-.766,4.011,4.011,0,0,1,2.566.766A2.237,2.237,0,0,1,53.2-5.937l-.016.047h-2.2a1.106,1.106,0,0,0-.328-.828,1.3,1.3,0,0,0-.945-.32,1.292,1.292,0,0,0-.867.273.85.85,0,0,0-.32.672.759.759,0,0,0,.332.637,3.7,3.7,0,0,0,1.348.441A5.484,5.484,0,0,1,52.52-4.1a2.014,2.014,0,0,1,.762,1.668A2.231,2.231,0,0,1,52.3-.562a4.215,4.215,0,0,1-2.578.727,3.918,3.918,0,0,1-2.668-.855,2.392,2.392,0,0,1-.934-1.949l.016-.047h2.086a1.186,1.186,0,0,0,.445.984,1.838,1.838,0,0,0,1.1.3,1.567,1.567,0,0,0,.965-.254A.824.824,0,0,0,51.07-2.344ZM59.734,0a4.8,4.8,0,0,1-.215-.609,4.239,4.239,0,0,1-.129-.656,3.127,3.127,0,0,1-.93,1.023,2.33,2.33,0,0,1-1.375.406A2.855,2.855,0,0,1,55.039-.52a2.449,2.449,0,0,1-.719-1.863,2.229,2.229,0,0,1,.957-1.926,4.78,4.78,0,0,1,2.793-.684h1.281v-.672a1.315,1.315,0,0,0-.32-.945,1.257,1.257,0,0,0-.953-.336,1.239,1.239,0,0,0-.855.27.941.941,0,0,0-.3.738h-2.2l-.016-.047a2.144,2.144,0,0,1,.934-1.848,4.055,4.055,0,0,1,2.582-.777,3.784,3.784,0,0,1,2.465.766,2.667,2.667,0,0,1,.941,2.2v3.492a6.605,6.605,0,0,0,.09,1.117A5.606,5.606,0,0,0,62.008,0ZM57.648-1.523a1.944,1.944,0,0,0,1.063-.3,1.6,1.6,0,0,0,.641-.687V-3.7H58.07a1.519,1.519,0,0,0-1.1.359,1.181,1.181,0,0,0-.371.883.881.881,0,0,0,.277.684A1.1,1.1,0,0,0,57.648-1.523Z" transform="translate(537 1441)" fill="#fff"/>
  </g>
</svg>
