<svg xmlns="http://www.w3.org/2000/svg" xmlns:xlink="http://www.w3.org/1999/xlink" width="576.757" height="255.25" viewBox="0 0 576.757 255.25">
  <defs>
    <clipPath id="clip-path">
      <rect id="Rectángulo_404092" data-name="Rectángulo 404092" width="64" height="62" transform="translate(0.184 -0.073)" fill="none"/>
    </clipPath>
    <clipPath id="clip-path-4">
      <rect id="Rectángulo_404088" data-name="Rectángulo 404088" width="5.889" height="14.302" fill="none"/>
    </clipPath>
    <clipPath id="clip-path-5">
      <rect id="Rectángulo_404089" data-name="Rectángulo 404089" width="13.994" height="20.638" fill="none"/>
    </clipPath>
  </defs>
  <g id="Grupo_1102364" data-name="Grupo 1102364" transform="translate(-512.059 -6988)">
    <g id="Grupo_1102230" data-name="Grupo 1102230" transform="translate(551.407 7000)">
      <g id="Grupo_1102229" data-name="Grupo 1102229" transform="translate(0)">
        <path id="Trazado_888626" data-name="Trazado 888626" d="M91.135,136.941H50.448a16.445,16.445,0,0,1-16.427-16.426v-27.9A16.445,16.445,0,0,1,50.448,76.192H91.135a16.445,16.445,0,0,1,16.426,16.426v27.9a16.445,16.445,0,0,1-16.426,16.426M50.448,79.319a13.314,13.314,0,0,0-13.3,13.3v27.9a13.315,13.315,0,0,0,13.3,13.3H91.135a13.314,13.314,0,0,0,13.3-13.3v-27.9a13.314,13.314,0,0,0-13.3-13.3Z" transform="translate(-22.493 -40.046)" fill="#8722e2"/>
        <path id="Trazado_888627" data-name="Trazado 888627" d="M72.133,128.777a6.649,6.649,0,1,1,6.6-6.648,6.63,6.63,0,0,1-6.6,6.648m0-10.17a3.522,3.522,0,1,0,3.469,3.522,3.5,3.5,0,0,0-3.469-3.522" transform="translate(-39.058 -60.696)" fill="#8722e2"/>
        <path id="Trazado_888628" data-name="Trazado 888628" d="M136.3,128.777a6.649,6.649,0,1,1,6.6-6.648,6.63,6.63,0,0,1-6.6,6.648m0-10.17a3.522,3.522,0,1,0,3.469,3.522,3.5,3.5,0,0,0-3.469-3.522" transform="translate(-72.785 -60.696)" fill="#8722e2"/>
        <rect id="Rectángulo_404074" data-name="Rectángulo 404074" width="15.608" height="3.127" transform="translate(40.494 77.003)" fill="#8722e2"/>
        <path id="Trazado_888629" data-name="Trazado 888629" d="M194.255,138.714v-3.127c3.211,0,5.922-4.958,5.922-10.828s-2.712-10.827-5.922-10.827v-3.127c5.074,0,9.05,6.129,9.05,13.954s-3.975,13.955-9.05,13.955" transform="translate(-106.712 -58.239)" fill="#8722e2"/>
        <path id="Trazado_888630" data-name="Trazado 888630" d="M110.034,60.776h-3.127c0-3.252-4.9-6-10.7-6s-10.7,2.747-10.7,6H82.376c0-5.117,6.075-9.126,13.829-9.126s13.828,4.009,13.828,9.126" transform="translate(-47.909 -27.147)" fill="#8722e2"/>
        <path id="Trazado_888631" data-name="Trazado 888631" d="M18.771,138.714c-5.074,0-9.049-6.129-9.049-13.955s3.975-13.954,9.049-13.954v3.127c-3.21,0-5.922,4.958-5.922,10.827s2.712,10.828,5.922,10.828Z" transform="translate(-9.722 -58.239)" fill="#8722e2"/>
        <rect id="Rectángulo_404075" data-name="Rectángulo 404075" width="18.703" height="3.127" transform="translate(46.876 25.414) rotate(-65.332)" fill="#8722e2"/>
        <rect id="Rectángulo_404076" data-name="Rectángulo 404076" width="3.127" height="17.243" transform="matrix(0.909, -0.417, 0.417, 0.909, 39.679, 11.048)" fill="#8722e2"/>
        <rect id="Rectángulo_404077" data-name="Rectángulo 404077" width="3.127" height="9.032" transform="translate(28.043 99.412)" fill="#8722e2"/>
        <rect id="Rectángulo_404078" data-name="Rectángulo 404078" width="3.127" height="9.032" transform="translate(65.422 99.412)" fill="#8722e2"/>
        <path id="Trazado_888632" data-name="Trazado 888632" d="M101.885,256.731H23.124a4.872,4.872,0,0,1-4.866-4.866V238.413a4.872,4.872,0,0,1,4.866-4.866h78.761a4.872,4.872,0,0,1,4.866,4.866v13.451a4.872,4.872,0,0,1-4.866,4.866M23.124,236.674a1.741,1.741,0,0,0-1.739,1.74v13.451a1.741,1.741,0,0,0,1.739,1.739h78.761a1.741,1.741,0,0,0,1.739-1.739V238.413a1.741,1.741,0,0,0-1.739-1.74Z" transform="translate(-14.208 -122.752)" fill="#8722e2"/>
        <path id="Trazado_888633" data-name="Trazado 888633" d="M85.007,12.483A6.242,6.242,0,1,1,91.2,6.241a6.225,6.225,0,0,1-6.194,6.242m0-9.356a3.115,3.115,0,1,0,3.067,3.114,3.095,3.095,0,0,0-3.067-3.114" transform="translate(-46.036)" fill="#8722e2"/>
        <path id="Trazado_888634" data-name="Trazado 888634" d="M124.317,12.483a6.242,6.242,0,1,1,6.195-6.242,6.225,6.225,0,0,1-6.195,6.242m0-9.356a3.115,3.115,0,1,0,3.067,3.114,3.095,3.095,0,0,0-3.067-3.114" transform="translate(-66.697)" fill="#8722e2"/>
      </g>
    </g>
    <g id="Grupo_1102231" data-name="Grupo 1102231" transform="translate(983 7023.235)">
      <path id="Trazado_888635" data-name="Trazado 888635" d="M52.908,641.857C23.734,641.857,0,617.886,0,588.422s23.734-53.434,52.908-53.434,52.907,23.971,52.907,53.434-23.734,53.434-52.907,53.434m0-103.742c-27.449,0-49.781,22.568-49.781,50.308S25.459,638.73,52.908,638.73s49.781-22.568,49.781-50.308-22.332-50.308-49.781-50.308" transform="translate(0 -534.983)" fill="#8722e2"/>
      <path id="Trazado_888636" data-name="Trazado 888636" d="M106.338,555.939c-4.576-11.108-11.151-17.6-18.041-17.825-.051,0-.1,0-.146-.006-.076,0-.15,0-.229,0s-.153,0-.23,0a1.534,1.534,0,0,1-.157.006h-.013c-6.853.208-13.435,6.705-18.012,17.824l-2.892-1.19c5.06-12.291,12.647-19.49,20.82-19.759.048,0,.088-.005.118-.006.254-.008.5-.008.759,0h.039l.082.005c8.189.311,15.745,7.5,20.793,19.756Z" transform="translate(-35.014 -534.978)" fill="#8722e2"/>
      <path id="Trazado_888637" data-name="Trazado 888637" d="M87.922,737.036c-.131,0-.258,0-.389,0-8.2-.209-15.831-7.411-20.915-19.76l2.891-1.19c4.59,11.151,11.194,17.648,18.117,17.825.109,0,.2,0,.3,0s.186,0,.281,0c6.937-.177,13.54-6.673,18.131-17.825l2.891,1.19c-5.084,12.349-12.712,19.551-20.928,19.76-.117,0-.244,0-.375,0" transform="translate(-35.014 -630.165)" fill="#8722e2"/>
      <rect id="Rectángulo_404079" data-name="Rectángulo 404079" width="18.408" height="3.127" transform="translate(85.847 51.875)" fill="#8722e2"/>
      <rect id="Rectángulo_404080" data-name="Rectángulo 404080" width="18.408" height="3.127" transform="translate(1.565 51.875)" fill="#8722e2"/>
      <path id="Trazado_888638" data-name="Trazado 888638" d="M180.913,583.746l-.813-3.019c1.427-.384,2.872-.8,4.4-1.23,1.14-.324,2.329-.662,3.6-1.015l.836,3.012c-1.265.352-2.447.688-3.58,1.01-1.541.438-2.995.852-4.443,1.242" transform="translate(-94.66 -557.844)" fill="#8722e2"/>
      <path id="Trazado_888639" data-name="Trazado 888639" d="M32.344,583.781c-1.994-.528-4.036-1.107-6.2-1.72l-1.848-.523.85-3.009,1.851.524c2.149.609,4.177,1.184,6.145,1.7Z" transform="translate(-12.771 -557.868)" fill="#8722e2"/>
      <path id="Trazado_888640" data-name="Trazado 888640" d="M188.1,710.928c-1.27-.352-2.458-.69-3.6-1.014-1.531-.435-2.977-.846-4.405-1.231l.814-3.019c1.449.39,2.905.8,4.447,1.242,1.131.322,2.313.658,3.577,1.009Z" transform="translate(-94.66 -624.69)" fill="#8722e2"/>
      <path id="Trazado_888641" data-name="Trazado 888641" d="M25.149,710.9l-.85-3.009,1.858-.526c2.158-.612,4.2-1.19,6.188-1.717l.8,3.023c-1.965.52-3.99,1.094-6.135,1.7Z" transform="translate(-12.771 -624.68)" fill="#8722e2"/>
      <rect id="Rectángulo_404081" data-name="Rectángulo 404081" width="3.127" height="18.796" transform="translate(51.344 86.511)" fill="#8722e2"/>
      <rect id="Rectángulo_404082" data-name="Rectángulo 404082" width="3.127" height="18.796" transform="translate(51.344 1.569)" fill="#8722e2"/>
      <path id="Trazado_888642" data-name="Trazado 888642" d="M106.806,644.458H51.433a1.564,1.564,0,0,1-1.564-1.564V587.359a1.563,1.563,0,0,1,1.564-1.563h55.373a1.563,1.563,0,0,1,1.564,1.563v55.536a1.564,1.564,0,0,1-1.564,1.564M53,641.332h52.246V588.922H53Z" transform="translate(-26.211 -561.688)" fill="#8722e2"/>
    </g>
    <g id="Grupo_1102232" data-name="Grupo 1102232" transform="translate(715.313 7072.768)">
      <path id="Trazado_888618" data-name="Trazado 888618" d="M1152.266-6503.444H938" transform="translate(-938 6517.038)" fill="none" stroke="#f0c518" stroke-width="3"/>
      <path id="Trazado_888619" data-name="Trazado 888619" d="M997.413-6528.511l-13.9,13.9,13.9,13.9" transform="translate(-983.508 6528.511)" fill="none" stroke="#f0c518" stroke-width="3"/>
    </g>
    <path id="Trazado_888948" data-name="Trazado 888948" d="M6.977-2.453H3.289L2.523,0H.141L3.977-11.375H6.313L10.133,0H7.75ZM3.852-4.242h2.57L5.164-8.25H5.117Zm6.867.086a5.474,5.474,0,0,1,.867-3.227,2.813,2.813,0,0,1,2.438-1.227,2.4,2.4,0,0,1,1.25.32,2.806,2.806,0,0,1,.922.914l.18-1.078h1.961V-.039a3.142,3.142,0,0,1-1.078,2.551,4.552,4.552,0,0,1-3.008.9,5.73,5.73,0,0,1-1.359-.176,6.313,6.313,0,0,1-1.328-.48l.383-1.7a5.235,5.235,0,0,0,1.082.379,5.362,5.362,0,0,0,1.207.129,2.042,2.042,0,0,0,1.379-.391,1.546,1.546,0,0,0,.441-1.219V-.812a2.552,2.552,0,0,1-.883.727,2.6,2.6,0,0,1-1.164.25A2.869,2.869,0,0,1,11.586-.977a4.855,4.855,0,0,1-.867-3.016ZM13-3.992a3.473,3.473,0,0,0,.371,1.746,1.3,1.3,0,0,0,1.215.637,1.883,1.883,0,0,0,.887-.191,1.462,1.462,0,0,0,.582-.559V-6.023a1.559,1.559,0,0,0-.582-.6,1.706,1.706,0,0,0-.871-.211,1.279,1.279,0,0,0-1.219.742A4.231,4.231,0,0,0,13-4.156ZM23.75.164A3.8,3.8,0,0,1,20.8-1a4.252,4.252,0,0,1-1.062-2.988V-4.3a4.628,4.628,0,0,1,1.031-3.109,3.506,3.506,0,0,1,2.836-1.2,3.282,3.282,0,0,1,2.613,1.043,4.122,4.122,0,0,1,.91,2.809v1.18H22.086l-.023.047a2.284,2.284,0,0,0,.527,1.406,1.766,1.766,0,0,0,1.4.539,4.692,4.692,0,0,0,1.3-.156A5.307,5.307,0,0,0,26.4-2.219l.617,1.406a4.234,4.234,0,0,1-1.375.7A6.1,6.1,0,0,1,23.75.164ZM23.6-6.852a1.267,1.267,0,0,0-1.059.473,2.371,2.371,0,0,0-.449,1.254l.016.039h2.781v-.172a1.974,1.974,0,0,0-.3-1.168A1.127,1.127,0,0,0,23.6-6.852Zm6.938-1.6.1,1.211A3.092,3.092,0,0,1,31.68-8.25a2.7,2.7,0,0,1,1.383-.359,2.513,2.513,0,0,1,2,.824,3.908,3.908,0,0,1,.719,2.605V0H33.492V-5.172a2.024,2.024,0,0,0-.316-1.285,1.166,1.166,0,0,0-.949-.379,1.992,1.992,0,0,0-.895.191,1.746,1.746,0,0,0-.637.527V0H28.414V-8.453Zm9.68-2.07v2.07h1.43v1.6h-1.43v4.3a.982.982,0,0,0,.207.7.727.727,0,0,0,.543.211,2.178,2.178,0,0,0,.313-.02,2.632,2.632,0,0,0,.3-.066L41.773-.07a4.618,4.618,0,0,1-.668.176A3.982,3.982,0,0,1,40.4.164a2.431,2.431,0,0,1-1.816-.648,2.843,2.843,0,0,1-.637-2.055V-6.852H36.711v-1.6h1.234v-2.07ZM46.719.164A3.8,3.8,0,0,1,43.766-1,4.252,4.252,0,0,1,42.7-3.984V-4.3a4.628,4.628,0,0,1,1.031-3.109,3.506,3.506,0,0,1,2.836-1.2,3.282,3.282,0,0,1,2.613,1.043,4.122,4.122,0,0,1,.91,2.809v1.18H45.055l-.023.047a2.284,2.284,0,0,0,.527,1.406,1.766,1.766,0,0,0,1.4.539,4.692,4.692,0,0,0,1.3-.156,5.307,5.307,0,0,0,1.105-.477l.617,1.406a4.234,4.234,0,0,1-1.375.7A6.1,6.1,0,0,1,46.719.164ZM46.57-6.852a1.267,1.267,0,0,0-1.059.473,2.371,2.371,0,0,0-.449,1.254l.016.039h2.781v-.172a1.974,1.974,0,0,0-.3-1.168A1.127,1.127,0,0,0,46.57-6.852Z" transform="translate(572 7173)" fill="#12263f"/>
    <path id="Trazado_888949" data-name="Trazado 888949" d="M6.977-2.453H3.289L2.523,0H.141L3.977-11.375H6.313L10.133,0H7.75ZM3.852-4.242h2.57L5.164-8.25H5.117ZM12.8-8.453l.094,1.117a2.84,2.84,0,0,1,1.02-.941,2.932,2.932,0,0,1,1.418-.332,2.582,2.582,0,0,1,1.391.359,2.217,2.217,0,0,1,.875,1.086,2.93,2.93,0,0,1,1.016-1.062,2.756,2.756,0,0,1,1.469-.383,2.408,2.408,0,0,1,1.973.887,4.233,4.233,0,0,1,.723,2.707V0H20.492V-5.023a2.369,2.369,0,0,0-.312-1.414,1.109,1.109,0,0,0-.93-.4,1.592,1.592,0,0,0-.84.215,1.565,1.565,0,0,0-.566.6q0,.148.008.254t.008.215V0H15.586V-5.023a2.376,2.376,0,0,0-.312-1.4,1.1,1.1,0,0,0-.937-.41,1.769,1.769,0,0,0-.809.176,1.551,1.551,0,0,0-.574.5V0H10.68V-8.453ZM32.148-3.992A4.945,4.945,0,0,1,31.3-.969,2.854,2.854,0,0,1,28.867.164a2.576,2.576,0,0,1-1.293-.312,2.672,2.672,0,0,1-.934-.914L26.453,0h-1.93V-12.187H26.8v4.633a2.582,2.582,0,0,1,.879-.781,2.457,2.457,0,0,1,1.176-.273A2.8,2.8,0,0,1,31.3-7.395a5.577,5.577,0,0,1,.844,3.238Zm-2.273-.164a4.4,4.4,0,0,0-.363-1.957,1.275,1.275,0,0,0-1.238-.723,1.7,1.7,0,0,0-.9.223,1.543,1.543,0,0,0-.578.637V-2.4a1.449,1.449,0,0,0,.582.586,1.874,1.874,0,0,0,.91.2,1.3,1.3,0,0,0,1.234-.621,3.618,3.618,0,0,0,.352-1.762ZM35.953,0H33.672V-8.453h2.281Zm0-10.477H33.672v-1.711h2.281ZM41.492.164A3.8,3.8,0,0,1,38.539-1a4.252,4.252,0,0,1-1.062-2.988V-4.3a4.628,4.628,0,0,1,1.031-3.109,3.506,3.506,0,0,1,2.836-1.2,3.282,3.282,0,0,1,2.613,1.043,4.122,4.122,0,0,1,.91,2.809v1.18H39.828l-.023.047a2.284,2.284,0,0,0,.527,1.406,1.766,1.766,0,0,0,1.4.539,4.692,4.692,0,0,0,1.3-.156,5.307,5.307,0,0,0,1.105-.477l.617,1.406a4.234,4.234,0,0,1-1.375.7A6.1,6.1,0,0,1,41.492.164Zm-.148-7.016a1.267,1.267,0,0,0-1.059.473,2.371,2.371,0,0,0-.449,1.254l.016.039h2.781v-.172a1.974,1.974,0,0,0-.3-1.168A1.127,1.127,0,0,0,41.344-6.852Zm6.938-1.6.1,1.211A3.092,3.092,0,0,1,49.422-8.25,2.7,2.7,0,0,1,50.8-8.609a2.513,2.513,0,0,1,2,.824,3.908,3.908,0,0,1,.719,2.605V0H51.234V-5.172a2.024,2.024,0,0,0-.316-1.285,1.166,1.166,0,0,0-.949-.379,1.992,1.992,0,0,0-.895.191,1.746,1.746,0,0,0-.637.527V0H46.156V-8.453Zm9.68-2.07v2.07h1.43v1.6h-1.43v4.3a.982.982,0,0,0,.207.7.727.727,0,0,0,.543.211,2.178,2.178,0,0,0,.313-.02,2.632,2.632,0,0,0,.3-.066L59.516-.07a4.618,4.618,0,0,1-.668.176,3.982,3.982,0,0,1-.707.059,2.431,2.431,0,0,1-1.816-.648,2.843,2.843,0,0,1-.637-2.055V-6.852H54.453v-1.6h1.234v-2.07ZM64.461.164A3.8,3.8,0,0,1,61.508-1a4.252,4.252,0,0,1-1.062-2.988V-4.3a4.628,4.628,0,0,1,1.031-3.109,3.506,3.506,0,0,1,2.836-1.2,3.282,3.282,0,0,1,2.613,1.043,4.122,4.122,0,0,1,.91,2.809v1.18H62.8l-.023.047A2.284,2.284,0,0,0,63.3-2.125a1.766,1.766,0,0,0,1.4.539A4.692,4.692,0,0,0,66-1.742a5.307,5.307,0,0,0,1.105-.477l.617,1.406a4.234,4.234,0,0,1-1.375.7A6.1,6.1,0,0,1,64.461.164Zm-.148-7.016a1.267,1.267,0,0,0-1.059.473A2.371,2.371,0,0,0,62.8-5.125l.016.039H65.6v-.172a1.974,1.974,0,0,0-.3-1.168A1.127,1.127,0,0,0,64.313-6.852Z" transform="translate(999 7173)" fill="#12263f"/>
    <g id="Grupo_1102250" data-name="Grupo 1102250" transform="translate(793.816 6988.073)">
      <g id="Grupo_1102249" data-name="Grupo 1102249" clip-path="url(#clip-path)">
        <rect id="Rectángulo_404086" data-name="Rectángulo 404086" width="5.889" height="23.556" transform="translate(28.01 30.116)" fill="#4145f1"/>
        <g id="Grupo_1102248" data-name="Grupo 1102248">
          <g id="Grupo_1102247" data-name="Grupo 1102247" clip-path="url(#clip-path)">
            <g id="Grupo_1102240" data-name="Grupo 1102240" transform="translate(28.01 30.117)" opacity="0.5">
              <g id="Grupo_1102239" data-name="Grupo 1102239">
                <g id="Grupo_1102238" data-name="Grupo 1102238" clip-path="url(#clip-path-4)">
                  <rect id="Rectángulo_404087" data-name="Rectángulo 404087" width="5.889" height="14.301" transform="translate(0 0)" fill="#06007b"/>
                </g>
              </g>
            </g>
            <path id="Trazado_888644" data-name="Trazado 888644" d="M62.78,113.215c-.761-5.664-8.095-10.108-17.036-10.108s-16.275,4.444-17.036,10.108Z" transform="translate(-14.79 -53.118)" fill="#4145f1"/>
            <path id="Trazado_888645" data-name="Trazado 888645" d="M10.343,37.887A10.343,10.343,0,1,1,20.686,27.544,10.355,10.355,0,0,1,10.343,37.887m0-16.938a6.6,6.6,0,1,0,6.6,6.6,6.6,6.6,0,0,0-6.6-6.6" transform="translate(0 -8.862)" fill="#4145f1"/>
            <g id="Grupo_1102243" data-name="Grupo 1102243" transform="translate(6.692 8.34)" opacity="0.5">
              <g id="Grupo_1102242" data-name="Grupo 1102242">
                <g id="Grupo_1102241" data-name="Grupo 1102241" clip-path="url(#clip-path-5)">
                  <path id="Trazado_888646" data-name="Trazado 888646" d="M17.453,17.2a10.273,10.273,0,0,0-3.639.673c0,.165-.013.327-.013.492,0,1.219.052,2.419.144,3.6A6.592,6.592,0,1,1,17.453,34.14a6.659,6.659,0,0,1-.791-.052,35.042,35.042,0,0,0,1.731,3.752,10.34,10.34,0,0,0-.94-20.638" transform="translate(-13.802 -17.202)" fill="#06007b"/>
                </g>
              </g>
            </g>
            <path id="Trazado_888647" data-name="Trazado 888647" d="M85.025,27.545A10.343,10.343,0,1,1,95.368,37.888,10.355,10.355,0,0,1,85.025,27.545m3.748,0a6.6,6.6,0,1,0,6.6-6.6,6.6,6.6,0,0,0-6.6,6.6" transform="translate(-43.803 -8.862)" fill="#4145f1"/>
            <g id="Grupo_1102246" data-name="Grupo 1102246" transform="translate(41.222 8.34)" opacity="0.5">
              <g id="Grupo_1102245" data-name="Grupo 1102245">
                <g id="Grupo_1102244" data-name="Grupo 1102244" clip-path="url(#clip-path-5)">
                  <path id="Trazado_888648" data-name="Trazado 888648" d="M95.368,17.2a10.273,10.273,0,0,1,3.639.673c0,.165.013.327.013.492,0,1.219-.052,2.419-.144,3.6A6.592,6.592,0,1,0,95.368,34.14a6.658,6.658,0,0,0,.791-.052,34.946,34.946,0,0,1-1.731,3.752,10.34,10.34,0,0,1,.94-20.638" transform="translate(-85.025 -17.202)" fill="#06007b"/>
                </g>
              </g>
            </g>
            <path id="Trazado_888649" data-name="Trazado 888649" d="M20.456,10.159c-.148,1.5-.227,3.024-.227,4.58,0,17.3,9.468,31.318,21.147,31.318S62.522,32.035,62.522,14.739c0-1.556-.079-3.085-.227-4.58Z" transform="translate(-10.421 -5.234)" fill="#4145f1"/>
          </g>
        </g>
      </g>
    </g>
    <path id="Trazado_888950" data-name="Trazado 888950" d="M3.328-4.125V0H1.047V-11.375H5.4a4.48,4.48,0,0,1,3.086,1A3.353,3.353,0,0,1,9.609-7.742,3.329,3.329,0,0,1,8.484-5.117,4.5,4.5,0,0,1,5.4-4.125Zm0-1.758H5.4A1.9,1.9,0,0,0,6.844-6.4a1.848,1.848,0,0,0,.492-1.324,1.934,1.934,0,0,0-.488-1.355A1.864,1.864,0,0,0,5.4-9.617H3.328Zm12.188-.609-.836-.023a1.519,1.519,0,0,0-.836.211,1.337,1.337,0,0,0-.5.594V0H11.07V-8.453h2.117l.1,1.25a2.667,2.667,0,0,1,.77-1.035,1.715,1.715,0,0,1,1.09-.371,1.705,1.705,0,0,1,.316.027q.145.027.293.066Zm4.7,6.656A3.8,3.8,0,0,1,17.266-1,4.252,4.252,0,0,1,16.2-3.984V-4.3a4.628,4.628,0,0,1,1.031-3.109,3.506,3.506,0,0,1,2.836-1.2,3.282,3.282,0,0,1,2.613,1.043,4.122,4.122,0,0,1,.91,2.809v1.18H18.555l-.023.047a2.284,2.284,0,0,0,.527,1.406,1.766,1.766,0,0,0,1.4.539,4.692,4.692,0,0,0,1.3-.156,5.307,5.307,0,0,0,1.105-.477l.617,1.406a4.234,4.234,0,0,1-1.375.7A6.1,6.1,0,0,1,20.219.164ZM20.07-6.852a1.267,1.267,0,0,0-1.059.473,2.371,2.371,0,0,0-.449,1.254l.016.039h2.781v-.172a1.974,1.974,0,0,0-.3-1.168A1.127,1.127,0,0,0,20.07-6.852Zm6.969-1.6.094,1.117a2.84,2.84,0,0,1,1.02-.941,2.932,2.932,0,0,1,1.418-.332,2.582,2.582,0,0,1,1.391.359,2.217,2.217,0,0,1,.875,1.086,2.93,2.93,0,0,1,1.016-1.062,2.756,2.756,0,0,1,1.469-.383,2.408,2.408,0,0,1,1.973.887,4.233,4.233,0,0,1,.723,2.707V0H34.734V-5.023a2.369,2.369,0,0,0-.312-1.414,1.109,1.109,0,0,0-.93-.4,1.592,1.592,0,0,0-.84.215,1.565,1.565,0,0,0-.566.6q0,.148.008.254t.008.215V0H29.828V-5.023a2.376,2.376,0,0,0-.312-1.4,1.1,1.1,0,0,0-.937-.41,1.769,1.769,0,0,0-.809.176,1.551,1.551,0,0,0-.574.5V0H24.922V-8.453ZM41.164,0H38.883V-8.453h2.281Zm0-10.477H38.883v-1.711h2.281ZM42.688-4.3a4.536,4.536,0,0,1,1.055-3.1,3.676,3.676,0,0,1,2.922-1.207,3.715,3.715,0,0,1,2.938,1.2,4.512,4.512,0,0,1,1.063,3.1v.164a4.519,4.519,0,0,1-1.059,3.105A3.7,3.7,0,0,1,46.68.164a3.709,3.709,0,0,1-2.934-1.2,4.519,4.519,0,0,1-1.059-3.105Zm2.273.164a3.677,3.677,0,0,0,.406,1.855,1.4,1.4,0,0,0,1.313.7,1.389,1.389,0,0,0,1.293-.7,3.653,3.653,0,0,0,.41-1.852V-4.3a3.616,3.616,0,0,0-.414-1.836,1.4,1.4,0,0,0-1.3-.711,1.384,1.384,0,0,0-1.293.715,3.648,3.648,0,0,0-.41,1.832Z" transform="translate(800 7069)" fill="#12263f"/>
    <path id="Trazado_888951" data-name="Trazado 888951" d="M3.328-4.125V0H1.047V-11.375H5.4a4.48,4.48,0,0,1,3.086,1A3.353,3.353,0,0,1,9.609-7.742,3.329,3.329,0,0,1,8.484-5.117,4.5,4.5,0,0,1,5.4-4.125Zm0-1.758H5.4A1.9,1.9,0,0,0,6.844-6.4a1.848,1.848,0,0,0,.492-1.324,1.934,1.934,0,0,0-.488-1.355A1.864,1.864,0,0,0,5.4-9.617H3.328ZM14.633.164A3.8,3.8,0,0,1,11.68-1a4.252,4.252,0,0,1-1.062-2.988V-4.3a4.628,4.628,0,0,1,1.031-3.109,3.506,3.506,0,0,1,2.836-1.2A3.282,3.282,0,0,1,17.1-7.566a4.122,4.122,0,0,1,.91,2.809v1.18H12.969l-.023.047a2.284,2.284,0,0,0,.527,1.406,1.766,1.766,0,0,0,1.4.539,4.692,4.692,0,0,0,1.3-.156,5.307,5.307,0,0,0,1.105-.477L17.9-.812a4.234,4.234,0,0,1-1.375.7A6.1,6.1,0,0,1,14.633.164Zm-.148-7.016a1.267,1.267,0,0,0-1.059.473,2.371,2.371,0,0,0-.449,1.254l.016.039h2.781v-.172a1.974,1.974,0,0,0-.3-1.168A1.127,1.127,0,0,0,14.484-6.852Zm6.938-1.6.1,1.211A3.092,3.092,0,0,1,22.563-8.25a2.7,2.7,0,0,1,1.383-.359,2.513,2.513,0,0,1,2,.824,3.908,3.908,0,0,1,.719,2.605V0H24.375V-5.172a2.024,2.024,0,0,0-.316-1.285,1.166,1.166,0,0,0-.949-.379,1.992,1.992,0,0,0-.895.191,1.746,1.746,0,0,0-.637.527V0H19.3V-8.453ZM33.352,0a4.8,4.8,0,0,1-.215-.609,4.239,4.239,0,0,1-.129-.656,3.127,3.127,0,0,1-.93,1.023A2.33,2.33,0,0,1,30.7.164,2.855,2.855,0,0,1,28.656-.52a2.449,2.449,0,0,1-.719-1.863,2.229,2.229,0,0,1,.957-1.926,4.78,4.78,0,0,1,2.793-.684h1.281v-.672a1.315,1.315,0,0,0-.32-.945,1.257,1.257,0,0,0-.953-.336,1.239,1.239,0,0,0-.855.27.941.941,0,0,0-.3.738h-2.2l-.016-.047a2.144,2.144,0,0,1,.934-1.848,4.055,4.055,0,0,1,2.582-.777,3.784,3.784,0,0,1,2.465.766,2.667,2.667,0,0,1,.941,2.2v3.492a6.605,6.605,0,0,0,.09,1.117A5.606,5.606,0,0,0,35.625,0ZM31.266-1.523a1.944,1.944,0,0,0,1.063-.3,1.6,1.6,0,0,0,.641-.687V-3.7H31.688a1.519,1.519,0,0,0-1.1.359,1.181,1.181,0,0,0-.371.883.881.881,0,0,0,.277.684A1.1,1.1,0,0,0,31.266-1.523ZM39.359,0H37.078V-12.187h2.281Zm4.273,0H41.352V-8.453h2.281Zm0-10.477H41.352v-1.711h2.281ZM48.055-1.75h4.188V0H45.219V-1.344l4.023-5.344h-3.9V-8.453h6.766v1.3ZM58.664,0a4.8,4.8,0,0,1-.215-.609,4.239,4.239,0,0,1-.129-.656,3.127,3.127,0,0,1-.93,1.023,2.33,2.33,0,0,1-1.375.406A2.855,2.855,0,0,1,53.969-.52a2.449,2.449,0,0,1-.719-1.863,2.229,2.229,0,0,1,.957-1.926A4.78,4.78,0,0,1,57-4.992h1.281v-.672a1.315,1.315,0,0,0-.32-.945,1.257,1.257,0,0,0-.953-.336,1.239,1.239,0,0,0-.855.27.941.941,0,0,0-.3.738h-2.2l-.016-.047a2.144,2.144,0,0,1,.934-1.848,4.055,4.055,0,0,1,2.582-.777,3.784,3.784,0,0,1,2.465.766,2.667,2.667,0,0,1,.941,2.2v3.492a6.605,6.605,0,0,0,.09,1.117A5.606,5.606,0,0,0,60.938,0ZM56.578-1.523a1.944,1.944,0,0,0,1.063-.3,1.6,1.6,0,0,0,.641-.687V-3.7H57a1.519,1.519,0,0,0-1.1.359,1.181,1.181,0,0,0-.371.883.881.881,0,0,0,.277.684A1.1,1.1,0,0,0,56.578-1.523ZM65.8-1.586a1.27,1.27,0,0,0,.945-.355,1.291,1.291,0,0,0,.352-.949H69.18l.016.047A2.645,2.645,0,0,1,68.242-.7,3.564,3.564,0,0,1,65.8.164a3.6,3.6,0,0,1-2.9-1.2A4.558,4.558,0,0,1,61.883-4.1v-.234A4.588,4.588,0,0,1,62.9-7.4a3.57,3.57,0,0,1,2.887-1.207,3.486,3.486,0,0,1,2.492.891A2.976,2.976,0,0,1,69.2-5.375l-.016.047H67.1a1.687,1.687,0,0,0-.348-1.09,1.168,1.168,0,0,0-.965-.434,1.3,1.3,0,0,0-1.254.707,3.878,3.878,0,0,0-.371,1.809V-4.1a3.863,3.863,0,0,0,.371,1.82A1.32,1.32,0,0,0,65.8-1.586ZM72.922,0H70.641V-8.453h2.281Zm0-10.477H70.641v-1.711h2.281ZM74.445-4.3A4.536,4.536,0,0,1,75.5-7.4a3.676,3.676,0,0,1,2.922-1.207,3.715,3.715,0,0,1,2.938,1.2,4.512,4.512,0,0,1,1.063,3.1v.164a4.519,4.519,0,0,1-1.059,3.105,3.7,3.7,0,0,1-2.926,1.2,3.709,3.709,0,0,1-2.934-1.2,4.519,4.519,0,0,1-1.059-3.105Zm2.273.164a3.677,3.677,0,0,0,.406,1.855,1.4,1.4,0,0,0,1.313.7,1.389,1.389,0,0,0,1.293-.7,3.653,3.653,0,0,0,.41-1.852V-4.3a3.616,3.616,0,0,0-.414-1.836,1.4,1.4,0,0,0-1.3-.711,1.384,1.384,0,0,0-1.293.715,3.648,3.648,0,0,0-.41,1.832Zm2.164-7.922h2.539l.016.047L79.273-9.984H77.328Zm7.031,3.609.1,1.211A3.092,3.092,0,0,1,87.055-8.25a2.7,2.7,0,0,1,1.383-.359,2.513,2.513,0,0,1,2,.824,3.908,3.908,0,0,1,.719,2.605V0H88.867V-5.172a2.024,2.024,0,0,0-.316-1.285,1.166,1.166,0,0,0-.949-.379,1.992,1.992,0,0,0-.895.191,1.746,1.746,0,0,0-.637.527V0H83.789V-8.453Z" transform="translate(786 7170)" fill="#12263f"/>
    <g id="Grupo_1102251" data-name="Grupo 1102251" transform="translate(68)">
      <path id="Trazado_888650" data-name="Trazado 888650" d="M979.3-4527.539l22.2,22.2" transform="translate(-233 11646)" fill="none" stroke="#ff3838" stroke-linecap="round" stroke-width="5"/>
      <path id="Trazado_888651" data-name="Trazado 888651" d="M979.3-4527.539l22.2,22.2" transform="translate(-3759.043 6139.162) rotate(90)" fill="none" stroke="#ff3838" stroke-linecap="round" stroke-width="5"/>
    </g>
    <path id="Trazado_888952" data-name="Trazado 888952" d="M-60.406-10.164h-3.75V0H-65.7V-10.164h-3.7v-1.211h8.992Zm.273,5.859a4.654,4.654,0,0,1,1.016-3.09,3.406,3.406,0,0,1,2.758-1.215A3.439,3.439,0,0,1-53.582-7.4,4.639,4.639,0,0,1-52.562-4.3v.172a4.631,4.631,0,0,1-1.016,3.094,3.429,3.429,0,0,1-2.766,1.2,3.436,3.436,0,0,1-2.77-1.207,4.623,4.623,0,0,1-1.02-3.09Zm1.539.172a4.009,4.009,0,0,0,.566,2.219,1.875,1.875,0,0,0,1.684.875,1.87,1.87,0,0,0,1.672-.875,3.988,3.988,0,0,0,.57-2.219V-4.3a3.976,3.976,0,0,0-.574-2.211A1.882,1.882,0,0,0-56.359-7.4a1.856,1.856,0,0,0-1.668.883A4.018,4.018,0,0,0-58.594-4.3Zm9.289-4.32.109,1.109a2.871,2.871,0,0,1,1.051-.934,3.158,3.158,0,0,1,1.48-.332,2.615,2.615,0,0,1,1.449.391,2.363,2.363,0,0,1,.91,1.172,3.162,3.162,0,0,1,1.059-1.145,2.769,2.769,0,0,1,1.527-.418,2.531,2.531,0,0,1,2.039.887,4.051,4.051,0,0,1,.75,2.668V0h-1.539V-5.07a2.81,2.81,0,0,0-.43-1.77,1.567,1.567,0,0,0-1.281-.52,1.631,1.631,0,0,0-1.277.547,2.381,2.381,0,0,0-.574,1.383V0h-1.547V-5.07a2.772,2.772,0,0,0-.441-1.738,1.532,1.532,0,0,0-1.27-.551,2.115,2.115,0,0,0-1.156.289,1.867,1.867,0,0,0-.7.813V0H-50.68V-8.453ZM-31.5,0q-.078-.383-.121-.676a4.96,4.96,0,0,1-.051-.59,3.589,3.589,0,0,1-1.121,1.02,2.867,2.867,0,0,1-1.488.41,2.763,2.763,0,0,1-2.012-.676,2.486,2.486,0,0,1-.691-1.863A2.183,2.183,0,0,1-36-4.27a4.579,4.579,0,0,1,2.66-.684h1.672v-.836a1.551,1.551,0,0,0-.453-1.176A1.779,1.779,0,0,0-33.406-7.4a1.859,1.859,0,0,0-1.211.375,1.125,1.125,0,0,0-.461.9l-1.461.016-.016-.047a2.023,2.023,0,0,1,.863-1.687,3.578,3.578,0,0,1,2.371-.766,3.49,3.49,0,0,1,2.313.73,2.588,2.588,0,0,1,.875,2.105V-1.7a7.923,7.923,0,0,0,.047.875A4.5,4.5,0,0,0-29.914,0Zm-2.555-1.125a2.739,2.739,0,0,0,1.508-.43,2.042,2.042,0,0,0,.875-.984V-3.914H-33.4a2.24,2.24,0,0,0-1.488.469,1.4,1.4,0,0,0-.559,1.1,1.159,1.159,0,0,0,.352.891A1.472,1.472,0,0,0-34.055-1.125Zm15.5-.125A2.863,2.863,0,0,1-19.578-.2a2.8,2.8,0,0,1-1.445.367A2.716,2.716,0,0,1-23.18-.719a4.1,4.1,0,0,1-.773-2.75V-8.453h1.539v5a3.147,3.147,0,0,0,.4,1.859,1.481,1.481,0,0,0,1.242.508,2.531,2.531,0,0,0,1.355-.332,2.077,2.077,0,0,0,.809-.941V-8.453h1.539V0h-1.383Zm5.1-7.2.109,1.258a3.069,3.069,0,0,1,1.059-1.043,2.824,2.824,0,0,1,1.449-.371,2.759,2.759,0,0,1,2.117.8,3.515,3.515,0,0,1,.75,2.473V0H-9.508V-5.3a2.287,2.287,0,0,0-.441-1.586A1.768,1.768,0,0,0-11.3-7.359a2.386,2.386,0,0,0-1.207.285,2.072,2.072,0,0,0-.785.8V0h-1.539V-8.453ZM-.539,0Q-.617-.383-.66-.676a4.96,4.96,0,0,1-.051-.59A3.589,3.589,0,0,1-1.832-.246,2.867,2.867,0,0,1-3.32.164,2.763,2.763,0,0,1-5.332-.512a2.486,2.486,0,0,1-.691-1.863,2.183,2.183,0,0,1,.98-1.895,4.579,4.579,0,0,1,2.66-.684H-.711v-.836a1.551,1.551,0,0,0-.453-1.176A1.779,1.779,0,0,0-2.445-7.4a1.859,1.859,0,0,0-1.211.375,1.125,1.125,0,0,0-.461.9l-1.461.016-.016-.047A2.023,2.023,0,0,1-4.73-7.844a3.578,3.578,0,0,1,2.371-.766,3.49,3.49,0,0,1,2.313.73A2.588,2.588,0,0,1,.828-5.773V-1.7a7.923,7.923,0,0,0,.047.875A4.5,4.5,0,0,0,1.047,0ZM-3.094-1.125a2.739,2.739,0,0,0,1.508-.43,2.042,2.042,0,0,0,.875-.984V-3.914H-2.437a2.24,2.24,0,0,0-1.488.469,1.4,1.4,0,0,0-.559,1.1,1.159,1.159,0,0,0,.352.891A1.472,1.472,0,0,0-3.094-1.125ZM12.234,0q-.078-.383-.121-.676a4.96,4.96,0,0,1-.051-.59,3.589,3.589,0,0,1-1.121,1.02,2.867,2.867,0,0,1-1.488.41A2.763,2.763,0,0,1,7.441-.512,2.486,2.486,0,0,1,6.75-2.375,2.183,2.183,0,0,1,7.73-4.27a4.579,4.579,0,0,1,2.66-.684h1.672v-.836a1.551,1.551,0,0,0-.453-1.176A1.779,1.779,0,0,0,10.328-7.4a1.859,1.859,0,0,0-1.211.375,1.125,1.125,0,0,0-.461.9L7.2-6.109,7.18-6.156a2.023,2.023,0,0,1,.863-1.687,3.578,3.578,0,0,1,2.371-.766,3.49,3.49,0,0,1,2.313.73A2.588,2.588,0,0,1,13.6-5.773V-1.7a7.923,7.923,0,0,0,.047.875A4.5,4.5,0,0,0,13.82,0ZM9.68-1.125a2.739,2.739,0,0,0,1.508-.43,2.042,2.042,0,0,0,.875-.984V-3.914H10.336a2.24,2.24,0,0,0-1.488.469,1.4,1.4,0,0,0-.559,1.1,1.159,1.159,0,0,0,.352.891A1.472,1.472,0,0,0,9.68-1.125Zm9.516.086a1.81,1.81,0,0,0,1.242-.473,1.494,1.494,0,0,0,.531-1.16h1.391l.023.047a2.428,2.428,0,0,1-.937,1.941A3.313,3.313,0,0,1,19.2.164a3.319,3.319,0,0,1-2.75-1.211,4.674,4.674,0,0,1-.969-3.016v-.328a4.654,4.654,0,0,1,.973-3A3.317,3.317,0,0,1,19.2-8.609a3.189,3.189,0,0,1,2.316.875,2.775,2.775,0,0,1,.871,2.148l-.016.047h-1.4a1.865,1.865,0,0,0-.5-1.316A1.658,1.658,0,0,0,19.2-7.4a1.777,1.777,0,0,0-1.652.879,4.114,4.114,0,0,0-.52,2.129v.328a4.192,4.192,0,0,0,.512,2.148A1.776,1.776,0,0,0,19.2-1.039Zm8.375,0a1.81,1.81,0,0,0,1.242-.473,1.494,1.494,0,0,0,.531-1.16h1.391l.023.047A2.428,2.428,0,0,1,29.82-.684a3.313,3.313,0,0,1-2.25.848,3.319,3.319,0,0,1-2.75-1.211,4.674,4.674,0,0,1-.969-3.016v-.328a4.654,4.654,0,0,1,.973-3A3.317,3.317,0,0,1,27.57-8.609a3.189,3.189,0,0,1,2.316.875,2.775,2.775,0,0,1,.871,2.148l-.016.047h-1.4a1.865,1.865,0,0,0-.5-1.316A1.658,1.658,0,0,0,27.57-7.4a1.777,1.777,0,0,0-1.652.879,4.114,4.114,0,0,0-.52,2.129v.328a4.192,4.192,0,0,0,.512,2.148A1.776,1.776,0,0,0,27.57-1.039ZM34.25,0H32.711V-8.453H34.25Zm0-10.617H32.711v-1.57H34.25ZM36.258-4.3a4.654,4.654,0,0,1,1.016-3.09,3.406,3.406,0,0,1,2.758-1.215A3.439,3.439,0,0,1,42.809-7.4,4.639,4.639,0,0,1,43.828-4.3v.172a4.631,4.631,0,0,1-1.016,3.094,3.429,3.429,0,0,1-2.766,1.2,3.436,3.436,0,0,1-2.77-1.207,4.623,4.623,0,0,1-1.02-3.09Zm1.539.172a4.009,4.009,0,0,0,.566,2.219,1.875,1.875,0,0,0,1.684.875,1.87,1.87,0,0,0,1.672-.875,3.988,3.988,0,0,0,.57-2.219V-4.3a3.976,3.976,0,0,0-.574-2.211A1.882,1.882,0,0,0,40.031-7.4a1.856,1.856,0,0,0-1.668.883A4.018,4.018,0,0,0,37.8-4.3Zm2.992-7.906h1.8l.016.047L40.5-9.961H39.344Zm6.3,3.586L47.2-7.2a3.069,3.069,0,0,1,1.059-1.043A2.824,2.824,0,0,1,49.7-8.609a2.759,2.759,0,0,1,2.117.8,3.515,3.515,0,0,1,.75,2.473V0H51.031V-5.3a2.287,2.287,0,0,0-.441-1.586,1.768,1.768,0,0,0-1.348-.469,2.386,2.386,0,0,0-1.207.285,2.072,2.072,0,0,0-.785.8V0H45.711V-8.453Zm14.281,5.32.273,1.063h.047l2.078-6.383h1.711L61.922,1.3A4.383,4.383,0,0,1,61,2.781a2.113,2.113,0,0,1-1.613.633,3.363,3.363,0,0,1-.477-.043q-.289-.043-.445-.082l.156-1.211a2.062,2.062,0,0,1,.277.016q.324.023.41.023a.95.95,0,0,0,.8-.437,4.543,4.543,0,0,0,.523-.969l.367-.883L57.867-8.453h1.719ZM-87.941,19.7a4.654,4.654,0,0,1,1.016-3.09,3.406,3.406,0,0,1,2.758-1.215A3.439,3.439,0,0,1-81.391,16.6a4.639,4.639,0,0,1,1.02,3.094v.172a4.631,4.631,0,0,1-1.016,3.094,3.429,3.429,0,0,1-2.766,1.2,3.436,3.436,0,0,1-2.77-1.207,4.623,4.623,0,0,1-1.02-3.09Zm1.539.172a4.009,4.009,0,0,0,.566,2.219,1.875,1.875,0,0,0,1.684.875,1.87,1.87,0,0,0,1.672-.875,3.988,3.988,0,0,0,.57-2.219V19.7a3.976,3.976,0,0,0-.574-2.211,1.882,1.882,0,0,0-1.684-.883,1.856,1.856,0,0,0-1.668.883A4.018,4.018,0,0,0-86.4,19.7Zm15.133.227a4.645,4.645,0,0,1-.879,2.949,2.9,2.9,0,0,1-2.418,1.121,3.064,3.064,0,0,1-1.465-.332,2.719,2.719,0,0,1-1.027-.98L-77.309,24h-1.18V11.813h1.539v4.734a2.671,2.671,0,0,1,.988-.859,3.03,3.03,0,0,1,1.379-.3,2.809,2.809,0,0,1,2.438,1.25,5.622,5.622,0,0,1,.875,3.289Zm-1.539-.164a4.666,4.666,0,0,0-.535-2.371,1.762,1.762,0,0,0-1.629-.918,2.014,2.014,0,0,0-1.2.348,2.452,2.452,0,0,0-.777.934v3.664a2.517,2.517,0,0,0,.777.977,2,2,0,0,0,1.215.352,1.829,1.829,0,0,0,1.617-.773,3.552,3.552,0,0,0,.531-2.047Zm5.555-6.422v2.039h1.6v1.141h-1.6V21.82a1.149,1.149,0,0,0,.246.836.89.89,0,0,0,.652.242,1.43,1.43,0,0,0,.3-.035,2.2,2.2,0,0,0,.273-.074l.211,1.055a1.36,1.36,0,0,1-.508.23,2.562,2.562,0,0,1-.664.09,1.993,1.993,0,0,1-1.492-.566,2.46,2.46,0,0,1-.555-1.777V16.688h-1.344V15.547h1.344V13.508ZM-62.34,24h-1.539V15.547h1.539Zm0-10.617h-1.539v-1.57h1.539Zm5.867,10.781A3.576,3.576,0,0,1-59.312,23a4.48,4.48,0,0,1-1.02-3.062v-.344a4.386,4.386,0,0,1,1.051-3.012,3.3,3.3,0,0,1,2.566-1.191,3.067,3.067,0,0,1,2.543,1.055,4.345,4.345,0,0,1,.848,2.8v.813H-58.73l-.023.039a3.494,3.494,0,0,0,.563,2.066,1.965,1.965,0,0,0,1.719.793,3.872,3.872,0,0,0,1.371-.223,3.061,3.061,0,0,0,1.012-.613l.6,1a3.7,3.7,0,0,1-1.2.738A4.762,4.762,0,0,1-56.473,24.164Zm-.242-7.562a1.673,1.673,0,0,0-1.332.621,2.938,2.938,0,0,0-.645,1.59l.016.039h3.813v-.125a2.462,2.462,0,0,0-.453-1.523A1.638,1.638,0,0,0-56.715,16.6Zm6.492-1.055.109,1.258a3.069,3.069,0,0,1,1.059-1.043,2.824,2.824,0,0,1,1.449-.371,2.759,2.759,0,0,1,2.117.8,3.515,3.515,0,0,1,.75,2.473V24h-1.539V18.7a2.287,2.287,0,0,0-.441-1.586,1.768,1.768,0,0,0-1.348-.469,2.386,2.386,0,0,0-1.207.285,2.072,2.072,0,0,0-.785.8V24H-51.6V15.547ZM-39,24.164A3.576,3.576,0,0,1-41.844,23a4.48,4.48,0,0,1-1.02-3.062v-.344a4.386,4.386,0,0,1,1.051-3.012,3.3,3.3,0,0,1,2.566-1.191A3.067,3.067,0,0,1-36.7,16.445a4.345,4.345,0,0,1,.848,2.8v.813h-5.406l-.023.039a3.494,3.494,0,0,0,.563,2.066A1.965,1.965,0,0,0-39,22.961a3.872,3.872,0,0,0,1.371-.223,3.061,3.061,0,0,0,1.012-.613l.6,1a3.7,3.7,0,0,1-1.2.738A4.762,4.762,0,0,1-39,24.164Zm-.242-7.562a1.673,1.673,0,0,0-1.332.621,2.938,2.938,0,0,0-.645,1.59l.016.039h3.813v-.125a2.462,2.462,0,0,0-.453-1.523A1.638,1.638,0,0,0-39.246,16.6Zm14.461,6.148A2.863,2.863,0,0,1-25.809,23.8a2.8,2.8,0,0,1-1.445.367,2.716,2.716,0,0,1-2.156-.883,4.1,4.1,0,0,1-.773-2.75V15.547h1.539v5a3.147,3.147,0,0,0,.4,1.859A1.481,1.481,0,0,0-27,22.914a2.531,2.531,0,0,0,1.355-.332,2.077,2.077,0,0,0,.809-.941V15.547H-23.3V24h-1.383Zm5.1-7.2.109,1.258a3.069,3.069,0,0,1,1.059-1.043,2.824,2.824,0,0,1,1.449-.371,2.759,2.759,0,0,1,2.117.8,3.515,3.515,0,0,1,.75,2.473V24h-1.539V18.7a2.287,2.287,0,0,0-.441-1.586,1.768,1.768,0,0,0-1.348-.469,2.386,2.386,0,0,0-1.207.285,2.072,2.072,0,0,0-.785.8V24h-1.539V15.547ZM-6.77,24q-.078-.383-.121-.676a4.96,4.96,0,0,1-.051-.59,3.589,3.589,0,0,1-1.121,1.02,2.867,2.867,0,0,1-1.488.41,2.763,2.763,0,0,1-2.012-.676,2.486,2.486,0,0,1-.691-1.863,2.183,2.183,0,0,1,.98-1.895,4.579,4.579,0,0,1,2.66-.684h1.672v-.836a1.551,1.551,0,0,0-.453-1.176A1.779,1.779,0,0,0-8.676,16.6a1.859,1.859,0,0,0-1.211.375,1.125,1.125,0,0,0-.461.9l-1.461.016-.016-.047a2.023,2.023,0,0,1,.863-1.687,3.578,3.578,0,0,1,2.371-.766,3.49,3.49,0,0,1,2.313.73A2.588,2.588,0,0,1-5.4,18.227V22.3a7.923,7.923,0,0,0,.047.875A4.5,4.5,0,0,0-5.184,24Zm-2.555-1.125a2.739,2.739,0,0,0,1.508-.43,2.042,2.042,0,0,0,.875-.984V20.086H-8.668a2.24,2.24,0,0,0-1.488.469,1.4,1.4,0,0,0-.559,1.1,1.159,1.159,0,0,0,.352.891A1.472,1.472,0,0,0-9.324,22.875ZM4.809,16.906l-.789-.047a1.762,1.762,0,0,0-1.027.289,1.854,1.854,0,0,0-.645.813V24H.809V15.547H2.184l.148,1.234a2.934,2.934,0,0,1,.887-1.023,2.073,2.073,0,0,1,1.215-.367,1.9,1.9,0,0,1,.328.027,2.175,2.175,0,0,1,.258.059Zm4.953,7.258A3.576,3.576,0,0,1,6.922,23,4.48,4.48,0,0,1,5.9,19.938v-.344a4.386,4.386,0,0,1,1.051-3.012A3.3,3.3,0,0,1,9.52,15.391a3.067,3.067,0,0,1,2.543,1.055,4.345,4.345,0,0,1,.848,2.8v.813H7.5L7.48,20.1a3.494,3.494,0,0,0,.563,2.066,1.965,1.965,0,0,0,1.719.793,3.872,3.872,0,0,0,1.371-.223,3.061,3.061,0,0,0,1.012-.613l.6,1a3.7,3.7,0,0,1-1.2.738A4.762,4.762,0,0,1,9.762,24.164ZM9.52,16.6a1.673,1.673,0,0,0-1.332.621,2.938,2.938,0,0,0-.645,1.59l.016.039h3.813v-.125a2.462,2.462,0,0,0-.453-1.523A1.638,1.638,0,0,0,9.52,16.6ZM18,22.961a1.81,1.81,0,0,0,1.242-.473,1.494,1.494,0,0,0,.531-1.16H21.16l.023.047a2.428,2.428,0,0,1-.937,1.941,3.313,3.313,0,0,1-2.25.848,3.319,3.319,0,0,1-2.75-1.211,4.674,4.674,0,0,1-.969-3.016v-.328a4.654,4.654,0,0,1,.973-3A3.317,3.317,0,0,1,18,15.391a3.189,3.189,0,0,1,2.316.875,2.775,2.775,0,0,1,.871,2.148l-.016.047h-1.4a1.865,1.865,0,0,0-.5-1.316A1.658,1.658,0,0,0,18,16.6a1.777,1.777,0,0,0-1.652.879,4.114,4.114,0,0,0-.52,2.129v.328a4.192,4.192,0,0,0,.512,2.148A1.776,1.776,0,0,0,18,22.961ZM22.652,19.7a4.654,4.654,0,0,1,1.016-3.09,3.406,3.406,0,0,1,2.758-1.215A3.439,3.439,0,0,1,29.2,16.6a4.639,4.639,0,0,1,1.02,3.094v.172a4.631,4.631,0,0,1-1.016,3.094,3.429,3.429,0,0,1-2.766,1.2,3.436,3.436,0,0,1-2.77-1.207,4.623,4.623,0,0,1-1.02-3.09Zm1.539.172a4.009,4.009,0,0,0,.566,2.219,2.046,2.046,0,0,0,3.355,0,3.988,3.988,0,0,0,.57-2.219V19.7a3.976,3.976,0,0,0-.574-2.211,1.882,1.882,0,0,0-1.684-.883,1.856,1.856,0,0,0-1.668.883,4.018,4.018,0,0,0-.566,2.211Zm9.289-4.32.109,1.109a2.871,2.871,0,0,1,1.051-.934,3.158,3.158,0,0,1,1.48-.332,2.615,2.615,0,0,1,1.449.391,2.363,2.363,0,0,1,.91,1.172,3.162,3.162,0,0,1,1.059-1.145,2.769,2.769,0,0,1,1.527-.418,2.531,2.531,0,0,1,2.039.887,4.051,4.051,0,0,1,.75,2.668V24H42.316V18.93a2.81,2.81,0,0,0-.43-1.77,1.567,1.567,0,0,0-1.281-.52,1.631,1.631,0,0,0-1.277.547,2.381,2.381,0,0,0-.574,1.383V24H37.207V18.93a2.772,2.772,0,0,0-.441-1.738,1.532,1.532,0,0,0-1.27-.551,2.115,2.115,0,0,0-1.156.289,1.867,1.867,0,0,0-.7.813V24H32.105V15.547Zm19.813,4.547a4.659,4.659,0,0,1-.875,2.949A2.893,2.893,0,0,1,50,24.164a3.354,3.354,0,0,1-1.371-.262,2.622,2.622,0,0,1-1-.785V27.25H46.09v-11.7h1.18l.242,1.094a2.792,2.792,0,0,1,1.031-.93,3.078,3.078,0,0,1,1.438-.32,2.809,2.809,0,0,1,2.441,1.246,5.637,5.637,0,0,1,.871,3.293Zm-1.539-.164a4.467,4.467,0,0,0-.566-2.363,1.835,1.835,0,0,0-1.668-.926,2.053,2.053,0,0,0-1.133.3,2.25,2.25,0,0,0-.758.824v4.086a2.186,2.186,0,0,0,.758.816,2.126,2.126,0,0,0,1.148.293,1.894,1.894,0,0,0,1.656-.8,3.516,3.516,0,0,0,.563-2.066Zm6.93,4.234A3.576,3.576,0,0,1,55.844,23a4.48,4.48,0,0,1-1.02-3.062v-.344a4.386,4.386,0,0,1,1.051-3.012,3.3,3.3,0,0,1,2.566-1.191,3.067,3.067,0,0,1,2.543,1.055,4.345,4.345,0,0,1,.848,2.8v.813H56.426L56.4,20.1a3.494,3.494,0,0,0,.563,2.066,1.965,1.965,0,0,0,1.719.793,3.872,3.872,0,0,0,1.371-.223,3.061,3.061,0,0,0,1.012-.613l.6,1a3.7,3.7,0,0,1-1.2.738A4.762,4.762,0,0,1,58.684,24.164ZM58.441,16.6a1.673,1.673,0,0,0-1.332.621,2.938,2.938,0,0,0-.645,1.59l.016.039h3.813v-.125A2.462,2.462,0,0,0,59.84,17.2,1.638,1.638,0,0,0,58.441,16.6Zm6.492-1.055.109,1.258A3.069,3.069,0,0,1,66.1,15.762a2.824,2.824,0,0,1,1.449-.371,2.759,2.759,0,0,1,2.117.8,3.515,3.515,0,0,1,.75,2.473V24H68.879V18.7a2.287,2.287,0,0,0-.441-1.586,1.768,1.768,0,0,0-1.348-.469,2.386,2.386,0,0,0-1.207.285,2.072,2.072,0,0,0-.785.8V24H63.559V15.547Zm12.633,6.18a1.026,1.026,0,0,0-.387-.828,3.732,3.732,0,0,0-1.465-.562,6.146,6.146,0,0,1-2.293-.9,1.814,1.814,0,0,1-.8-1.547,2.229,2.229,0,0,1,.879-1.766,3.879,3.879,0,0,1,4.605.047,2.239,2.239,0,0,1,.852,1.82l-.016.047H77.473a1.331,1.331,0,0,0-.48-.992,1.717,1.717,0,0,0-1.215-.445,1.751,1.751,0,0,0-1.215.367,1.146,1.146,0,0,0-.4.875.927.927,0,0,0,.348.773,3.848,3.848,0,0,0,1.434.5,6.058,6.058,0,0,1,2.359.93,1.872,1.872,0,0,1,.8,1.57,2.226,2.226,0,0,1-.91,1.836,3.754,3.754,0,0,1-2.379.711,3.715,3.715,0,0,1-2.547-.82,2.341,2.341,0,0,1-.883-1.914l.016-.047h1.469a1.424,1.424,0,0,0,.609,1.2,2.358,2.358,0,0,0,1.336.379,2.1,2.1,0,0,0,1.285-.348A1.063,1.063,0,0,0,77.566,21.727ZM86.215,24q-.078-.383-.121-.676a4.96,4.96,0,0,1-.051-.59,3.589,3.589,0,0,1-1.121,1.02,2.867,2.867,0,0,1-1.488.41,2.763,2.763,0,0,1-2.012-.676,2.486,2.486,0,0,1-.691-1.863,2.183,2.183,0,0,1,.98-1.895,4.579,4.579,0,0,1,2.66-.684h1.672v-.836a1.551,1.551,0,0,0-.453-1.176,1.779,1.779,0,0,0-1.281-.434,1.859,1.859,0,0,0-1.211.375,1.125,1.125,0,0,0-.461.9l-1.461.016-.016-.047a2.023,2.023,0,0,1,.863-1.687,3.578,3.578,0,0,1,2.371-.766,3.49,3.49,0,0,1,2.313.73,2.588,2.588,0,0,1,.875,2.105V22.3a7.923,7.923,0,0,0,.047.875A4.5,4.5,0,0,0,87.8,24ZM83.66,22.875a2.739,2.739,0,0,0,1.508-.43,2.042,2.042,0,0,0,.875-.984V20.086H84.316a2.24,2.24,0,0,0-1.488.469,1.4,1.4,0,0,0-.559,1.1,1.159,1.159,0,0,0,.352.891A1.472,1.472,0,0,0,83.66,22.875Z" transform="translate(600 7216)" fill="#12263f"/>
  </g>
</svg>
